<mxfile host="app.diagrams.net" agent="Mozilla/5.0 (Windows NT 10.0; Win64; x64) AppleWebKit/537.36 (KHTML, like Gecko) Chrome/128.0.0.0 Safari/537.36" version="26.1.0" pages="5">
  <diagram name="第 1 页" id="Bjl-2BXSLluGc90kdZrx">
    <mxGraphModel dx="576" dy="873" grid="0" gridSize="10" guides="1" tooltips="1" connect="1" arrows="1" fold="1" page="1" pageScale="1" pageWidth="827" pageHeight="1169" math="0" shadow="0">
      <root>
        <mxCell id="0" />
        <mxCell id="1" parent="0" />
        <mxCell id="bXmnQ4hSnBtLy83CfIeE-12" value="" style="edgeStyle=orthogonalEdgeStyle;rounded=0;orthogonalLoop=1;jettySize=auto;html=1;" edge="1" parent="1" source="bXmnQ4hSnBtLy83CfIeE-3" target="bXmnQ4hSnBtLy83CfIeE-11">
          <mxGeometry relative="1" as="geometry" />
        </mxCell>
        <mxCell id="bXmnQ4hSnBtLy83CfIeE-3" value="1" style="text;strokeColor=#d6b656;fillColor=#fff2cc;align=center;verticalAlign=middle;spacingLeft=4;spacingRight=4;overflow=hidden;points=[[0,0.5],[1,0.5]];portConstraint=eastwest;rotatable=0;whiteSpace=wrap;html=1;" vertex="1" parent="1">
          <mxGeometry x="190" y="177" width="140" height="30" as="geometry" />
        </mxCell>
        <mxCell id="bXmnQ4hSnBtLy83CfIeE-4" value="0" style="text;strokeColor=#d6b656;fillColor=#fff2cc;align=center;verticalAlign=middle;spacingLeft=4;spacingRight=4;overflow=hidden;points=[[0,0.5],[1,0.5]];portConstraint=eastwest;rotatable=0;whiteSpace=wrap;html=1;" vertex="1" parent="1">
          <mxGeometry x="190" y="147" width="140" height="30" as="geometry" />
        </mxCell>
        <mxCell id="bXmnQ4hSnBtLy83CfIeE-6" value="Thread1" style="text;html=1;align=center;verticalAlign=middle;whiteSpace=wrap;rounded=0;" vertex="1" parent="1">
          <mxGeometry x="64" y="147" width="60" height="30" as="geometry" />
        </mxCell>
        <mxCell id="bXmnQ4hSnBtLy83CfIeE-7" value="2" style="text;strokeColor=#b85450;fillColor=#f8cecc;align=center;verticalAlign=middle;spacingLeft=4;spacingRight=4;overflow=hidden;points=[[0,0.5],[1,0.5]];portConstraint=eastwest;rotatable=0;whiteSpace=wrap;html=1;" vertex="1" parent="1">
          <mxGeometry x="190" y="337" width="140" height="30" as="geometry" />
        </mxCell>
        <mxCell id="bXmnQ4hSnBtLy83CfIeE-8" value="1" style="text;strokeColor=#b85450;fillColor=#f8cecc;align=center;verticalAlign=middle;spacingLeft=4;spacingRight=4;overflow=hidden;points=[[0,0.5],[1,0.5]];portConstraint=eastwest;rotatable=0;whiteSpace=wrap;html=1;" vertex="1" parent="1">
          <mxGeometry x="190" y="307" width="140" height="30" as="geometry" />
        </mxCell>
        <mxCell id="bXmnQ4hSnBtLy83CfIeE-9" value="0" style="text;strokeColor=#b85450;fillColor=#f8cecc;align=center;verticalAlign=middle;spacingLeft=4;spacingRight=4;overflow=hidden;points=[[0,0.5],[1,0.5]];portConstraint=eastwest;rotatable=0;whiteSpace=wrap;html=1;" vertex="1" parent="1">
          <mxGeometry x="190" y="277" width="140" height="30" as="geometry" />
        </mxCell>
        <mxCell id="bXmnQ4hSnBtLy83CfIeE-10" value="3" style="text;strokeColor=#b85450;fillColor=#f8cecc;align=center;verticalAlign=middle;spacingLeft=4;spacingRight=4;overflow=hidden;points=[[0,0.5],[1,0.5]];portConstraint=eastwest;rotatable=0;whiteSpace=wrap;html=1;" vertex="1" parent="1">
          <mxGeometry x="190" y="367" width="140" height="30" as="geometry" />
        </mxCell>
        <mxCell id="bXmnQ4hSnBtLy83CfIeE-14" value="" style="edgeStyle=orthogonalEdgeStyle;rounded=0;orthogonalLoop=1;jettySize=auto;html=1;" edge="1" parent="1" source="bXmnQ4hSnBtLy83CfIeE-11" target="bXmnQ4hSnBtLy83CfIeE-13">
          <mxGeometry relative="1" as="geometry" />
        </mxCell>
        <mxCell id="bXmnQ4hSnBtLy83CfIeE-11" value="key=3&lt;br&gt;value=A" style="text;strokeColor=#82b366;fillColor=#d5e8d4;align=center;verticalAlign=middle;spacingLeft=4;spacingRight=4;overflow=hidden;points=[[0,0.5],[1,0.5]];portConstraint=eastwest;rotatable=0;whiteSpace=wrap;html=1;" vertex="1" parent="1">
          <mxGeometry x="410" y="177" width="140" height="30" as="geometry" />
        </mxCell>
        <mxCell id="bXmnQ4hSnBtLy83CfIeE-16" value="" style="edgeStyle=orthogonalEdgeStyle;rounded=0;orthogonalLoop=1;jettySize=auto;html=1;" edge="1" parent="1" source="bXmnQ4hSnBtLy83CfIeE-13" target="bXmnQ4hSnBtLy83CfIeE-15">
          <mxGeometry relative="1" as="geometry" />
        </mxCell>
        <mxCell id="bXmnQ4hSnBtLy83CfIeE-13" value="key=7&lt;br&gt;value=B" style="text;strokeColor=#6c8ebf;fillColor=#dae8fc;align=center;verticalAlign=middle;spacingLeft=4;spacingRight=4;overflow=hidden;points=[[0,0.5],[1,0.5]];portConstraint=eastwest;rotatable=0;whiteSpace=wrap;html=1;" vertex="1" parent="1">
          <mxGeometry x="630" y="177" width="140" height="30" as="geometry" />
        </mxCell>
        <mxCell id="bXmnQ4hSnBtLy83CfIeE-15" value="key=5&lt;br&gt;value=C" style="text;strokeColor=#36393d;fillColor=#f9f7ed;align=center;verticalAlign=middle;spacingLeft=4;spacingRight=4;overflow=hidden;points=[[0,0.5],[1,0.5]];portConstraint=eastwest;rotatable=0;whiteSpace=wrap;html=1;" vertex="1" parent="1">
          <mxGeometry x="850" y="177" width="140" height="30" as="geometry" />
        </mxCell>
        <mxCell id="bXmnQ4hSnBtLy83CfIeE-17" value="e" style="text;html=1;align=center;verticalAlign=middle;whiteSpace=wrap;rounded=0;" vertex="1" parent="1">
          <mxGeometry x="392" y="130" width="60" height="30" as="geometry" />
        </mxCell>
        <mxCell id="bXmnQ4hSnBtLy83CfIeE-19" value="next" style="text;html=1;align=center;verticalAlign=middle;whiteSpace=wrap;rounded=0;" vertex="1" parent="1">
          <mxGeometry x="603" y="130" width="60" height="30" as="geometry" />
        </mxCell>
        <mxCell id="bXmnQ4hSnBtLy83CfIeE-21" value="" style="endArrow=classic;html=1;rounded=0;dashed=1;exitX=0.75;exitY=1;exitDx=0;exitDy=0;" edge="1" parent="1" source="bXmnQ4hSnBtLy83CfIeE-17" target="bXmnQ4hSnBtLy83CfIeE-11">
          <mxGeometry width="50" height="50" relative="1" as="geometry">
            <mxPoint x="432" y="144" as="sourcePoint" />
            <mxPoint x="458" y="180" as="targetPoint" />
          </mxGeometry>
        </mxCell>
        <mxCell id="bXmnQ4hSnBtLy83CfIeE-22" value="" style="endArrow=classic;html=1;rounded=0;dashed=1;entryX=0.463;entryY=0.02;entryDx=0;entryDy=0;entryPerimeter=0;" edge="1" parent="1" source="bXmnQ4hSnBtLy83CfIeE-19" target="bXmnQ4hSnBtLy83CfIeE-13">
          <mxGeometry width="50" height="50" relative="1" as="geometry">
            <mxPoint x="442" y="154" as="sourcePoint" />
            <mxPoint x="468" y="190" as="targetPoint" />
          </mxGeometry>
        </mxCell>
        <mxCell id="bXmnQ4hSnBtLy83CfIeE-35" value="" style="edgeStyle=orthogonalEdgeStyle;rounded=0;orthogonalLoop=1;jettySize=auto;html=1;entryX=0;entryY=0.5;entryDx=0;entryDy=0;" edge="1" source="bXmnQ4hSnBtLy83CfIeE-36" target="bXmnQ4hSnBtLy83CfIeE-62" parent="1">
          <mxGeometry relative="1" as="geometry">
            <mxPoint x="410" y="563" as="targetPoint" />
          </mxGeometry>
        </mxCell>
        <mxCell id="bXmnQ4hSnBtLy83CfIeE-36" value="1" style="text;strokeColor=#d6b656;fillColor=#fff2cc;align=center;verticalAlign=middle;spacingLeft=4;spacingRight=4;overflow=hidden;points=[[0,0.5],[1,0.5]];portConstraint=eastwest;rotatable=0;whiteSpace=wrap;html=1;" vertex="1" parent="1">
          <mxGeometry x="190" y="548" width="140" height="30" as="geometry" />
        </mxCell>
        <mxCell id="bXmnQ4hSnBtLy83CfIeE-37" value="0" style="text;strokeColor=#d6b656;fillColor=#fff2cc;align=center;verticalAlign=middle;spacingLeft=4;spacingRight=4;overflow=hidden;points=[[0,0.5],[1,0.5]];portConstraint=eastwest;rotatable=0;whiteSpace=wrap;html=1;" vertex="1" parent="1">
          <mxGeometry x="190" y="518" width="140" height="30" as="geometry" />
        </mxCell>
        <mxCell id="bXmnQ4hSnBtLy83CfIeE-38" value="Thread2" style="text;html=1;align=center;verticalAlign=middle;whiteSpace=wrap;rounded=0;" vertex="1" parent="1">
          <mxGeometry x="64" y="518" width="60" height="30" as="geometry" />
        </mxCell>
        <mxCell id="bXmnQ4hSnBtLy83CfIeE-39" value="2" style="text;strokeColor=#b85450;fillColor=#f8cecc;align=center;verticalAlign=middle;spacingLeft=4;spacingRight=4;overflow=hidden;points=[[0,0.5],[1,0.5]];portConstraint=eastwest;rotatable=0;whiteSpace=wrap;html=1;" vertex="1" parent="1">
          <mxGeometry x="190" y="708" width="140" height="30" as="geometry" />
        </mxCell>
        <mxCell id="bXmnQ4hSnBtLy83CfIeE-40" value="" style="edgeStyle=orthogonalEdgeStyle;rounded=0;orthogonalLoop=1;jettySize=auto;html=1;" edge="1" source="bXmnQ4hSnBtLy83CfIeE-41" target="bXmnQ4hSnBtLy83CfIeE-55" parent="1">
          <mxGeometry relative="1" as="geometry" />
        </mxCell>
        <mxCell id="bXmnQ4hSnBtLy83CfIeE-41" value="1" style="text;strokeColor=#b85450;fillColor=#f8cecc;align=center;verticalAlign=middle;spacingLeft=4;spacingRight=4;overflow=hidden;points=[[0,0.5],[1,0.5]];portConstraint=eastwest;rotatable=0;whiteSpace=wrap;html=1;" vertex="1" parent="1">
          <mxGeometry x="190" y="678" width="140" height="30" as="geometry" />
        </mxCell>
        <mxCell id="bXmnQ4hSnBtLy83CfIeE-42" value="0" style="text;strokeColor=#b85450;fillColor=#f8cecc;align=center;verticalAlign=middle;spacingLeft=4;spacingRight=4;overflow=hidden;points=[[0,0.5],[1,0.5]];portConstraint=eastwest;rotatable=0;whiteSpace=wrap;html=1;" vertex="1" parent="1">
          <mxGeometry x="190" y="648" width="140" height="30" as="geometry" />
        </mxCell>
        <mxCell id="bXmnQ4hSnBtLy83CfIeE-43" value="" style="edgeStyle=orthogonalEdgeStyle;rounded=0;orthogonalLoop=1;jettySize=auto;html=1;" edge="1" source="bXmnQ4hSnBtLy83CfIeE-44" target="bXmnQ4hSnBtLy83CfIeE-58" parent="1">
          <mxGeometry relative="1" as="geometry" />
        </mxCell>
        <mxCell id="bXmnQ4hSnBtLy83CfIeE-44" value="3" style="text;strokeColor=#b85450;fillColor=#f8cecc;align=center;verticalAlign=middle;spacingLeft=4;spacingRight=4;overflow=hidden;points=[[0,0.5],[1,0.5]];portConstraint=eastwest;rotatable=0;whiteSpace=wrap;html=1;" vertex="1" parent="1">
          <mxGeometry x="190" y="738" width="140" height="30" as="geometry" />
        </mxCell>
        <mxCell id="bXmnQ4hSnBtLy83CfIeE-54" value="" style="edgeStyle=orthogonalEdgeStyle;rounded=0;orthogonalLoop=1;jettySize=auto;html=1;" edge="1" source="bXmnQ4hSnBtLy83CfIeE-55" target="bXmnQ4hSnBtLy83CfIeE-56" parent="1">
          <mxGeometry relative="1" as="geometry" />
        </mxCell>
        <mxCell id="bXmnQ4hSnBtLy83CfIeE-55" value="key=5&lt;br&gt;value=C" style="text;strokeColor=#36393d;fillColor=#f9f7ed;align=center;verticalAlign=middle;spacingLeft=4;spacingRight=4;overflow=hidden;points=[[0,0.5],[1,0.5]];portConstraint=eastwest;rotatable=0;whiteSpace=wrap;html=1;" vertex="1" parent="1">
          <mxGeometry x="410" y="678" width="140" height="30" as="geometry" />
        </mxCell>
        <mxCell id="bXmnQ4hSnBtLy83CfIeE-56" value="null" style="text;strokeColor=default;fillColor=none;align=center;verticalAlign=middle;spacingLeft=4;spacingRight=4;overflow=hidden;points=[[0,0.5],[1,0.5]];portConstraint=eastwest;rotatable=0;whiteSpace=wrap;html=1;" vertex="1" parent="1">
          <mxGeometry x="630" y="678" width="140" height="30" as="geometry" />
        </mxCell>
        <mxCell id="bXmnQ4hSnBtLy83CfIeE-57" value="" style="edgeStyle=orthogonalEdgeStyle;rounded=0;orthogonalLoop=1;jettySize=auto;html=1;" edge="1" source="bXmnQ4hSnBtLy83CfIeE-58" target="bXmnQ4hSnBtLy83CfIeE-60" parent="1">
          <mxGeometry relative="1" as="geometry" />
        </mxCell>
        <mxCell id="bXmnQ4hSnBtLy83CfIeE-58" value="key=7&lt;br&gt;value=B" style="text;strokeColor=#6c8ebf;fillColor=#dae8fc;align=center;verticalAlign=middle;spacingLeft=4;spacingRight=4;overflow=hidden;points=[[0,0.5],[1,0.5]];portConstraint=eastwest;rotatable=0;whiteSpace=wrap;html=1;" vertex="1" parent="1">
          <mxGeometry x="410" y="738" width="140" height="30" as="geometry" />
        </mxCell>
        <mxCell id="bXmnQ4hSnBtLy83CfIeE-59" value="" style="edgeStyle=orthogonalEdgeStyle;rounded=0;orthogonalLoop=1;jettySize=auto;html=1;" edge="1" source="bXmnQ4hSnBtLy83CfIeE-60" target="bXmnQ4hSnBtLy83CfIeE-61" parent="1">
          <mxGeometry relative="1" as="geometry" />
        </mxCell>
        <mxCell id="bXmnQ4hSnBtLy83CfIeE-60" value="key=3&lt;br&gt;value=A" style="text;strokeColor=#82b366;fillColor=#d5e8d4;align=center;verticalAlign=middle;spacingLeft=4;spacingRight=4;overflow=hidden;points=[[0,0.5],[1,0.5]];portConstraint=eastwest;rotatable=0;whiteSpace=wrap;html=1;" vertex="1" parent="1">
          <mxGeometry x="630" y="738" width="140" height="30" as="geometry" />
        </mxCell>
        <mxCell id="bXmnQ4hSnBtLy83CfIeE-61" value="null" style="text;strokeColor=default;fillColor=none;align=center;verticalAlign=middle;spacingLeft=4;spacingRight=4;overflow=hidden;points=[[0,0.5],[1,0.5]];portConstraint=eastwest;rotatable=0;whiteSpace=wrap;html=1;" vertex="1" parent="1">
          <mxGeometry x="850" y="738" width="140" height="30" as="geometry" />
        </mxCell>
        <mxCell id="bXmnQ4hSnBtLy83CfIeE-62" value="null" style="text;strokeColor=default;fillColor=none;align=center;verticalAlign=middle;spacingLeft=4;spacingRight=4;overflow=hidden;points=[[0,0.5],[1,0.5]];portConstraint=eastwest;rotatable=0;whiteSpace=wrap;html=1;" vertex="1" parent="1">
          <mxGeometry x="410" y="548" width="140" height="30" as="geometry" />
        </mxCell>
        <mxCell id="bXmnQ4hSnBtLy83CfIeE-63" value="" style="endArrow=none;dashed=1;html=1;rounded=0;jumpSize=6;startSize=6;strokeWidth=1;" edge="1" parent="1">
          <mxGeometry width="50" height="50" relative="1" as="geometry">
            <mxPoint x="26" y="459" as="sourcePoint" />
            <mxPoint x="995" y="459" as="targetPoint" />
          </mxGeometry>
        </mxCell>
        <mxCell id="TEdcBhwHGBxOK0CQdVPJ-1" value="线程1的断点至transfer方法的“Entry next = e.next;”&lt;br&gt;线程2进行resize" style="text;html=1;align=center;verticalAlign=middle;whiteSpace=wrap;rounded=0;fillColor=#fad7ac;strokeColor=#b46504;" vertex="1" parent="1">
          <mxGeometry x="77" y="46" width="372" height="30" as="geometry" />
        </mxCell>
      </root>
    </mxGraphModel>
  </diagram>
  <diagram id="AlmJqrzszXnPVzsUvHbv" name="第 2 页">
    <mxGraphModel dx="3585" dy="1845" grid="0" gridSize="10" guides="1" tooltips="1" connect="1" arrows="1" fold="1" page="0" pageScale="1" pageWidth="827" pageHeight="1169" math="0" shadow="0">
      <root>
        <mxCell id="0" />
        <mxCell id="1" parent="0" />
        <mxCell id="IXh0SZQ6k91fBE7avxpE-1" value="" style="edgeStyle=orthogonalEdgeStyle;rounded=0;orthogonalLoop=1;jettySize=auto;html=1;" parent="1" source="IXh0SZQ6k91fBE7avxpE-2" target="IXh0SZQ6k91fBE7avxpE-10" edge="1">
          <mxGeometry relative="1" as="geometry" />
        </mxCell>
        <mxCell id="IXh0SZQ6k91fBE7avxpE-2" value="1" style="text;strokeColor=#d6b656;fillColor=#fff2cc;align=center;verticalAlign=middle;spacingLeft=4;spacingRight=4;overflow=hidden;points=[[0,0.5],[1,0.5]];portConstraint=eastwest;rotatable=0;whiteSpace=wrap;html=1;" parent="1" vertex="1">
          <mxGeometry x="190" y="177" width="140" height="30" as="geometry" />
        </mxCell>
        <mxCell id="IXh0SZQ6k91fBE7avxpE-3" value="0" style="text;strokeColor=#d6b656;fillColor=#fff2cc;align=center;verticalAlign=middle;spacingLeft=4;spacingRight=4;overflow=hidden;points=[[0,0.5],[1,0.5]];portConstraint=eastwest;rotatable=0;whiteSpace=wrap;html=1;" parent="1" vertex="1">
          <mxGeometry x="190" y="147" width="140" height="30" as="geometry" />
        </mxCell>
        <mxCell id="IXh0SZQ6k91fBE7avxpE-4" value="Thread1" style="text;html=1;align=center;verticalAlign=middle;whiteSpace=wrap;rounded=0;" parent="1" vertex="1">
          <mxGeometry x="64" y="147" width="60" height="30" as="geometry" />
        </mxCell>
        <mxCell id="IXh0SZQ6k91fBE7avxpE-5" value="2" style="text;strokeColor=#b85450;fillColor=#f8cecc;align=center;verticalAlign=middle;spacingLeft=4;spacingRight=4;overflow=hidden;points=[[0,0.5],[1,0.5]];portConstraint=eastwest;rotatable=0;whiteSpace=wrap;html=1;" parent="1" vertex="1">
          <mxGeometry x="190" y="337" width="140" height="30" as="geometry" />
        </mxCell>
        <mxCell id="IXh0SZQ6k91fBE7avxpE-6" value="1" style="text;strokeColor=#b85450;fillColor=#f8cecc;align=center;verticalAlign=middle;spacingLeft=4;spacingRight=4;overflow=hidden;points=[[0,0.5],[1,0.5]];portConstraint=eastwest;rotatable=0;whiteSpace=wrap;html=1;" parent="1" vertex="1">
          <mxGeometry x="190" y="307" width="140" height="30" as="geometry" />
        </mxCell>
        <mxCell id="IXh0SZQ6k91fBE7avxpE-7" value="0" style="text;strokeColor=#b85450;fillColor=#f8cecc;align=center;verticalAlign=middle;spacingLeft=4;spacingRight=4;overflow=hidden;points=[[0,0.5],[1,0.5]];portConstraint=eastwest;rotatable=0;whiteSpace=wrap;html=1;" parent="1" vertex="1">
          <mxGeometry x="190" y="277" width="140" height="30" as="geometry" />
        </mxCell>
        <mxCell id="p1FK16nTqxmWdfNoiyjK-43" value="" style="edgeStyle=orthogonalEdgeStyle;rounded=0;orthogonalLoop=1;jettySize=auto;html=1;" parent="1" source="IXh0SZQ6k91fBE7avxpE-8" target="p1FK16nTqxmWdfNoiyjK-42" edge="1">
          <mxGeometry relative="1" as="geometry" />
        </mxCell>
        <mxCell id="IXh0SZQ6k91fBE7avxpE-8" value="3" style="text;strokeColor=#b85450;fillColor=#f8cecc;align=center;verticalAlign=middle;spacingLeft=4;spacingRight=4;overflow=hidden;points=[[0,0.5],[1,0.5]];portConstraint=eastwest;rotatable=0;whiteSpace=wrap;html=1;" parent="1" vertex="1">
          <mxGeometry x="190" y="367" width="140" height="30" as="geometry" />
        </mxCell>
        <mxCell id="IXh0SZQ6k91fBE7avxpE-10" value="key=3&lt;br&gt;value=A" style="text;strokeColor=#82b366;fillColor=#d5e8d4;align=center;verticalAlign=middle;spacingLeft=4;spacingRight=4;overflow=hidden;points=[[0,0.5],[1,0.5]];portConstraint=eastwest;rotatable=0;whiteSpace=wrap;html=1;" parent="1" vertex="1">
          <mxGeometry x="410" y="177" width="140" height="30" as="geometry" />
        </mxCell>
        <mxCell id="IXh0SZQ6k91fBE7avxpE-11" value="" style="edgeStyle=orthogonalEdgeStyle;rounded=0;orthogonalLoop=1;jettySize=auto;html=1;" parent="1" source="IXh0SZQ6k91fBE7avxpE-12" target="IXh0SZQ6k91fBE7avxpE-13" edge="1">
          <mxGeometry relative="1" as="geometry" />
        </mxCell>
        <mxCell id="IXh0SZQ6k91fBE7avxpE-12" value="key=7&lt;br&gt;value=B" style="text;strokeColor=#6c8ebf;fillColor=#dae8fc;align=center;verticalAlign=middle;spacingLeft=4;spacingRight=4;overflow=hidden;points=[[0,0.5],[1,0.5]];portConstraint=eastwest;rotatable=0;whiteSpace=wrap;html=1;" parent="1" vertex="1">
          <mxGeometry x="630" y="177" width="140" height="30" as="geometry" />
        </mxCell>
        <mxCell id="IXh0SZQ6k91fBE7avxpE-13" value="key=5&lt;br&gt;value=C" style="text;strokeColor=#36393d;fillColor=#f9f7ed;align=center;verticalAlign=middle;spacingLeft=4;spacingRight=4;overflow=hidden;points=[[0,0.5],[1,0.5]];portConstraint=eastwest;rotatable=0;whiteSpace=wrap;html=1;" parent="1" vertex="1">
          <mxGeometry x="850" y="177" width="140" height="30" as="geometry" />
        </mxCell>
        <mxCell id="IXh0SZQ6k91fBE7avxpE-14" value="e" style="text;html=1;align=center;verticalAlign=middle;whiteSpace=wrap;rounded=0;" parent="1" vertex="1">
          <mxGeometry x="392" y="130" width="60" height="30" as="geometry" />
        </mxCell>
        <mxCell id="IXh0SZQ6k91fBE7avxpE-15" value="next" style="text;html=1;align=center;verticalAlign=middle;whiteSpace=wrap;rounded=0;" parent="1" vertex="1">
          <mxGeometry x="603" y="130" width="60" height="30" as="geometry" />
        </mxCell>
        <mxCell id="IXh0SZQ6k91fBE7avxpE-16" value="" style="endArrow=classic;html=1;rounded=0;dashed=1;exitX=0.75;exitY=1;exitDx=0;exitDy=0;" parent="1" source="IXh0SZQ6k91fBE7avxpE-14" target="IXh0SZQ6k91fBE7avxpE-10" edge="1">
          <mxGeometry width="50" height="50" relative="1" as="geometry">
            <mxPoint x="432" y="144" as="sourcePoint" />
            <mxPoint x="458" y="180" as="targetPoint" />
          </mxGeometry>
        </mxCell>
        <mxCell id="IXh0SZQ6k91fBE7avxpE-17" value="" style="endArrow=classic;html=1;rounded=0;dashed=1;entryX=0.463;entryY=0.02;entryDx=0;entryDy=0;entryPerimeter=0;" parent="1" source="IXh0SZQ6k91fBE7avxpE-15" target="IXh0SZQ6k91fBE7avxpE-12" edge="1">
          <mxGeometry width="50" height="50" relative="1" as="geometry">
            <mxPoint x="442" y="154" as="sourcePoint" />
            <mxPoint x="468" y="190" as="targetPoint" />
          </mxGeometry>
        </mxCell>
        <mxCell id="IXh0SZQ6k91fBE7avxpE-18" value="" style="edgeStyle=orthogonalEdgeStyle;rounded=0;orthogonalLoop=1;jettySize=auto;html=1;entryX=0;entryY=0.5;entryDx=0;entryDy=0;" parent="1" source="IXh0SZQ6k91fBE7avxpE-19" target="IXh0SZQ6k91fBE7avxpE-36" edge="1">
          <mxGeometry relative="1" as="geometry">
            <mxPoint x="410" y="563" as="targetPoint" />
          </mxGeometry>
        </mxCell>
        <mxCell id="IXh0SZQ6k91fBE7avxpE-19" value="1" style="text;strokeColor=#d6b656;fillColor=#fff2cc;align=center;verticalAlign=middle;spacingLeft=4;spacingRight=4;overflow=hidden;points=[[0,0.5],[1,0.5]];portConstraint=eastwest;rotatable=0;whiteSpace=wrap;html=1;" parent="1" vertex="1">
          <mxGeometry x="190" y="548" width="140" height="30" as="geometry" />
        </mxCell>
        <mxCell id="IXh0SZQ6k91fBE7avxpE-20" value="0" style="text;strokeColor=#d6b656;fillColor=#fff2cc;align=center;verticalAlign=middle;spacingLeft=4;spacingRight=4;overflow=hidden;points=[[0,0.5],[1,0.5]];portConstraint=eastwest;rotatable=0;whiteSpace=wrap;html=1;" parent="1" vertex="1">
          <mxGeometry x="190" y="518" width="140" height="30" as="geometry" />
        </mxCell>
        <mxCell id="IXh0SZQ6k91fBE7avxpE-21" value="Thread2" style="text;html=1;align=center;verticalAlign=middle;whiteSpace=wrap;rounded=0;" parent="1" vertex="1">
          <mxGeometry x="64" y="518" width="60" height="30" as="geometry" />
        </mxCell>
        <mxCell id="IXh0SZQ6k91fBE7avxpE-22" value="2" style="text;strokeColor=#b85450;fillColor=#f8cecc;align=center;verticalAlign=middle;spacingLeft=4;spacingRight=4;overflow=hidden;points=[[0,0.5],[1,0.5]];portConstraint=eastwest;rotatable=0;whiteSpace=wrap;html=1;" parent="1" vertex="1">
          <mxGeometry x="190" y="708" width="140" height="30" as="geometry" />
        </mxCell>
        <mxCell id="IXh0SZQ6k91fBE7avxpE-23" value="" style="edgeStyle=orthogonalEdgeStyle;rounded=0;orthogonalLoop=1;jettySize=auto;html=1;" parent="1" source="IXh0SZQ6k91fBE7avxpE-24" target="IXh0SZQ6k91fBE7avxpE-29" edge="1">
          <mxGeometry relative="1" as="geometry" />
        </mxCell>
        <mxCell id="IXh0SZQ6k91fBE7avxpE-24" value="1" style="text;strokeColor=#b85450;fillColor=#f8cecc;align=center;verticalAlign=middle;spacingLeft=4;spacingRight=4;overflow=hidden;points=[[0,0.5],[1,0.5]];portConstraint=eastwest;rotatable=0;whiteSpace=wrap;html=1;" parent="1" vertex="1">
          <mxGeometry x="190" y="678" width="140" height="30" as="geometry" />
        </mxCell>
        <mxCell id="IXh0SZQ6k91fBE7avxpE-25" value="0" style="text;strokeColor=#b85450;fillColor=#f8cecc;align=center;verticalAlign=middle;spacingLeft=4;spacingRight=4;overflow=hidden;points=[[0,0.5],[1,0.5]];portConstraint=eastwest;rotatable=0;whiteSpace=wrap;html=1;" parent="1" vertex="1">
          <mxGeometry x="190" y="648" width="140" height="30" as="geometry" />
        </mxCell>
        <mxCell id="IXh0SZQ6k91fBE7avxpE-26" value="" style="edgeStyle=orthogonalEdgeStyle;rounded=0;orthogonalLoop=1;jettySize=auto;html=1;" parent="1" source="IXh0SZQ6k91fBE7avxpE-27" target="IXh0SZQ6k91fBE7avxpE-32" edge="1">
          <mxGeometry relative="1" as="geometry" />
        </mxCell>
        <mxCell id="IXh0SZQ6k91fBE7avxpE-27" value="3" style="text;strokeColor=#b85450;fillColor=#f8cecc;align=center;verticalAlign=middle;spacingLeft=4;spacingRight=4;overflow=hidden;points=[[0,0.5],[1,0.5]];portConstraint=eastwest;rotatable=0;whiteSpace=wrap;html=1;" parent="1" vertex="1">
          <mxGeometry x="190" y="738" width="140" height="30" as="geometry" />
        </mxCell>
        <mxCell id="IXh0SZQ6k91fBE7avxpE-28" value="" style="edgeStyle=orthogonalEdgeStyle;rounded=0;orthogonalLoop=1;jettySize=auto;html=1;" parent="1" source="IXh0SZQ6k91fBE7avxpE-29" target="IXh0SZQ6k91fBE7avxpE-30" edge="1">
          <mxGeometry relative="1" as="geometry" />
        </mxCell>
        <mxCell id="IXh0SZQ6k91fBE7avxpE-29" value="key=5&lt;br&gt;value=C" style="text;strokeColor=#36393d;fillColor=#f9f7ed;align=center;verticalAlign=middle;spacingLeft=4;spacingRight=4;overflow=hidden;points=[[0,0.5],[1,0.5]];portConstraint=eastwest;rotatable=0;whiteSpace=wrap;html=1;" parent="1" vertex="1">
          <mxGeometry x="410" y="678" width="140" height="30" as="geometry" />
        </mxCell>
        <mxCell id="IXh0SZQ6k91fBE7avxpE-30" value="null" style="text;strokeColor=default;fillColor=none;align=center;verticalAlign=middle;spacingLeft=4;spacingRight=4;overflow=hidden;points=[[0,0.5],[1,0.5]];portConstraint=eastwest;rotatable=0;whiteSpace=wrap;html=1;" parent="1" vertex="1">
          <mxGeometry x="630" y="678" width="140" height="30" as="geometry" />
        </mxCell>
        <mxCell id="IXh0SZQ6k91fBE7avxpE-31" value="" style="edgeStyle=orthogonalEdgeStyle;rounded=0;orthogonalLoop=1;jettySize=auto;html=1;" parent="1" source="IXh0SZQ6k91fBE7avxpE-32" target="IXh0SZQ6k91fBE7avxpE-34" edge="1">
          <mxGeometry relative="1" as="geometry" />
        </mxCell>
        <mxCell id="IXh0SZQ6k91fBE7avxpE-32" value="key=7&lt;br&gt;value=B" style="text;strokeColor=#6c8ebf;fillColor=#dae8fc;align=center;verticalAlign=middle;spacingLeft=4;spacingRight=4;overflow=hidden;points=[[0,0.5],[1,0.5]];portConstraint=eastwest;rotatable=0;whiteSpace=wrap;html=1;" parent="1" vertex="1">
          <mxGeometry x="410" y="738" width="140" height="30" as="geometry" />
        </mxCell>
        <mxCell id="IXh0SZQ6k91fBE7avxpE-33" value="" style="edgeStyle=orthogonalEdgeStyle;rounded=0;orthogonalLoop=1;jettySize=auto;html=1;" parent="1" source="IXh0SZQ6k91fBE7avxpE-34" target="IXh0SZQ6k91fBE7avxpE-35" edge="1">
          <mxGeometry relative="1" as="geometry" />
        </mxCell>
        <mxCell id="IXh0SZQ6k91fBE7avxpE-34" value="key=3&lt;br&gt;value=A" style="text;strokeColor=#82b366;fillColor=#d5e8d4;align=center;verticalAlign=middle;spacingLeft=4;spacingRight=4;overflow=hidden;points=[[0,0.5],[1,0.5]];portConstraint=eastwest;rotatable=0;whiteSpace=wrap;html=1;" parent="1" vertex="1">
          <mxGeometry x="630" y="738" width="140" height="30" as="geometry" />
        </mxCell>
        <mxCell id="IXh0SZQ6k91fBE7avxpE-35" value="null" style="text;strokeColor=default;fillColor=none;align=center;verticalAlign=middle;spacingLeft=4;spacingRight=4;overflow=hidden;points=[[0,0.5],[1,0.5]];portConstraint=eastwest;rotatable=0;whiteSpace=wrap;html=1;" parent="1" vertex="1">
          <mxGeometry x="850" y="738" width="140" height="30" as="geometry" />
        </mxCell>
        <mxCell id="IXh0SZQ6k91fBE7avxpE-36" value="null" style="text;strokeColor=default;fillColor=none;align=center;verticalAlign=middle;spacingLeft=4;spacingRight=4;overflow=hidden;points=[[0,0.5],[1,0.5]];portConstraint=eastwest;rotatable=0;whiteSpace=wrap;html=1;" parent="1" vertex="1">
          <mxGeometry x="410" y="548" width="140" height="30" as="geometry" />
        </mxCell>
        <mxCell id="IXh0SZQ6k91fBE7avxpE-37" value="" style="endArrow=none;dashed=1;html=1;rounded=0;jumpSize=6;startSize=6;strokeWidth=1;" parent="1" edge="1">
          <mxGeometry width="50" height="50" relative="1" as="geometry">
            <mxPoint x="26" y="459" as="sourcePoint" />
            <mxPoint x="995" y="459" as="targetPoint" />
          </mxGeometry>
        </mxCell>
        <mxCell id="xYCNjH0htgw447yriLz8-1" value="线程1释放断点，完成第一轮循环" style="text;html=1;align=center;verticalAlign=middle;whiteSpace=wrap;rounded=0;fillColor=#fad7ac;strokeColor=#b46504;" parent="1" vertex="1">
          <mxGeometry x="77" y="46" width="372" height="30" as="geometry" />
        </mxCell>
        <mxCell id="p1FK16nTqxmWdfNoiyjK-1" value="执行e.next = newTable[i];" style="text;html=1;align=center;verticalAlign=middle;whiteSpace=wrap;rounded=0;fillColor=#e3c800;fontColor=#000000;strokeColor=#B09500;" parent="1" vertex="1">
          <mxGeometry x="716" y="74" width="364" height="30" as="geometry" />
        </mxCell>
        <mxCell id="p1FK16nTqxmWdfNoiyjK-4" value="1" style="text;strokeColor=#d6b656;fillColor=#fff2cc;align=center;verticalAlign=middle;spacingLeft=4;spacingRight=4;overflow=hidden;points=[[0,0.5],[1,0.5]];portConstraint=eastwest;rotatable=0;whiteSpace=wrap;html=1;" parent="1" vertex="1">
          <mxGeometry x="190" y="1080" width="140" height="30" as="geometry" />
        </mxCell>
        <mxCell id="p1FK16nTqxmWdfNoiyjK-5" value="0" style="text;strokeColor=#d6b656;fillColor=#fff2cc;align=center;verticalAlign=middle;spacingLeft=4;spacingRight=4;overflow=hidden;points=[[0,0.5],[1,0.5]];portConstraint=eastwest;rotatable=0;whiteSpace=wrap;html=1;" parent="1" vertex="1">
          <mxGeometry x="190" y="1050" width="140" height="30" as="geometry" />
        </mxCell>
        <mxCell id="p1FK16nTqxmWdfNoiyjK-6" value="Thread1" style="text;html=1;align=center;verticalAlign=middle;whiteSpace=wrap;rounded=0;" parent="1" vertex="1">
          <mxGeometry x="64" y="1050" width="60" height="30" as="geometry" />
        </mxCell>
        <mxCell id="p1FK16nTqxmWdfNoiyjK-7" value="2" style="text;strokeColor=#b85450;fillColor=#f8cecc;align=center;verticalAlign=middle;spacingLeft=4;spacingRight=4;overflow=hidden;points=[[0,0.5],[1,0.5]];portConstraint=eastwest;rotatable=0;whiteSpace=wrap;html=1;" parent="1" vertex="1">
          <mxGeometry x="190" y="1240" width="140" height="30" as="geometry" />
        </mxCell>
        <mxCell id="p1FK16nTqxmWdfNoiyjK-8" value="1" style="text;strokeColor=#b85450;fillColor=#f8cecc;align=center;verticalAlign=middle;spacingLeft=4;spacingRight=4;overflow=hidden;points=[[0,0.5],[1,0.5]];portConstraint=eastwest;rotatable=0;whiteSpace=wrap;html=1;" parent="1" vertex="1">
          <mxGeometry x="190" y="1210" width="140" height="30" as="geometry" />
        </mxCell>
        <mxCell id="p1FK16nTqxmWdfNoiyjK-9" value="0" style="text;strokeColor=#b85450;fillColor=#f8cecc;align=center;verticalAlign=middle;spacingLeft=4;spacingRight=4;overflow=hidden;points=[[0,0.5],[1,0.5]];portConstraint=eastwest;rotatable=0;whiteSpace=wrap;html=1;" parent="1" vertex="1">
          <mxGeometry x="190" y="1180" width="140" height="30" as="geometry" />
        </mxCell>
        <mxCell id="p1FK16nTqxmWdfNoiyjK-48" style="edgeStyle=orthogonalEdgeStyle;rounded=0;orthogonalLoop=1;jettySize=auto;html=1;" parent="1" source="p1FK16nTqxmWdfNoiyjK-10" target="p1FK16nTqxmWdfNoiyjK-13" edge="1">
          <mxGeometry relative="1" as="geometry" />
        </mxCell>
        <mxCell id="p1FK16nTqxmWdfNoiyjK-10" value="3" style="text;strokeColor=#b85450;fillColor=#f8cecc;align=center;verticalAlign=middle;spacingLeft=4;spacingRight=4;overflow=hidden;points=[[0,0.5],[1,0.5]];portConstraint=eastwest;rotatable=0;whiteSpace=wrap;html=1;" parent="1" vertex="1">
          <mxGeometry x="190" y="1270" width="140" height="30" as="geometry" />
        </mxCell>
        <mxCell id="p1FK16nTqxmWdfNoiyjK-50" value="" style="edgeStyle=orthogonalEdgeStyle;rounded=0;orthogonalLoop=1;jettySize=auto;html=1;" parent="1" source="p1FK16nTqxmWdfNoiyjK-13" target="p1FK16nTqxmWdfNoiyjK-49" edge="1">
          <mxGeometry relative="1" as="geometry" />
        </mxCell>
        <mxCell id="p1FK16nTqxmWdfNoiyjK-13" value="key=3&lt;br&gt;value=A" style="text;strokeColor=#82b366;fillColor=#d5e8d4;align=center;verticalAlign=middle;spacingLeft=4;spacingRight=4;overflow=hidden;points=[[0,0.5],[1,0.5]];portConstraint=eastwest;rotatable=0;whiteSpace=wrap;html=1;" parent="1" vertex="1">
          <mxGeometry x="410" y="1270" width="140" height="30" as="geometry" />
        </mxCell>
        <mxCell id="p1FK16nTqxmWdfNoiyjK-14" value="" style="edgeStyle=orthogonalEdgeStyle;rounded=0;orthogonalLoop=1;jettySize=auto;html=1;" parent="1" source="p1FK16nTqxmWdfNoiyjK-15" target="p1FK16nTqxmWdfNoiyjK-16" edge="1">
          <mxGeometry relative="1" as="geometry" />
        </mxCell>
        <mxCell id="p1FK16nTqxmWdfNoiyjK-15" value="key=7&lt;br&gt;value=B" style="text;strokeColor=#6c8ebf;fillColor=#dae8fc;align=center;verticalAlign=middle;spacingLeft=4;spacingRight=4;overflow=hidden;points=[[0,0.5],[1,0.5]];portConstraint=eastwest;rotatable=0;whiteSpace=wrap;html=1;" parent="1" vertex="1">
          <mxGeometry x="630" y="1080" width="140" height="30" as="geometry" />
        </mxCell>
        <mxCell id="p1FK16nTqxmWdfNoiyjK-16" value="key=5&lt;br&gt;value=C" style="text;strokeColor=#36393d;fillColor=#f9f7ed;align=center;verticalAlign=middle;spacingLeft=4;spacingRight=4;overflow=hidden;points=[[0,0.5],[1,0.5]];portConstraint=eastwest;rotatable=0;whiteSpace=wrap;html=1;" parent="1" vertex="1">
          <mxGeometry x="850" y="1080" width="140" height="30" as="geometry" />
        </mxCell>
        <mxCell id="p1FK16nTqxmWdfNoiyjK-17" value="e" style="text;html=1;align=center;verticalAlign=middle;whiteSpace=wrap;rounded=0;" parent="1" vertex="1">
          <mxGeometry x="366" y="1220" width="60" height="30" as="geometry" />
        </mxCell>
        <mxCell id="p1FK16nTqxmWdfNoiyjK-18" value="next" style="text;html=1;align=center;verticalAlign=middle;whiteSpace=wrap;rounded=0;" parent="1" vertex="1">
          <mxGeometry x="603" y="1033" width="60" height="30" as="geometry" />
        </mxCell>
        <mxCell id="p1FK16nTqxmWdfNoiyjK-19" value="" style="endArrow=classic;html=1;rounded=0;dashed=1;exitX=0.75;exitY=1;exitDx=0;exitDy=0;" parent="1" source="p1FK16nTqxmWdfNoiyjK-17" target="p1FK16nTqxmWdfNoiyjK-13" edge="1">
          <mxGeometry width="50" height="50" relative="1" as="geometry">
            <mxPoint x="432" y="1047" as="sourcePoint" />
            <mxPoint x="458" y="1083" as="targetPoint" />
          </mxGeometry>
        </mxCell>
        <mxCell id="p1FK16nTqxmWdfNoiyjK-20" value="" style="endArrow=classic;html=1;rounded=0;dashed=1;entryX=0.463;entryY=0.02;entryDx=0;entryDy=0;entryPerimeter=0;" parent="1" source="p1FK16nTqxmWdfNoiyjK-18" target="p1FK16nTqxmWdfNoiyjK-15" edge="1">
          <mxGeometry width="50" height="50" relative="1" as="geometry">
            <mxPoint x="442" y="1057" as="sourcePoint" />
            <mxPoint x="468" y="1093" as="targetPoint" />
          </mxGeometry>
        </mxCell>
        <mxCell id="p1FK16nTqxmWdfNoiyjK-21" value="" style="edgeStyle=orthogonalEdgeStyle;rounded=0;orthogonalLoop=1;jettySize=auto;html=1;entryX=0;entryY=0.5;entryDx=0;entryDy=0;" parent="1" source="p1FK16nTqxmWdfNoiyjK-22" target="p1FK16nTqxmWdfNoiyjK-39" edge="1">
          <mxGeometry relative="1" as="geometry">
            <mxPoint x="410" y="1466" as="targetPoint" />
          </mxGeometry>
        </mxCell>
        <mxCell id="p1FK16nTqxmWdfNoiyjK-22" value="1" style="text;strokeColor=#d6b656;fillColor=#fff2cc;align=center;verticalAlign=middle;spacingLeft=4;spacingRight=4;overflow=hidden;points=[[0,0.5],[1,0.5]];portConstraint=eastwest;rotatable=0;whiteSpace=wrap;html=1;" parent="1" vertex="1">
          <mxGeometry x="190" y="1451" width="140" height="30" as="geometry" />
        </mxCell>
        <mxCell id="p1FK16nTqxmWdfNoiyjK-23" value="0" style="text;strokeColor=#d6b656;fillColor=#fff2cc;align=center;verticalAlign=middle;spacingLeft=4;spacingRight=4;overflow=hidden;points=[[0,0.5],[1,0.5]];portConstraint=eastwest;rotatable=0;whiteSpace=wrap;html=1;" parent="1" vertex="1">
          <mxGeometry x="190" y="1421" width="140" height="30" as="geometry" />
        </mxCell>
        <mxCell id="p1FK16nTqxmWdfNoiyjK-24" value="Thread2" style="text;html=1;align=center;verticalAlign=middle;whiteSpace=wrap;rounded=0;" parent="1" vertex="1">
          <mxGeometry x="64" y="1421" width="60" height="30" as="geometry" />
        </mxCell>
        <mxCell id="p1FK16nTqxmWdfNoiyjK-25" value="2" style="text;strokeColor=#b85450;fillColor=#f8cecc;align=center;verticalAlign=middle;spacingLeft=4;spacingRight=4;overflow=hidden;points=[[0,0.5],[1,0.5]];portConstraint=eastwest;rotatable=0;whiteSpace=wrap;html=1;" parent="1" vertex="1">
          <mxGeometry x="190" y="1611" width="140" height="30" as="geometry" />
        </mxCell>
        <mxCell id="p1FK16nTqxmWdfNoiyjK-26" value="" style="edgeStyle=orthogonalEdgeStyle;rounded=0;orthogonalLoop=1;jettySize=auto;html=1;" parent="1" source="p1FK16nTqxmWdfNoiyjK-27" target="p1FK16nTqxmWdfNoiyjK-32" edge="1">
          <mxGeometry relative="1" as="geometry" />
        </mxCell>
        <mxCell id="p1FK16nTqxmWdfNoiyjK-27" value="1" style="text;strokeColor=#b85450;fillColor=#f8cecc;align=center;verticalAlign=middle;spacingLeft=4;spacingRight=4;overflow=hidden;points=[[0,0.5],[1,0.5]];portConstraint=eastwest;rotatable=0;whiteSpace=wrap;html=1;" parent="1" vertex="1">
          <mxGeometry x="190" y="1581" width="140" height="30" as="geometry" />
        </mxCell>
        <mxCell id="p1FK16nTqxmWdfNoiyjK-28" value="0" style="text;strokeColor=#b85450;fillColor=#f8cecc;align=center;verticalAlign=middle;spacingLeft=4;spacingRight=4;overflow=hidden;points=[[0,0.5],[1,0.5]];portConstraint=eastwest;rotatable=0;whiteSpace=wrap;html=1;" parent="1" vertex="1">
          <mxGeometry x="190" y="1551" width="140" height="30" as="geometry" />
        </mxCell>
        <mxCell id="p1FK16nTqxmWdfNoiyjK-29" value="" style="edgeStyle=orthogonalEdgeStyle;rounded=0;orthogonalLoop=1;jettySize=auto;html=1;" parent="1" source="p1FK16nTqxmWdfNoiyjK-30" target="p1FK16nTqxmWdfNoiyjK-35" edge="1">
          <mxGeometry relative="1" as="geometry" />
        </mxCell>
        <mxCell id="p1FK16nTqxmWdfNoiyjK-30" value="3" style="text;strokeColor=#b85450;fillColor=#f8cecc;align=center;verticalAlign=middle;spacingLeft=4;spacingRight=4;overflow=hidden;points=[[0,0.5],[1,0.5]];portConstraint=eastwest;rotatable=0;whiteSpace=wrap;html=1;" parent="1" vertex="1">
          <mxGeometry x="190" y="1641" width="140" height="30" as="geometry" />
        </mxCell>
        <mxCell id="p1FK16nTqxmWdfNoiyjK-31" value="" style="edgeStyle=orthogonalEdgeStyle;rounded=0;orthogonalLoop=1;jettySize=auto;html=1;" parent="1" source="p1FK16nTqxmWdfNoiyjK-32" target="p1FK16nTqxmWdfNoiyjK-33" edge="1">
          <mxGeometry relative="1" as="geometry" />
        </mxCell>
        <mxCell id="p1FK16nTqxmWdfNoiyjK-32" value="key=5&lt;br&gt;value=C" style="text;strokeColor=#36393d;fillColor=#f9f7ed;align=center;verticalAlign=middle;spacingLeft=4;spacingRight=4;overflow=hidden;points=[[0,0.5],[1,0.5]];portConstraint=eastwest;rotatable=0;whiteSpace=wrap;html=1;" parent="1" vertex="1">
          <mxGeometry x="410" y="1581" width="140" height="30" as="geometry" />
        </mxCell>
        <mxCell id="p1FK16nTqxmWdfNoiyjK-33" value="null" style="text;strokeColor=default;fillColor=none;align=center;verticalAlign=middle;spacingLeft=4;spacingRight=4;overflow=hidden;points=[[0,0.5],[1,0.5]];portConstraint=eastwest;rotatable=0;whiteSpace=wrap;html=1;" parent="1" vertex="1">
          <mxGeometry x="630" y="1581" width="140" height="30" as="geometry" />
        </mxCell>
        <mxCell id="p1FK16nTqxmWdfNoiyjK-34" value="" style="edgeStyle=orthogonalEdgeStyle;rounded=0;orthogonalLoop=1;jettySize=auto;html=1;" parent="1" source="p1FK16nTqxmWdfNoiyjK-35" target="p1FK16nTqxmWdfNoiyjK-37" edge="1">
          <mxGeometry relative="1" as="geometry" />
        </mxCell>
        <mxCell id="p1FK16nTqxmWdfNoiyjK-35" value="key=7&lt;br&gt;value=B" style="text;strokeColor=#6c8ebf;fillColor=#dae8fc;align=center;verticalAlign=middle;spacingLeft=4;spacingRight=4;overflow=hidden;points=[[0,0.5],[1,0.5]];portConstraint=eastwest;rotatable=0;whiteSpace=wrap;html=1;" parent="1" vertex="1">
          <mxGeometry x="410" y="1641" width="140" height="30" as="geometry" />
        </mxCell>
        <mxCell id="p1FK16nTqxmWdfNoiyjK-36" value="" style="edgeStyle=orthogonalEdgeStyle;rounded=0;orthogonalLoop=1;jettySize=auto;html=1;" parent="1" source="p1FK16nTqxmWdfNoiyjK-37" target="p1FK16nTqxmWdfNoiyjK-38" edge="1">
          <mxGeometry relative="1" as="geometry" />
        </mxCell>
        <mxCell id="p1FK16nTqxmWdfNoiyjK-37" value="key=3&lt;br&gt;value=A" style="text;strokeColor=#82b366;fillColor=#d5e8d4;align=center;verticalAlign=middle;spacingLeft=4;spacingRight=4;overflow=hidden;points=[[0,0.5],[1,0.5]];portConstraint=eastwest;rotatable=0;whiteSpace=wrap;html=1;" parent="1" vertex="1">
          <mxGeometry x="630" y="1641" width="140" height="30" as="geometry" />
        </mxCell>
        <mxCell id="p1FK16nTqxmWdfNoiyjK-38" value="null" style="text;strokeColor=default;fillColor=none;align=center;verticalAlign=middle;spacingLeft=4;spacingRight=4;overflow=hidden;points=[[0,0.5],[1,0.5]];portConstraint=eastwest;rotatable=0;whiteSpace=wrap;html=1;" parent="1" vertex="1">
          <mxGeometry x="850" y="1641" width="140" height="30" as="geometry" />
        </mxCell>
        <mxCell id="p1FK16nTqxmWdfNoiyjK-39" value="null" style="text;strokeColor=default;fillColor=none;align=center;verticalAlign=middle;spacingLeft=4;spacingRight=4;overflow=hidden;points=[[0,0.5],[1,0.5]];portConstraint=eastwest;rotatable=0;whiteSpace=wrap;html=1;" parent="1" vertex="1">
          <mxGeometry x="410" y="1451" width="140" height="30" as="geometry" />
        </mxCell>
        <mxCell id="p1FK16nTqxmWdfNoiyjK-40" value="" style="endArrow=none;dashed=1;html=1;rounded=0;jumpSize=6;startSize=6;strokeWidth=1;" parent="1" edge="1">
          <mxGeometry width="50" height="50" relative="1" as="geometry">
            <mxPoint x="26" y="1362" as="sourcePoint" />
            <mxPoint x="995" y="1362" as="targetPoint" />
          </mxGeometry>
        </mxCell>
        <mxCell id="p1FK16nTqxmWdfNoiyjK-41" value="执行newTable[i] = e;" style="text;html=1;align=center;verticalAlign=middle;whiteSpace=wrap;rounded=0;fillColor=#e3c800;fontColor=#000000;strokeColor=#B09500;" parent="1" vertex="1">
          <mxGeometry x="716" y="977" width="364" height="30" as="geometry" />
        </mxCell>
        <mxCell id="p1FK16nTqxmWdfNoiyjK-42" value="null" style="text;strokeColor=default;fillColor=none;align=center;verticalAlign=middle;spacingLeft=4;spacingRight=4;overflow=hidden;points=[[0,0.5],[1,0.5]];portConstraint=eastwest;rotatable=0;whiteSpace=wrap;html=1;" parent="1" vertex="1">
          <mxGeometry x="410" y="367" width="140" height="30" as="geometry" />
        </mxCell>
        <mxCell id="p1FK16nTqxmWdfNoiyjK-45" style="edgeStyle=orthogonalEdgeStyle;rounded=0;orthogonalLoop=1;jettySize=auto;html=1;entryX=0.485;entryY=-0.022;entryDx=0;entryDy=0;entryPerimeter=0;" parent="1" source="IXh0SZQ6k91fBE7avxpE-10" target="p1FK16nTqxmWdfNoiyjK-42" edge="1">
          <mxGeometry relative="1" as="geometry">
            <Array as="points">
              <mxPoint x="478" y="242" />
              <mxPoint x="478" y="242" />
            </Array>
          </mxGeometry>
        </mxCell>
        <mxCell id="p1FK16nTqxmWdfNoiyjK-49" value="null" style="text;strokeColor=default;fillColor=none;align=center;verticalAlign=middle;spacingLeft=4;spacingRight=4;overflow=hidden;points=[[0,0.5],[1,0.5]];portConstraint=eastwest;rotatable=0;whiteSpace=wrap;html=1;" parent="1" vertex="1">
          <mxGeometry x="630" y="1270" width="140" height="30" as="geometry" />
        </mxCell>
        <mxCell id="p1FK16nTqxmWdfNoiyjK-51" value="1" style="text;strokeColor=#d6b656;fillColor=#fff2cc;align=center;verticalAlign=middle;spacingLeft=4;spacingRight=4;overflow=hidden;points=[[0,0.5],[1,0.5]];portConstraint=eastwest;rotatable=0;whiteSpace=wrap;html=1;" parent="1" vertex="1">
          <mxGeometry x="190" y="2028" width="140" height="30" as="geometry" />
        </mxCell>
        <mxCell id="p1FK16nTqxmWdfNoiyjK-52" value="0" style="text;strokeColor=#d6b656;fillColor=#fff2cc;align=center;verticalAlign=middle;spacingLeft=4;spacingRight=4;overflow=hidden;points=[[0,0.5],[1,0.5]];portConstraint=eastwest;rotatable=0;whiteSpace=wrap;html=1;" parent="1" vertex="1">
          <mxGeometry x="190" y="1998" width="140" height="30" as="geometry" />
        </mxCell>
        <mxCell id="p1FK16nTqxmWdfNoiyjK-53" value="Thread1" style="text;html=1;align=center;verticalAlign=middle;whiteSpace=wrap;rounded=0;" parent="1" vertex="1">
          <mxGeometry x="64" y="1998" width="60" height="30" as="geometry" />
        </mxCell>
        <mxCell id="p1FK16nTqxmWdfNoiyjK-54" value="2" style="text;strokeColor=#b85450;fillColor=#f8cecc;align=center;verticalAlign=middle;spacingLeft=4;spacingRight=4;overflow=hidden;points=[[0,0.5],[1,0.5]];portConstraint=eastwest;rotatable=0;whiteSpace=wrap;html=1;" parent="1" vertex="1">
          <mxGeometry x="190" y="2188" width="140" height="30" as="geometry" />
        </mxCell>
        <mxCell id="p1FK16nTqxmWdfNoiyjK-55" value="1" style="text;strokeColor=#b85450;fillColor=#f8cecc;align=center;verticalAlign=middle;spacingLeft=4;spacingRight=4;overflow=hidden;points=[[0,0.5],[1,0.5]];portConstraint=eastwest;rotatable=0;whiteSpace=wrap;html=1;" parent="1" vertex="1">
          <mxGeometry x="190" y="2158" width="140" height="30" as="geometry" />
        </mxCell>
        <mxCell id="p1FK16nTqxmWdfNoiyjK-56" value="0" style="text;strokeColor=#b85450;fillColor=#f8cecc;align=center;verticalAlign=middle;spacingLeft=4;spacingRight=4;overflow=hidden;points=[[0,0.5],[1,0.5]];portConstraint=eastwest;rotatable=0;whiteSpace=wrap;html=1;" parent="1" vertex="1">
          <mxGeometry x="190" y="2128" width="140" height="30" as="geometry" />
        </mxCell>
        <mxCell id="p1FK16nTqxmWdfNoiyjK-57" style="edgeStyle=orthogonalEdgeStyle;rounded=0;orthogonalLoop=1;jettySize=auto;html=1;" parent="1" source="p1FK16nTqxmWdfNoiyjK-58" target="p1FK16nTqxmWdfNoiyjK-60" edge="1">
          <mxGeometry relative="1" as="geometry" />
        </mxCell>
        <mxCell id="p1FK16nTqxmWdfNoiyjK-58" value="3" style="text;strokeColor=#b85450;fillColor=#f8cecc;align=center;verticalAlign=middle;spacingLeft=4;spacingRight=4;overflow=hidden;points=[[0,0.5],[1,0.5]];portConstraint=eastwest;rotatable=0;whiteSpace=wrap;html=1;" parent="1" vertex="1">
          <mxGeometry x="190" y="2218" width="140" height="30" as="geometry" />
        </mxCell>
        <mxCell id="p1FK16nTqxmWdfNoiyjK-59" value="" style="edgeStyle=orthogonalEdgeStyle;rounded=0;orthogonalLoop=1;jettySize=auto;html=1;" parent="1" source="p1FK16nTqxmWdfNoiyjK-60" target="p1FK16nTqxmWdfNoiyjK-88" edge="1">
          <mxGeometry relative="1" as="geometry" />
        </mxCell>
        <mxCell id="p1FK16nTqxmWdfNoiyjK-60" value="key=3&lt;br&gt;value=A" style="text;strokeColor=#82b366;fillColor=#d5e8d4;align=center;verticalAlign=middle;spacingLeft=4;spacingRight=4;overflow=hidden;points=[[0,0.5],[1,0.5]];portConstraint=eastwest;rotatable=0;whiteSpace=wrap;html=1;" parent="1" vertex="1">
          <mxGeometry x="410" y="2218" width="140" height="30" as="geometry" />
        </mxCell>
        <mxCell id="p1FK16nTqxmWdfNoiyjK-61" value="" style="edgeStyle=orthogonalEdgeStyle;rounded=0;orthogonalLoop=1;jettySize=auto;html=1;" parent="1" source="p1FK16nTqxmWdfNoiyjK-62" target="p1FK16nTqxmWdfNoiyjK-63" edge="1">
          <mxGeometry relative="1" as="geometry" />
        </mxCell>
        <mxCell id="p1FK16nTqxmWdfNoiyjK-62" value="key=7&lt;br&gt;value=B" style="text;strokeColor=#6c8ebf;fillColor=#dae8fc;align=center;verticalAlign=middle;spacingLeft=4;spacingRight=4;overflow=hidden;points=[[0,0.5],[1,0.5]];portConstraint=eastwest;rotatable=0;whiteSpace=wrap;html=1;" parent="1" vertex="1">
          <mxGeometry x="630" y="2028" width="140" height="30" as="geometry" />
        </mxCell>
        <mxCell id="p1FK16nTqxmWdfNoiyjK-63" value="key=5&lt;br&gt;value=C" style="text;strokeColor=#36393d;fillColor=#f9f7ed;align=center;verticalAlign=middle;spacingLeft=4;spacingRight=4;overflow=hidden;points=[[0,0.5],[1,0.5]];portConstraint=eastwest;rotatable=0;whiteSpace=wrap;html=1;" parent="1" vertex="1">
          <mxGeometry x="850" y="2028" width="140" height="30" as="geometry" />
        </mxCell>
        <mxCell id="p1FK16nTqxmWdfNoiyjK-65" value="e" style="text;html=1;align=center;verticalAlign=middle;whiteSpace=wrap;rounded=0;" parent="1" vertex="1">
          <mxGeometry x="603" y="1981" width="60" height="30" as="geometry" />
        </mxCell>
        <mxCell id="p1FK16nTqxmWdfNoiyjK-67" value="" style="endArrow=classic;html=1;rounded=0;dashed=1;entryX=0.463;entryY=0.02;entryDx=0;entryDy=0;entryPerimeter=0;" parent="1" source="p1FK16nTqxmWdfNoiyjK-65" target="p1FK16nTqxmWdfNoiyjK-62" edge="1">
          <mxGeometry width="50" height="50" relative="1" as="geometry">
            <mxPoint x="442" y="2005" as="sourcePoint" />
            <mxPoint x="468" y="2041" as="targetPoint" />
          </mxGeometry>
        </mxCell>
        <mxCell id="p1FK16nTqxmWdfNoiyjK-68" value="" style="edgeStyle=orthogonalEdgeStyle;rounded=0;orthogonalLoop=1;jettySize=auto;html=1;entryX=0;entryY=0.5;entryDx=0;entryDy=0;" parent="1" source="p1FK16nTqxmWdfNoiyjK-69" target="p1FK16nTqxmWdfNoiyjK-86" edge="1">
          <mxGeometry relative="1" as="geometry">
            <mxPoint x="410" y="2414" as="targetPoint" />
          </mxGeometry>
        </mxCell>
        <mxCell id="p1FK16nTqxmWdfNoiyjK-69" value="1" style="text;strokeColor=#d6b656;fillColor=#fff2cc;align=center;verticalAlign=middle;spacingLeft=4;spacingRight=4;overflow=hidden;points=[[0,0.5],[1,0.5]];portConstraint=eastwest;rotatable=0;whiteSpace=wrap;html=1;" parent="1" vertex="1">
          <mxGeometry x="190" y="2399" width="140" height="30" as="geometry" />
        </mxCell>
        <mxCell id="p1FK16nTqxmWdfNoiyjK-70" value="0" style="text;strokeColor=#d6b656;fillColor=#fff2cc;align=center;verticalAlign=middle;spacingLeft=4;spacingRight=4;overflow=hidden;points=[[0,0.5],[1,0.5]];portConstraint=eastwest;rotatable=0;whiteSpace=wrap;html=1;" parent="1" vertex="1">
          <mxGeometry x="190" y="2369" width="140" height="30" as="geometry" />
        </mxCell>
        <mxCell id="p1FK16nTqxmWdfNoiyjK-71" value="Thread2" style="text;html=1;align=center;verticalAlign=middle;whiteSpace=wrap;rounded=0;" parent="1" vertex="1">
          <mxGeometry x="64" y="2369" width="60" height="30" as="geometry" />
        </mxCell>
        <mxCell id="p1FK16nTqxmWdfNoiyjK-72" value="2" style="text;strokeColor=#b85450;fillColor=#f8cecc;align=center;verticalAlign=middle;spacingLeft=4;spacingRight=4;overflow=hidden;points=[[0,0.5],[1,0.5]];portConstraint=eastwest;rotatable=0;whiteSpace=wrap;html=1;" parent="1" vertex="1">
          <mxGeometry x="190" y="2559" width="140" height="30" as="geometry" />
        </mxCell>
        <mxCell id="p1FK16nTqxmWdfNoiyjK-73" value="" style="edgeStyle=orthogonalEdgeStyle;rounded=0;orthogonalLoop=1;jettySize=auto;html=1;" parent="1" source="p1FK16nTqxmWdfNoiyjK-74" target="p1FK16nTqxmWdfNoiyjK-79" edge="1">
          <mxGeometry relative="1" as="geometry" />
        </mxCell>
        <mxCell id="p1FK16nTqxmWdfNoiyjK-74" value="1" style="text;strokeColor=#b85450;fillColor=#f8cecc;align=center;verticalAlign=middle;spacingLeft=4;spacingRight=4;overflow=hidden;points=[[0,0.5],[1,0.5]];portConstraint=eastwest;rotatable=0;whiteSpace=wrap;html=1;" parent="1" vertex="1">
          <mxGeometry x="190" y="2529" width="140" height="30" as="geometry" />
        </mxCell>
        <mxCell id="p1FK16nTqxmWdfNoiyjK-75" value="0" style="text;strokeColor=#b85450;fillColor=#f8cecc;align=center;verticalAlign=middle;spacingLeft=4;spacingRight=4;overflow=hidden;points=[[0,0.5],[1,0.5]];portConstraint=eastwest;rotatable=0;whiteSpace=wrap;html=1;" parent="1" vertex="1">
          <mxGeometry x="190" y="2499" width="140" height="30" as="geometry" />
        </mxCell>
        <mxCell id="p1FK16nTqxmWdfNoiyjK-76" value="" style="edgeStyle=orthogonalEdgeStyle;rounded=0;orthogonalLoop=1;jettySize=auto;html=1;" parent="1" source="p1FK16nTqxmWdfNoiyjK-77" target="p1FK16nTqxmWdfNoiyjK-82" edge="1">
          <mxGeometry relative="1" as="geometry" />
        </mxCell>
        <mxCell id="p1FK16nTqxmWdfNoiyjK-77" value="3" style="text;strokeColor=#b85450;fillColor=#f8cecc;align=center;verticalAlign=middle;spacingLeft=4;spacingRight=4;overflow=hidden;points=[[0,0.5],[1,0.5]];portConstraint=eastwest;rotatable=0;whiteSpace=wrap;html=1;" parent="1" vertex="1">
          <mxGeometry x="190" y="2589" width="140" height="30" as="geometry" />
        </mxCell>
        <mxCell id="p1FK16nTqxmWdfNoiyjK-78" value="" style="edgeStyle=orthogonalEdgeStyle;rounded=0;orthogonalLoop=1;jettySize=auto;html=1;" parent="1" source="p1FK16nTqxmWdfNoiyjK-79" target="p1FK16nTqxmWdfNoiyjK-80" edge="1">
          <mxGeometry relative="1" as="geometry" />
        </mxCell>
        <mxCell id="p1FK16nTqxmWdfNoiyjK-79" value="key=5&lt;br&gt;value=C" style="text;strokeColor=#36393d;fillColor=#f9f7ed;align=center;verticalAlign=middle;spacingLeft=4;spacingRight=4;overflow=hidden;points=[[0,0.5],[1,0.5]];portConstraint=eastwest;rotatable=0;whiteSpace=wrap;html=1;" parent="1" vertex="1">
          <mxGeometry x="410" y="2529" width="140" height="30" as="geometry" />
        </mxCell>
        <mxCell id="p1FK16nTqxmWdfNoiyjK-80" value="null" style="text;strokeColor=default;fillColor=none;align=center;verticalAlign=middle;spacingLeft=4;spacingRight=4;overflow=hidden;points=[[0,0.5],[1,0.5]];portConstraint=eastwest;rotatable=0;whiteSpace=wrap;html=1;" parent="1" vertex="1">
          <mxGeometry x="630" y="2529" width="140" height="30" as="geometry" />
        </mxCell>
        <mxCell id="p1FK16nTqxmWdfNoiyjK-81" value="" style="edgeStyle=orthogonalEdgeStyle;rounded=0;orthogonalLoop=1;jettySize=auto;html=1;" parent="1" source="p1FK16nTqxmWdfNoiyjK-82" target="p1FK16nTqxmWdfNoiyjK-84" edge="1">
          <mxGeometry relative="1" as="geometry" />
        </mxCell>
        <mxCell id="p1FK16nTqxmWdfNoiyjK-82" value="key=7&lt;br&gt;value=B" style="text;strokeColor=#6c8ebf;fillColor=#dae8fc;align=center;verticalAlign=middle;spacingLeft=4;spacingRight=4;overflow=hidden;points=[[0,0.5],[1,0.5]];portConstraint=eastwest;rotatable=0;whiteSpace=wrap;html=1;" parent="1" vertex="1">
          <mxGeometry x="410" y="2589" width="140" height="30" as="geometry" />
        </mxCell>
        <mxCell id="p1FK16nTqxmWdfNoiyjK-83" value="" style="edgeStyle=orthogonalEdgeStyle;rounded=0;orthogonalLoop=1;jettySize=auto;html=1;" parent="1" source="p1FK16nTqxmWdfNoiyjK-84" target="p1FK16nTqxmWdfNoiyjK-85" edge="1">
          <mxGeometry relative="1" as="geometry" />
        </mxCell>
        <mxCell id="p1FK16nTqxmWdfNoiyjK-84" value="key=3&lt;br&gt;value=A" style="text;strokeColor=#82b366;fillColor=#d5e8d4;align=center;verticalAlign=middle;spacingLeft=4;spacingRight=4;overflow=hidden;points=[[0,0.5],[1,0.5]];portConstraint=eastwest;rotatable=0;whiteSpace=wrap;html=1;" parent="1" vertex="1">
          <mxGeometry x="630" y="2589" width="140" height="30" as="geometry" />
        </mxCell>
        <mxCell id="p1FK16nTqxmWdfNoiyjK-85" value="null" style="text;strokeColor=default;fillColor=none;align=center;verticalAlign=middle;spacingLeft=4;spacingRight=4;overflow=hidden;points=[[0,0.5],[1,0.5]];portConstraint=eastwest;rotatable=0;whiteSpace=wrap;html=1;" parent="1" vertex="1">
          <mxGeometry x="850" y="2589" width="140" height="30" as="geometry" />
        </mxCell>
        <mxCell id="p1FK16nTqxmWdfNoiyjK-86" value="null" style="text;strokeColor=default;fillColor=none;align=center;verticalAlign=middle;spacingLeft=4;spacingRight=4;overflow=hidden;points=[[0,0.5],[1,0.5]];portConstraint=eastwest;rotatable=0;whiteSpace=wrap;html=1;" parent="1" vertex="1">
          <mxGeometry x="410" y="2399" width="140" height="30" as="geometry" />
        </mxCell>
        <mxCell id="p1FK16nTqxmWdfNoiyjK-87" value="执行e = next;" style="text;html=1;align=center;verticalAlign=middle;whiteSpace=wrap;rounded=0;fillColor=#e3c800;fontColor=#000000;strokeColor=#B09500;" parent="1" vertex="1">
          <mxGeometry x="716" y="1925" width="364" height="30" as="geometry" />
        </mxCell>
        <mxCell id="p1FK16nTqxmWdfNoiyjK-88" value="null" style="text;strokeColor=default;fillColor=none;align=center;verticalAlign=middle;spacingLeft=4;spacingRight=4;overflow=hidden;points=[[0,0.5],[1,0.5]];portConstraint=eastwest;rotatable=0;whiteSpace=wrap;html=1;" parent="1" vertex="1">
          <mxGeometry x="630" y="2218" width="140" height="30" as="geometry" />
        </mxCell>
        <mxCell id="BHMEN1Cr7gCGEBf941Aq-1" value="&lt;font style=&quot;font-size: 30px;&quot;&gt;线程安全的理想状态下&lt;/font&gt;" style="text;html=1;align=center;verticalAlign=middle;whiteSpace=wrap;rounded=0;fillColor=#e51400;fontColor=#ffffff;strokeColor=#B20000;" vertex="1" parent="1">
          <mxGeometry x="1605" y="291" width="343" height="497" as="geometry" />
        </mxCell>
      </root>
    </mxGraphModel>
  </diagram>
  <diagram id="-fo6kWhWz2p-AlaMSeTI" name="第 3 页">
    <mxGraphModel dx="3187" dy="1640" grid="0" gridSize="10" guides="1" tooltips="1" connect="1" arrows="1" fold="1" page="1" pageScale="1" pageWidth="827" pageHeight="1169" math="0" shadow="0">
      <root>
        <mxCell id="0" />
        <mxCell id="1" parent="0" />
        <mxCell id="FKcn3UVm-199GhvacgbS-1" value="1" style="text;strokeColor=#d6b656;fillColor=#fff2cc;align=center;verticalAlign=middle;spacingLeft=4;spacingRight=4;overflow=hidden;points=[[0,0.5],[1,0.5]];portConstraint=eastwest;rotatable=0;whiteSpace=wrap;html=1;" parent="1" vertex="1">
          <mxGeometry x="199" y="237" width="140" height="30" as="geometry" />
        </mxCell>
        <mxCell id="FKcn3UVm-199GhvacgbS-2" value="0" style="text;strokeColor=#d6b656;fillColor=#fff2cc;align=center;verticalAlign=middle;spacingLeft=4;spacingRight=4;overflow=hidden;points=[[0,0.5],[1,0.5]];portConstraint=eastwest;rotatable=0;whiteSpace=wrap;html=1;" parent="1" vertex="1">
          <mxGeometry x="199" y="207" width="140" height="30" as="geometry" />
        </mxCell>
        <mxCell id="FKcn3UVm-199GhvacgbS-3" value="Thread1" style="text;html=1;align=center;verticalAlign=middle;whiteSpace=wrap;rounded=0;" parent="1" vertex="1">
          <mxGeometry x="73" y="207" width="60" height="30" as="geometry" />
        </mxCell>
        <mxCell id="FKcn3UVm-199GhvacgbS-4" value="2" style="text;strokeColor=#b85450;fillColor=#f8cecc;align=center;verticalAlign=middle;spacingLeft=4;spacingRight=4;overflow=hidden;points=[[0,0.5],[1,0.5]];portConstraint=eastwest;rotatable=0;whiteSpace=wrap;html=1;" parent="1" vertex="1">
          <mxGeometry x="199" y="397" width="140" height="30" as="geometry" />
        </mxCell>
        <mxCell id="FKcn3UVm-199GhvacgbS-5" value="1" style="text;strokeColor=#b85450;fillColor=#f8cecc;align=center;verticalAlign=middle;spacingLeft=4;spacingRight=4;overflow=hidden;points=[[0,0.5],[1,0.5]];portConstraint=eastwest;rotatable=0;whiteSpace=wrap;html=1;" parent="1" vertex="1">
          <mxGeometry x="199" y="367" width="140" height="30" as="geometry" />
        </mxCell>
        <mxCell id="FKcn3UVm-199GhvacgbS-6" value="0" style="text;strokeColor=#b85450;fillColor=#f8cecc;align=center;verticalAlign=middle;spacingLeft=4;spacingRight=4;overflow=hidden;points=[[0,0.5],[1,0.5]];portConstraint=eastwest;rotatable=0;whiteSpace=wrap;html=1;" parent="1" vertex="1">
          <mxGeometry x="199" y="337" width="140" height="30" as="geometry" />
        </mxCell>
        <mxCell id="FKcn3UVm-199GhvacgbS-7" style="edgeStyle=orthogonalEdgeStyle;rounded=0;orthogonalLoop=1;jettySize=auto;html=1;" parent="1" source="FKcn3UVm-199GhvacgbS-8" target="FKcn3UVm-199GhvacgbS-10" edge="1">
          <mxGeometry relative="1" as="geometry" />
        </mxCell>
        <mxCell id="FKcn3UVm-199GhvacgbS-8" value="3" style="text;strokeColor=#b85450;fillColor=#f8cecc;align=center;verticalAlign=middle;spacingLeft=4;spacingRight=4;overflow=hidden;points=[[0,0.5],[1,0.5]];portConstraint=eastwest;rotatable=0;whiteSpace=wrap;html=1;" parent="1" vertex="1">
          <mxGeometry x="199" y="427" width="140" height="30" as="geometry" />
        </mxCell>
        <mxCell id="FKcn3UVm-199GhvacgbS-9" value="" style="edgeStyle=orthogonalEdgeStyle;rounded=0;orthogonalLoop=1;jettySize=auto;html=1;" parent="1" source="FKcn3UVm-199GhvacgbS-10" target="FKcn3UVm-199GhvacgbS-36" edge="1">
          <mxGeometry relative="1" as="geometry" />
        </mxCell>
        <mxCell id="FKcn3UVm-199GhvacgbS-10" value="key=3&lt;br&gt;value=A" style="text;strokeColor=#82b366;fillColor=#d5e8d4;align=center;verticalAlign=middle;spacingLeft=4;spacingRight=4;overflow=hidden;points=[[0,0.5],[1,0.5]];portConstraint=eastwest;rotatable=0;whiteSpace=wrap;html=1;" parent="1" vertex="1">
          <mxGeometry x="419" y="427" width="140" height="30" as="geometry" />
        </mxCell>
        <mxCell id="FKcn3UVm-199GhvacgbS-11" value="" style="edgeStyle=orthogonalEdgeStyle;rounded=0;orthogonalLoop=1;jettySize=auto;html=1;" parent="1" source="FKcn3UVm-199GhvacgbS-12" target="FKcn3UVm-199GhvacgbS-13" edge="1">
          <mxGeometry relative="1" as="geometry" />
        </mxCell>
        <mxCell id="FKcn3UVm-199GhvacgbS-12" value="key=7&lt;br&gt;value=B" style="text;strokeColor=#6c8ebf;fillColor=#dae8fc;align=center;verticalAlign=middle;spacingLeft=4;spacingRight=4;overflow=hidden;points=[[0,0.5],[1,0.5]];portConstraint=eastwest;rotatable=0;whiteSpace=wrap;html=1;" parent="1" vertex="1">
          <mxGeometry x="639" y="237" width="140" height="30" as="geometry" />
        </mxCell>
        <mxCell id="FKcn3UVm-199GhvacgbS-13" value="key=5&lt;br&gt;value=C" style="text;strokeColor=#36393d;fillColor=#f9f7ed;align=center;verticalAlign=middle;spacingLeft=4;spacingRight=4;overflow=hidden;points=[[0,0.5],[1,0.5]];portConstraint=eastwest;rotatable=0;whiteSpace=wrap;html=1;" parent="1" vertex="1">
          <mxGeometry x="859" y="237" width="140" height="30" as="geometry" />
        </mxCell>
        <mxCell id="FKcn3UVm-199GhvacgbS-14" value="e" style="text;html=1;align=center;verticalAlign=middle;whiteSpace=wrap;rounded=0;" parent="1" vertex="1">
          <mxGeometry x="612" y="190" width="60" height="30" as="geometry" />
        </mxCell>
        <mxCell id="FKcn3UVm-199GhvacgbS-15" value="" style="endArrow=classic;html=1;rounded=0;dashed=1;entryX=0.463;entryY=0.02;entryDx=0;entryDy=0;entryPerimeter=0;" parent="1" source="FKcn3UVm-199GhvacgbS-14" target="FKcn3UVm-199GhvacgbS-12" edge="1">
          <mxGeometry width="50" height="50" relative="1" as="geometry">
            <mxPoint x="451" y="214" as="sourcePoint" />
            <mxPoint x="477" y="250" as="targetPoint" />
          </mxGeometry>
        </mxCell>
        <mxCell id="FKcn3UVm-199GhvacgbS-16" value="" style="edgeStyle=orthogonalEdgeStyle;rounded=0;orthogonalLoop=1;jettySize=auto;html=1;entryX=0;entryY=0.5;entryDx=0;entryDy=0;" parent="1" source="FKcn3UVm-199GhvacgbS-17" target="FKcn3UVm-199GhvacgbS-34" edge="1">
          <mxGeometry relative="1" as="geometry">
            <mxPoint x="419" y="623" as="targetPoint" />
          </mxGeometry>
        </mxCell>
        <mxCell id="FKcn3UVm-199GhvacgbS-17" value="1" style="text;strokeColor=#d6b656;fillColor=#fff2cc;align=center;verticalAlign=middle;spacingLeft=4;spacingRight=4;overflow=hidden;points=[[0,0.5],[1,0.5]];portConstraint=eastwest;rotatable=0;whiteSpace=wrap;html=1;" parent="1" vertex="1">
          <mxGeometry x="199" y="608" width="140" height="30" as="geometry" />
        </mxCell>
        <mxCell id="FKcn3UVm-199GhvacgbS-18" value="0" style="text;strokeColor=#d6b656;fillColor=#fff2cc;align=center;verticalAlign=middle;spacingLeft=4;spacingRight=4;overflow=hidden;points=[[0,0.5],[1,0.5]];portConstraint=eastwest;rotatable=0;whiteSpace=wrap;html=1;" parent="1" vertex="1">
          <mxGeometry x="199" y="578" width="140" height="30" as="geometry" />
        </mxCell>
        <mxCell id="FKcn3UVm-199GhvacgbS-19" value="Thread2" style="text;html=1;align=center;verticalAlign=middle;whiteSpace=wrap;rounded=0;" parent="1" vertex="1">
          <mxGeometry x="73" y="578" width="60" height="30" as="geometry" />
        </mxCell>
        <mxCell id="FKcn3UVm-199GhvacgbS-20" value="2" style="text;strokeColor=#b85450;fillColor=#f8cecc;align=center;verticalAlign=middle;spacingLeft=4;spacingRight=4;overflow=hidden;points=[[0,0.5],[1,0.5]];portConstraint=eastwest;rotatable=0;whiteSpace=wrap;html=1;" parent="1" vertex="1">
          <mxGeometry x="199" y="768" width="140" height="30" as="geometry" />
        </mxCell>
        <mxCell id="FKcn3UVm-199GhvacgbS-21" value="" style="edgeStyle=orthogonalEdgeStyle;rounded=0;orthogonalLoop=1;jettySize=auto;html=1;" parent="1" source="FKcn3UVm-199GhvacgbS-22" target="FKcn3UVm-199GhvacgbS-27" edge="1">
          <mxGeometry relative="1" as="geometry" />
        </mxCell>
        <mxCell id="FKcn3UVm-199GhvacgbS-22" value="1" style="text;strokeColor=#b85450;fillColor=#f8cecc;align=center;verticalAlign=middle;spacingLeft=4;spacingRight=4;overflow=hidden;points=[[0,0.5],[1,0.5]];portConstraint=eastwest;rotatable=0;whiteSpace=wrap;html=1;" parent="1" vertex="1">
          <mxGeometry x="199" y="738" width="140" height="30" as="geometry" />
        </mxCell>
        <mxCell id="FKcn3UVm-199GhvacgbS-23" value="0" style="text;strokeColor=#b85450;fillColor=#f8cecc;align=center;verticalAlign=middle;spacingLeft=4;spacingRight=4;overflow=hidden;points=[[0,0.5],[1,0.5]];portConstraint=eastwest;rotatable=0;whiteSpace=wrap;html=1;" parent="1" vertex="1">
          <mxGeometry x="199" y="708" width="140" height="30" as="geometry" />
        </mxCell>
        <mxCell id="FKcn3UVm-199GhvacgbS-24" value="" style="edgeStyle=orthogonalEdgeStyle;rounded=0;orthogonalLoop=1;jettySize=auto;html=1;" parent="1" source="FKcn3UVm-199GhvacgbS-25" target="FKcn3UVm-199GhvacgbS-30" edge="1">
          <mxGeometry relative="1" as="geometry" />
        </mxCell>
        <mxCell id="FKcn3UVm-199GhvacgbS-25" value="3" style="text;strokeColor=#b85450;fillColor=#f8cecc;align=center;verticalAlign=middle;spacingLeft=4;spacingRight=4;overflow=hidden;points=[[0,0.5],[1,0.5]];portConstraint=eastwest;rotatable=0;whiteSpace=wrap;html=1;" parent="1" vertex="1">
          <mxGeometry x="199" y="798" width="140" height="30" as="geometry" />
        </mxCell>
        <mxCell id="FKcn3UVm-199GhvacgbS-26" value="" style="edgeStyle=orthogonalEdgeStyle;rounded=0;orthogonalLoop=1;jettySize=auto;html=1;" parent="1" source="FKcn3UVm-199GhvacgbS-27" target="FKcn3UVm-199GhvacgbS-28" edge="1">
          <mxGeometry relative="1" as="geometry" />
        </mxCell>
        <mxCell id="FKcn3UVm-199GhvacgbS-27" value="key=5&lt;br&gt;value=C" style="text;strokeColor=#36393d;fillColor=#f9f7ed;align=center;verticalAlign=middle;spacingLeft=4;spacingRight=4;overflow=hidden;points=[[0,0.5],[1,0.5]];portConstraint=eastwest;rotatable=0;whiteSpace=wrap;html=1;" parent="1" vertex="1">
          <mxGeometry x="419" y="738" width="140" height="30" as="geometry" />
        </mxCell>
        <mxCell id="FKcn3UVm-199GhvacgbS-28" value="null" style="text;strokeColor=default;fillColor=none;align=center;verticalAlign=middle;spacingLeft=4;spacingRight=4;overflow=hidden;points=[[0,0.5],[1,0.5]];portConstraint=eastwest;rotatable=0;whiteSpace=wrap;html=1;" parent="1" vertex="1">
          <mxGeometry x="639" y="738" width="140" height="30" as="geometry" />
        </mxCell>
        <mxCell id="FKcn3UVm-199GhvacgbS-29" value="" style="edgeStyle=orthogonalEdgeStyle;rounded=0;orthogonalLoop=1;jettySize=auto;html=1;" parent="1" source="FKcn3UVm-199GhvacgbS-30" target="FKcn3UVm-199GhvacgbS-32" edge="1">
          <mxGeometry relative="1" as="geometry" />
        </mxCell>
        <mxCell id="FKcn3UVm-199GhvacgbS-30" value="key=7&lt;br&gt;value=B" style="text;strokeColor=#6c8ebf;fillColor=#dae8fc;align=center;verticalAlign=middle;spacingLeft=4;spacingRight=4;overflow=hidden;points=[[0,0.5],[1,0.5]];portConstraint=eastwest;rotatable=0;whiteSpace=wrap;html=1;" parent="1" vertex="1">
          <mxGeometry x="419" y="798" width="140" height="30" as="geometry" />
        </mxCell>
        <mxCell id="FKcn3UVm-199GhvacgbS-31" value="" style="edgeStyle=orthogonalEdgeStyle;rounded=0;orthogonalLoop=1;jettySize=auto;html=1;" parent="1" source="FKcn3UVm-199GhvacgbS-32" target="FKcn3UVm-199GhvacgbS-33" edge="1">
          <mxGeometry relative="1" as="geometry" />
        </mxCell>
        <mxCell id="FKcn3UVm-199GhvacgbS-32" value="key=3&lt;br&gt;value=A" style="text;strokeColor=#82b366;fillColor=#d5e8d4;align=center;verticalAlign=middle;spacingLeft=4;spacingRight=4;overflow=hidden;points=[[0,0.5],[1,0.5]];portConstraint=eastwest;rotatable=0;whiteSpace=wrap;html=1;" parent="1" vertex="1">
          <mxGeometry x="639" y="798" width="140" height="30" as="geometry" />
        </mxCell>
        <mxCell id="FKcn3UVm-199GhvacgbS-33" value="null" style="text;strokeColor=default;fillColor=none;align=center;verticalAlign=middle;spacingLeft=4;spacingRight=4;overflow=hidden;points=[[0,0.5],[1,0.5]];portConstraint=eastwest;rotatable=0;whiteSpace=wrap;html=1;" parent="1" vertex="1">
          <mxGeometry x="859" y="798" width="140" height="30" as="geometry" />
        </mxCell>
        <mxCell id="FKcn3UVm-199GhvacgbS-34" value="null" style="text;strokeColor=default;fillColor=none;align=center;verticalAlign=middle;spacingLeft=4;spacingRight=4;overflow=hidden;points=[[0,0.5],[1,0.5]];portConstraint=eastwest;rotatable=0;whiteSpace=wrap;html=1;" parent="1" vertex="1">
          <mxGeometry x="419" y="608" width="140" height="30" as="geometry" />
        </mxCell>
        <mxCell id="FKcn3UVm-199GhvacgbS-35" value="执行Entry&amp;lt;K,V&amp;gt; next = e.next;" style="text;html=1;align=center;verticalAlign=middle;whiteSpace=wrap;rounded=0;fillColor=#e3c800;fontColor=#000000;strokeColor=#B09500;" parent="1" vertex="1">
          <mxGeometry x="725" y="134" width="364" height="30" as="geometry" />
        </mxCell>
        <mxCell id="FKcn3UVm-199GhvacgbS-36" value="null" style="text;strokeColor=default;fillColor=none;align=center;verticalAlign=middle;spacingLeft=4;spacingRight=4;overflow=hidden;points=[[0,0.5],[1,0.5]];portConstraint=eastwest;rotatable=0;whiteSpace=wrap;html=1;" parent="1" vertex="1">
          <mxGeometry x="639" y="427" width="140" height="30" as="geometry" />
        </mxCell>
        <mxCell id="K3GZY2UKBM5KHAYzjaN0-1" value="线程1释放断点，完成第二轮循环" style="text;html=1;align=center;verticalAlign=middle;whiteSpace=wrap;rounded=0;fillColor=#fad7ac;strokeColor=#b46504;" parent="1" vertex="1">
          <mxGeometry x="77" y="46" width="372" height="30" as="geometry" />
        </mxCell>
        <mxCell id="6XK-HYqeA8xGIQZ-sEsZ-1" value="next" style="text;html=1;align=center;verticalAlign=middle;whiteSpace=wrap;rounded=0;" parent="1" vertex="1">
          <mxGeometry x="845" y="190" width="60" height="30" as="geometry" />
        </mxCell>
        <mxCell id="6XK-HYqeA8xGIQZ-sEsZ-2" value="" style="endArrow=classic;html=1;rounded=0;dashed=1;entryX=0.46;entryY=0.023;entryDx=0;entryDy=0;entryPerimeter=0;" parent="1" source="6XK-HYqeA8xGIQZ-sEsZ-1" target="FKcn3UVm-199GhvacgbS-13" edge="1">
          <mxGeometry width="50" height="50" relative="1" as="geometry">
            <mxPoint x="890" y="220" as="sourcePoint" />
            <mxPoint x="924" y="238" as="targetPoint" />
          </mxGeometry>
        </mxCell>
        <mxCell id="PXhNcsEunvE5rJIeEdri-1" value="" style="endArrow=none;dashed=1;html=1;rounded=0;jumpSize=6;startSize=6;strokeWidth=1;" parent="1" edge="1">
          <mxGeometry width="50" height="50" relative="1" as="geometry">
            <mxPoint x="28" y="517" as="sourcePoint" />
            <mxPoint x="997" y="517" as="targetPoint" />
          </mxGeometry>
        </mxCell>
        <mxCell id="PXhNcsEunvE5rJIeEdri-2" value="1" style="text;strokeColor=#d6b656;fillColor=#fff2cc;align=center;verticalAlign=middle;spacingLeft=4;spacingRight=4;overflow=hidden;points=[[0,0.5],[1,0.5]];portConstraint=eastwest;rotatable=0;whiteSpace=wrap;html=1;" parent="1" vertex="1">
          <mxGeometry x="187" y="1170" width="140" height="30" as="geometry" />
        </mxCell>
        <mxCell id="PXhNcsEunvE5rJIeEdri-3" value="0" style="text;strokeColor=#d6b656;fillColor=#fff2cc;align=center;verticalAlign=middle;spacingLeft=4;spacingRight=4;overflow=hidden;points=[[0,0.5],[1,0.5]];portConstraint=eastwest;rotatable=0;whiteSpace=wrap;html=1;" parent="1" vertex="1">
          <mxGeometry x="187" y="1140" width="140" height="30" as="geometry" />
        </mxCell>
        <mxCell id="PXhNcsEunvE5rJIeEdri-4" value="Thread1" style="text;html=1;align=center;verticalAlign=middle;whiteSpace=wrap;rounded=0;" parent="1" vertex="1">
          <mxGeometry x="61" y="1140" width="60" height="30" as="geometry" />
        </mxCell>
        <mxCell id="PXhNcsEunvE5rJIeEdri-5" value="2" style="text;strokeColor=#b85450;fillColor=#f8cecc;align=center;verticalAlign=middle;spacingLeft=4;spacingRight=4;overflow=hidden;points=[[0,0.5],[1,0.5]];portConstraint=eastwest;rotatable=0;whiteSpace=wrap;html=1;" parent="1" vertex="1">
          <mxGeometry x="187" y="1330" width="140" height="30" as="geometry" />
        </mxCell>
        <mxCell id="PXhNcsEunvE5rJIeEdri-6" value="1" style="text;strokeColor=#b85450;fillColor=#f8cecc;align=center;verticalAlign=middle;spacingLeft=4;spacingRight=4;overflow=hidden;points=[[0,0.5],[1,0.5]];portConstraint=eastwest;rotatable=0;whiteSpace=wrap;html=1;" parent="1" vertex="1">
          <mxGeometry x="187" y="1300" width="140" height="30" as="geometry" />
        </mxCell>
        <mxCell id="PXhNcsEunvE5rJIeEdri-7" value="0" style="text;strokeColor=#b85450;fillColor=#f8cecc;align=center;verticalAlign=middle;spacingLeft=4;spacingRight=4;overflow=hidden;points=[[0,0.5],[1,0.5]];portConstraint=eastwest;rotatable=0;whiteSpace=wrap;html=1;" parent="1" vertex="1">
          <mxGeometry x="187" y="1270" width="140" height="30" as="geometry" />
        </mxCell>
        <mxCell id="PXhNcsEunvE5rJIeEdri-8" style="edgeStyle=orthogonalEdgeStyle;rounded=0;orthogonalLoop=1;jettySize=auto;html=1;" parent="1" source="PXhNcsEunvE5rJIeEdri-9" target="PXhNcsEunvE5rJIeEdri-11" edge="1">
          <mxGeometry relative="1" as="geometry" />
        </mxCell>
        <mxCell id="PXhNcsEunvE5rJIeEdri-9" value="3" style="text;strokeColor=#b85450;fillColor=#f8cecc;align=center;verticalAlign=middle;spacingLeft=4;spacingRight=4;overflow=hidden;points=[[0,0.5],[1,0.5]];portConstraint=eastwest;rotatable=0;whiteSpace=wrap;html=1;" parent="1" vertex="1">
          <mxGeometry x="187" y="1360" width="140" height="30" as="geometry" />
        </mxCell>
        <mxCell id="PXhNcsEunvE5rJIeEdri-10" value="" style="edgeStyle=orthogonalEdgeStyle;rounded=0;orthogonalLoop=1;jettySize=auto;html=1;" parent="1" source="PXhNcsEunvE5rJIeEdri-11" target="PXhNcsEunvE5rJIeEdri-37" edge="1">
          <mxGeometry relative="1" as="geometry" />
        </mxCell>
        <mxCell id="PXhNcsEunvE5rJIeEdri-11" value="key=3&lt;br&gt;value=A" style="text;strokeColor=#82b366;fillColor=#d5e8d4;align=center;verticalAlign=middle;spacingLeft=4;spacingRight=4;overflow=hidden;points=[[0,0.5],[1,0.5]];portConstraint=eastwest;rotatable=0;whiteSpace=wrap;html=1;" parent="1" vertex="1">
          <mxGeometry x="407" y="1360" width="140" height="30" as="geometry" />
        </mxCell>
        <mxCell id="PXhNcsEunvE5rJIeEdri-13" value="key=7&lt;br&gt;value=B" style="text;strokeColor=#6c8ebf;fillColor=#dae8fc;align=center;verticalAlign=middle;spacingLeft=4;spacingRight=4;overflow=hidden;points=[[0,0.5],[1,0.5]];portConstraint=eastwest;rotatable=0;whiteSpace=wrap;html=1;" parent="1" vertex="1">
          <mxGeometry x="627" y="1170" width="140" height="30" as="geometry" />
        </mxCell>
        <mxCell id="PXhNcsEunvE5rJIeEdri-14" value="key=5&lt;br&gt;value=C" style="text;strokeColor=#36393d;fillColor=#f9f7ed;align=center;verticalAlign=middle;spacingLeft=4;spacingRight=4;overflow=hidden;points=[[0,0.5],[1,0.5]];portConstraint=eastwest;rotatable=0;whiteSpace=wrap;html=1;" parent="1" vertex="1">
          <mxGeometry x="847" y="1170" width="140" height="30" as="geometry" />
        </mxCell>
        <mxCell id="PXhNcsEunvE5rJIeEdri-15" value="e" style="text;html=1;align=center;verticalAlign=middle;whiteSpace=wrap;rounded=0;" parent="1" vertex="1">
          <mxGeometry x="600" y="1123" width="60" height="30" as="geometry" />
        </mxCell>
        <mxCell id="PXhNcsEunvE5rJIeEdri-16" value="" style="endArrow=classic;html=1;rounded=0;dashed=1;entryX=0.463;entryY=0.02;entryDx=0;entryDy=0;entryPerimeter=0;" parent="1" source="PXhNcsEunvE5rJIeEdri-15" target="PXhNcsEunvE5rJIeEdri-13" edge="1">
          <mxGeometry width="50" height="50" relative="1" as="geometry">
            <mxPoint x="439" y="1147" as="sourcePoint" />
            <mxPoint x="465" y="1183" as="targetPoint" />
          </mxGeometry>
        </mxCell>
        <mxCell id="PXhNcsEunvE5rJIeEdri-17" value="" style="edgeStyle=orthogonalEdgeStyle;rounded=0;orthogonalLoop=1;jettySize=auto;html=1;entryX=0;entryY=0.5;entryDx=0;entryDy=0;" parent="1" source="PXhNcsEunvE5rJIeEdri-18" target="PXhNcsEunvE5rJIeEdri-35" edge="1">
          <mxGeometry relative="1" as="geometry">
            <mxPoint x="407" y="1556" as="targetPoint" />
          </mxGeometry>
        </mxCell>
        <mxCell id="PXhNcsEunvE5rJIeEdri-18" value="1" style="text;strokeColor=#d6b656;fillColor=#fff2cc;align=center;verticalAlign=middle;spacingLeft=4;spacingRight=4;overflow=hidden;points=[[0,0.5],[1,0.5]];portConstraint=eastwest;rotatable=0;whiteSpace=wrap;html=1;" parent="1" vertex="1">
          <mxGeometry x="187" y="1541" width="140" height="30" as="geometry" />
        </mxCell>
        <mxCell id="PXhNcsEunvE5rJIeEdri-19" value="0" style="text;strokeColor=#d6b656;fillColor=#fff2cc;align=center;verticalAlign=middle;spacingLeft=4;spacingRight=4;overflow=hidden;points=[[0,0.5],[1,0.5]];portConstraint=eastwest;rotatable=0;whiteSpace=wrap;html=1;" parent="1" vertex="1">
          <mxGeometry x="187" y="1511" width="140" height="30" as="geometry" />
        </mxCell>
        <mxCell id="PXhNcsEunvE5rJIeEdri-20" value="Thread2" style="text;html=1;align=center;verticalAlign=middle;whiteSpace=wrap;rounded=0;" parent="1" vertex="1">
          <mxGeometry x="61" y="1511" width="60" height="30" as="geometry" />
        </mxCell>
        <mxCell id="PXhNcsEunvE5rJIeEdri-21" value="2" style="text;strokeColor=#b85450;fillColor=#f8cecc;align=center;verticalAlign=middle;spacingLeft=4;spacingRight=4;overflow=hidden;points=[[0,0.5],[1,0.5]];portConstraint=eastwest;rotatable=0;whiteSpace=wrap;html=1;" parent="1" vertex="1">
          <mxGeometry x="187" y="1701" width="140" height="30" as="geometry" />
        </mxCell>
        <mxCell id="PXhNcsEunvE5rJIeEdri-22" value="" style="edgeStyle=orthogonalEdgeStyle;rounded=0;orthogonalLoop=1;jettySize=auto;html=1;" parent="1" source="PXhNcsEunvE5rJIeEdri-23" target="PXhNcsEunvE5rJIeEdri-28" edge="1">
          <mxGeometry relative="1" as="geometry" />
        </mxCell>
        <mxCell id="PXhNcsEunvE5rJIeEdri-23" value="1" style="text;strokeColor=#b85450;fillColor=#f8cecc;align=center;verticalAlign=middle;spacingLeft=4;spacingRight=4;overflow=hidden;points=[[0,0.5],[1,0.5]];portConstraint=eastwest;rotatable=0;whiteSpace=wrap;html=1;" parent="1" vertex="1">
          <mxGeometry x="187" y="1671" width="140" height="30" as="geometry" />
        </mxCell>
        <mxCell id="PXhNcsEunvE5rJIeEdri-24" value="0" style="text;strokeColor=#b85450;fillColor=#f8cecc;align=center;verticalAlign=middle;spacingLeft=4;spacingRight=4;overflow=hidden;points=[[0,0.5],[1,0.5]];portConstraint=eastwest;rotatable=0;whiteSpace=wrap;html=1;" parent="1" vertex="1">
          <mxGeometry x="187" y="1641" width="140" height="30" as="geometry" />
        </mxCell>
        <mxCell id="PXhNcsEunvE5rJIeEdri-25" value="" style="edgeStyle=orthogonalEdgeStyle;rounded=0;orthogonalLoop=1;jettySize=auto;html=1;" parent="1" source="PXhNcsEunvE5rJIeEdri-26" target="PXhNcsEunvE5rJIeEdri-31" edge="1">
          <mxGeometry relative="1" as="geometry" />
        </mxCell>
        <mxCell id="PXhNcsEunvE5rJIeEdri-26" value="3" style="text;strokeColor=#b85450;fillColor=#f8cecc;align=center;verticalAlign=middle;spacingLeft=4;spacingRight=4;overflow=hidden;points=[[0,0.5],[1,0.5]];portConstraint=eastwest;rotatable=0;whiteSpace=wrap;html=1;" parent="1" vertex="1">
          <mxGeometry x="187" y="1731" width="140" height="30" as="geometry" />
        </mxCell>
        <mxCell id="PXhNcsEunvE5rJIeEdri-27" value="" style="edgeStyle=orthogonalEdgeStyle;rounded=0;orthogonalLoop=1;jettySize=auto;html=1;" parent="1" source="PXhNcsEunvE5rJIeEdri-28" target="PXhNcsEunvE5rJIeEdri-29" edge="1">
          <mxGeometry relative="1" as="geometry" />
        </mxCell>
        <mxCell id="PXhNcsEunvE5rJIeEdri-28" value="key=5&lt;br&gt;value=C" style="text;strokeColor=#36393d;fillColor=#f9f7ed;align=center;verticalAlign=middle;spacingLeft=4;spacingRight=4;overflow=hidden;points=[[0,0.5],[1,0.5]];portConstraint=eastwest;rotatable=0;whiteSpace=wrap;html=1;" parent="1" vertex="1">
          <mxGeometry x="407" y="1671" width="140" height="30" as="geometry" />
        </mxCell>
        <mxCell id="PXhNcsEunvE5rJIeEdri-29" value="null" style="text;strokeColor=default;fillColor=none;align=center;verticalAlign=middle;spacingLeft=4;spacingRight=4;overflow=hidden;points=[[0,0.5],[1,0.5]];portConstraint=eastwest;rotatable=0;whiteSpace=wrap;html=1;" parent="1" vertex="1">
          <mxGeometry x="627" y="1671" width="140" height="30" as="geometry" />
        </mxCell>
        <mxCell id="PXhNcsEunvE5rJIeEdri-30" value="" style="edgeStyle=orthogonalEdgeStyle;rounded=0;orthogonalLoop=1;jettySize=auto;html=1;" parent="1" source="PXhNcsEunvE5rJIeEdri-31" target="PXhNcsEunvE5rJIeEdri-33" edge="1">
          <mxGeometry relative="1" as="geometry" />
        </mxCell>
        <mxCell id="PXhNcsEunvE5rJIeEdri-31" value="key=7&lt;br&gt;value=B" style="text;strokeColor=#6c8ebf;fillColor=#dae8fc;align=center;verticalAlign=middle;spacingLeft=4;spacingRight=4;overflow=hidden;points=[[0,0.5],[1,0.5]];portConstraint=eastwest;rotatable=0;whiteSpace=wrap;html=1;" parent="1" vertex="1">
          <mxGeometry x="407" y="1731" width="140" height="30" as="geometry" />
        </mxCell>
        <mxCell id="PXhNcsEunvE5rJIeEdri-32" value="" style="edgeStyle=orthogonalEdgeStyle;rounded=0;orthogonalLoop=1;jettySize=auto;html=1;" parent="1" source="PXhNcsEunvE5rJIeEdri-33" target="PXhNcsEunvE5rJIeEdri-34" edge="1">
          <mxGeometry relative="1" as="geometry" />
        </mxCell>
        <mxCell id="PXhNcsEunvE5rJIeEdri-33" value="key=3&lt;br&gt;value=A" style="text;strokeColor=#82b366;fillColor=#d5e8d4;align=center;verticalAlign=middle;spacingLeft=4;spacingRight=4;overflow=hidden;points=[[0,0.5],[1,0.5]];portConstraint=eastwest;rotatable=0;whiteSpace=wrap;html=1;" parent="1" vertex="1">
          <mxGeometry x="627" y="1731" width="140" height="30" as="geometry" />
        </mxCell>
        <mxCell id="PXhNcsEunvE5rJIeEdri-34" value="null" style="text;strokeColor=default;fillColor=none;align=center;verticalAlign=middle;spacingLeft=4;spacingRight=4;overflow=hidden;points=[[0,0.5],[1,0.5]];portConstraint=eastwest;rotatable=0;whiteSpace=wrap;html=1;" parent="1" vertex="1">
          <mxGeometry x="847" y="1731" width="140" height="30" as="geometry" />
        </mxCell>
        <mxCell id="PXhNcsEunvE5rJIeEdri-35" value="null" style="text;strokeColor=default;fillColor=none;align=center;verticalAlign=middle;spacingLeft=4;spacingRight=4;overflow=hidden;points=[[0,0.5],[1,0.5]];portConstraint=eastwest;rotatable=0;whiteSpace=wrap;html=1;" parent="1" vertex="1">
          <mxGeometry x="407" y="1541" width="140" height="30" as="geometry" />
        </mxCell>
        <mxCell id="PXhNcsEunvE5rJIeEdri-36" value="执行e.next = newTable[i];" style="text;html=1;align=center;verticalAlign=middle;whiteSpace=wrap;rounded=0;fillColor=#e3c800;fontColor=#000000;strokeColor=#B09500;" parent="1" vertex="1">
          <mxGeometry x="713" y="1067" width="364" height="30" as="geometry" />
        </mxCell>
        <mxCell id="PXhNcsEunvE5rJIeEdri-37" value="null" style="text;strokeColor=default;fillColor=none;align=center;verticalAlign=middle;spacingLeft=4;spacingRight=4;overflow=hidden;points=[[0,0.5],[1,0.5]];portConstraint=eastwest;rotatable=0;whiteSpace=wrap;html=1;" parent="1" vertex="1">
          <mxGeometry x="627" y="1360" width="140" height="30" as="geometry" />
        </mxCell>
        <mxCell id="PXhNcsEunvE5rJIeEdri-38" value="next" style="text;html=1;align=center;verticalAlign=middle;whiteSpace=wrap;rounded=0;" parent="1" vertex="1">
          <mxGeometry x="833" y="1123" width="60" height="30" as="geometry" />
        </mxCell>
        <mxCell id="PXhNcsEunvE5rJIeEdri-39" value="" style="endArrow=classic;html=1;rounded=0;dashed=1;entryX=0.46;entryY=0.023;entryDx=0;entryDy=0;entryPerimeter=0;" parent="1" source="PXhNcsEunvE5rJIeEdri-38" target="PXhNcsEunvE5rJIeEdri-14" edge="1">
          <mxGeometry width="50" height="50" relative="1" as="geometry">
            <mxPoint x="878" y="1153" as="sourcePoint" />
            <mxPoint x="912" y="1171" as="targetPoint" />
          </mxGeometry>
        </mxCell>
        <mxCell id="PXhNcsEunvE5rJIeEdri-40" style="edgeStyle=orthogonalEdgeStyle;rounded=0;orthogonalLoop=1;jettySize=auto;html=1;entryX=0.503;entryY=-0.002;entryDx=0;entryDy=0;entryPerimeter=0;" parent="1" source="PXhNcsEunvE5rJIeEdri-13" target="PXhNcsEunvE5rJIeEdri-11" edge="1">
          <mxGeometry relative="1" as="geometry" />
        </mxCell>
        <mxCell id="PXhNcsEunvE5rJIeEdri-41" value="1" style="text;strokeColor=#d6b656;fillColor=#fff2cc;align=center;verticalAlign=middle;spacingLeft=4;spacingRight=4;overflow=hidden;points=[[0,0.5],[1,0.5]];portConstraint=eastwest;rotatable=0;whiteSpace=wrap;html=1;" parent="1" vertex="1">
          <mxGeometry x="199" y="2193" width="140" height="30" as="geometry" />
        </mxCell>
        <mxCell id="PXhNcsEunvE5rJIeEdri-42" value="0" style="text;strokeColor=#d6b656;fillColor=#fff2cc;align=center;verticalAlign=middle;spacingLeft=4;spacingRight=4;overflow=hidden;points=[[0,0.5],[1,0.5]];portConstraint=eastwest;rotatable=0;whiteSpace=wrap;html=1;" parent="1" vertex="1">
          <mxGeometry x="199" y="2163" width="140" height="30" as="geometry" />
        </mxCell>
        <mxCell id="PXhNcsEunvE5rJIeEdri-43" value="Thread1" style="text;html=1;align=center;verticalAlign=middle;whiteSpace=wrap;rounded=0;" parent="1" vertex="1">
          <mxGeometry x="73" y="2163" width="60" height="30" as="geometry" />
        </mxCell>
        <mxCell id="PXhNcsEunvE5rJIeEdri-44" value="2" style="text;strokeColor=#b85450;fillColor=#f8cecc;align=center;verticalAlign=middle;spacingLeft=4;spacingRight=4;overflow=hidden;points=[[0,0.5],[1,0.5]];portConstraint=eastwest;rotatable=0;whiteSpace=wrap;html=1;" parent="1" vertex="1">
          <mxGeometry x="199" y="2353" width="140" height="30" as="geometry" />
        </mxCell>
        <mxCell id="PXhNcsEunvE5rJIeEdri-45" value="1" style="text;strokeColor=#b85450;fillColor=#f8cecc;align=center;verticalAlign=middle;spacingLeft=4;spacingRight=4;overflow=hidden;points=[[0,0.5],[1,0.5]];portConstraint=eastwest;rotatable=0;whiteSpace=wrap;html=1;" parent="1" vertex="1">
          <mxGeometry x="199" y="2323" width="140" height="30" as="geometry" />
        </mxCell>
        <mxCell id="PXhNcsEunvE5rJIeEdri-46" value="0" style="text;strokeColor=#b85450;fillColor=#f8cecc;align=center;verticalAlign=middle;spacingLeft=4;spacingRight=4;overflow=hidden;points=[[0,0.5],[1,0.5]];portConstraint=eastwest;rotatable=0;whiteSpace=wrap;html=1;" parent="1" vertex="1">
          <mxGeometry x="199" y="2293" width="140" height="30" as="geometry" />
        </mxCell>
        <mxCell id="PXhNcsEunvE5rJIeEdri-80" style="edgeStyle=orthogonalEdgeStyle;rounded=0;orthogonalLoop=1;jettySize=auto;html=1;" parent="1" source="PXhNcsEunvE5rJIeEdri-48" target="PXhNcsEunvE5rJIeEdri-51" edge="1">
          <mxGeometry relative="1" as="geometry" />
        </mxCell>
        <mxCell id="PXhNcsEunvE5rJIeEdri-48" value="3" style="text;strokeColor=#b85450;fillColor=#f8cecc;align=center;verticalAlign=middle;spacingLeft=4;spacingRight=4;overflow=hidden;points=[[0,0.5],[1,0.5]];portConstraint=eastwest;rotatable=0;whiteSpace=wrap;html=1;" parent="1" vertex="1">
          <mxGeometry x="199" y="2383" width="140" height="30" as="geometry" />
        </mxCell>
        <mxCell id="PXhNcsEunvE5rJIeEdri-49" value="" style="edgeStyle=orthogonalEdgeStyle;rounded=0;orthogonalLoop=1;jettySize=auto;html=1;" parent="1" source="PXhNcsEunvE5rJIeEdri-50" target="PXhNcsEunvE5rJIeEdri-75" edge="1">
          <mxGeometry relative="1" as="geometry" />
        </mxCell>
        <mxCell id="PXhNcsEunvE5rJIeEdri-50" value="key=3&lt;br&gt;value=A" style="text;strokeColor=#82b366;fillColor=#d5e8d4;align=center;verticalAlign=middle;spacingLeft=4;spacingRight=4;overflow=hidden;points=[[0,0.5],[1,0.5]];portConstraint=eastwest;rotatable=0;whiteSpace=wrap;html=1;" parent="1" vertex="1">
          <mxGeometry x="639" y="2383" width="140" height="30" as="geometry" />
        </mxCell>
        <mxCell id="PXhNcsEunvE5rJIeEdri-79" style="edgeStyle=orthogonalEdgeStyle;rounded=0;orthogonalLoop=1;jettySize=auto;html=1;" parent="1" source="PXhNcsEunvE5rJIeEdri-51" edge="1">
          <mxGeometry relative="1" as="geometry">
            <mxPoint x="638.5882352941178" y="2398" as="targetPoint" />
          </mxGeometry>
        </mxCell>
        <mxCell id="PXhNcsEunvE5rJIeEdri-51" value="key=7&lt;br&gt;value=B" style="text;strokeColor=#6c8ebf;fillColor=#dae8fc;align=center;verticalAlign=middle;spacingLeft=4;spacingRight=4;overflow=hidden;points=[[0,0.5],[1,0.5]];portConstraint=eastwest;rotatable=0;whiteSpace=wrap;html=1;" parent="1" vertex="1">
          <mxGeometry x="420.5" y="2383" width="140" height="30" as="geometry" />
        </mxCell>
        <mxCell id="PXhNcsEunvE5rJIeEdri-52" value="key=5&lt;br&gt;value=C" style="text;strokeColor=#36393d;fillColor=#f9f7ed;align=center;verticalAlign=middle;spacingLeft=4;spacingRight=4;overflow=hidden;points=[[0,0.5],[1,0.5]];portConstraint=eastwest;rotatable=0;whiteSpace=wrap;html=1;" parent="1" vertex="1">
          <mxGeometry x="859" y="2193" width="140" height="30" as="geometry" />
        </mxCell>
        <mxCell id="PXhNcsEunvE5rJIeEdri-53" value="e" style="text;html=1;align=center;verticalAlign=middle;whiteSpace=wrap;rounded=0;" parent="1" vertex="1">
          <mxGeometry x="393.5" y="2336" width="60" height="30" as="geometry" />
        </mxCell>
        <mxCell id="PXhNcsEunvE5rJIeEdri-54" value="" style="endArrow=classic;html=1;rounded=0;dashed=1;entryX=0.463;entryY=0.02;entryDx=0;entryDy=0;entryPerimeter=0;" parent="1" source="PXhNcsEunvE5rJIeEdri-53" target="PXhNcsEunvE5rJIeEdri-51" edge="1">
          <mxGeometry width="50" height="50" relative="1" as="geometry">
            <mxPoint x="232.5" y="2360" as="sourcePoint" />
            <mxPoint x="258.5" y="2396" as="targetPoint" />
          </mxGeometry>
        </mxCell>
        <mxCell id="PXhNcsEunvE5rJIeEdri-55" value="" style="edgeStyle=orthogonalEdgeStyle;rounded=0;orthogonalLoop=1;jettySize=auto;html=1;entryX=0;entryY=0.5;entryDx=0;entryDy=0;" parent="1" source="PXhNcsEunvE5rJIeEdri-56" target="PXhNcsEunvE5rJIeEdri-73" edge="1">
          <mxGeometry relative="1" as="geometry">
            <mxPoint x="419" y="2579" as="targetPoint" />
          </mxGeometry>
        </mxCell>
        <mxCell id="PXhNcsEunvE5rJIeEdri-56" value="1" style="text;strokeColor=#d6b656;fillColor=#fff2cc;align=center;verticalAlign=middle;spacingLeft=4;spacingRight=4;overflow=hidden;points=[[0,0.5],[1,0.5]];portConstraint=eastwest;rotatable=0;whiteSpace=wrap;html=1;" parent="1" vertex="1">
          <mxGeometry x="199" y="2564" width="140" height="30" as="geometry" />
        </mxCell>
        <mxCell id="PXhNcsEunvE5rJIeEdri-57" value="0" style="text;strokeColor=#d6b656;fillColor=#fff2cc;align=center;verticalAlign=middle;spacingLeft=4;spacingRight=4;overflow=hidden;points=[[0,0.5],[1,0.5]];portConstraint=eastwest;rotatable=0;whiteSpace=wrap;html=1;" parent="1" vertex="1">
          <mxGeometry x="199" y="2534" width="140" height="30" as="geometry" />
        </mxCell>
        <mxCell id="PXhNcsEunvE5rJIeEdri-58" value="Thread2" style="text;html=1;align=center;verticalAlign=middle;whiteSpace=wrap;rounded=0;" parent="1" vertex="1">
          <mxGeometry x="73" y="2534" width="60" height="30" as="geometry" />
        </mxCell>
        <mxCell id="PXhNcsEunvE5rJIeEdri-59" value="2" style="text;strokeColor=#b85450;fillColor=#f8cecc;align=center;verticalAlign=middle;spacingLeft=4;spacingRight=4;overflow=hidden;points=[[0,0.5],[1,0.5]];portConstraint=eastwest;rotatable=0;whiteSpace=wrap;html=1;" parent="1" vertex="1">
          <mxGeometry x="199" y="2724" width="140" height="30" as="geometry" />
        </mxCell>
        <mxCell id="PXhNcsEunvE5rJIeEdri-60" value="" style="edgeStyle=orthogonalEdgeStyle;rounded=0;orthogonalLoop=1;jettySize=auto;html=1;" parent="1" source="PXhNcsEunvE5rJIeEdri-61" target="PXhNcsEunvE5rJIeEdri-66" edge="1">
          <mxGeometry relative="1" as="geometry" />
        </mxCell>
        <mxCell id="PXhNcsEunvE5rJIeEdri-61" value="1" style="text;strokeColor=#b85450;fillColor=#f8cecc;align=center;verticalAlign=middle;spacingLeft=4;spacingRight=4;overflow=hidden;points=[[0,0.5],[1,0.5]];portConstraint=eastwest;rotatable=0;whiteSpace=wrap;html=1;" parent="1" vertex="1">
          <mxGeometry x="199" y="2694" width="140" height="30" as="geometry" />
        </mxCell>
        <mxCell id="PXhNcsEunvE5rJIeEdri-62" value="0" style="text;strokeColor=#b85450;fillColor=#f8cecc;align=center;verticalAlign=middle;spacingLeft=4;spacingRight=4;overflow=hidden;points=[[0,0.5],[1,0.5]];portConstraint=eastwest;rotatable=0;whiteSpace=wrap;html=1;" parent="1" vertex="1">
          <mxGeometry x="199" y="2664" width="140" height="30" as="geometry" />
        </mxCell>
        <mxCell id="PXhNcsEunvE5rJIeEdri-63" value="" style="edgeStyle=orthogonalEdgeStyle;rounded=0;orthogonalLoop=1;jettySize=auto;html=1;" parent="1" source="PXhNcsEunvE5rJIeEdri-64" target="PXhNcsEunvE5rJIeEdri-69" edge="1">
          <mxGeometry relative="1" as="geometry" />
        </mxCell>
        <mxCell id="PXhNcsEunvE5rJIeEdri-64" value="3" style="text;strokeColor=#b85450;fillColor=#f8cecc;align=center;verticalAlign=middle;spacingLeft=4;spacingRight=4;overflow=hidden;points=[[0,0.5],[1,0.5]];portConstraint=eastwest;rotatable=0;whiteSpace=wrap;html=1;" parent="1" vertex="1">
          <mxGeometry x="199" y="2754" width="140" height="30" as="geometry" />
        </mxCell>
        <mxCell id="PXhNcsEunvE5rJIeEdri-65" value="" style="edgeStyle=orthogonalEdgeStyle;rounded=0;orthogonalLoop=1;jettySize=auto;html=1;" parent="1" source="PXhNcsEunvE5rJIeEdri-66" target="PXhNcsEunvE5rJIeEdri-67" edge="1">
          <mxGeometry relative="1" as="geometry" />
        </mxCell>
        <mxCell id="PXhNcsEunvE5rJIeEdri-66" value="key=5&lt;br&gt;value=C" style="text;strokeColor=#36393d;fillColor=#f9f7ed;align=center;verticalAlign=middle;spacingLeft=4;spacingRight=4;overflow=hidden;points=[[0,0.5],[1,0.5]];portConstraint=eastwest;rotatable=0;whiteSpace=wrap;html=1;" parent="1" vertex="1">
          <mxGeometry x="419" y="2694" width="140" height="30" as="geometry" />
        </mxCell>
        <mxCell id="PXhNcsEunvE5rJIeEdri-67" value="null" style="text;strokeColor=default;fillColor=none;align=center;verticalAlign=middle;spacingLeft=4;spacingRight=4;overflow=hidden;points=[[0,0.5],[1,0.5]];portConstraint=eastwest;rotatable=0;whiteSpace=wrap;html=1;" parent="1" vertex="1">
          <mxGeometry x="639" y="2694" width="140" height="30" as="geometry" />
        </mxCell>
        <mxCell id="PXhNcsEunvE5rJIeEdri-68" value="" style="edgeStyle=orthogonalEdgeStyle;rounded=0;orthogonalLoop=1;jettySize=auto;html=1;" parent="1" source="PXhNcsEunvE5rJIeEdri-69" target="PXhNcsEunvE5rJIeEdri-71" edge="1">
          <mxGeometry relative="1" as="geometry" />
        </mxCell>
        <mxCell id="PXhNcsEunvE5rJIeEdri-69" value="key=7&lt;br&gt;value=B" style="text;strokeColor=#6c8ebf;fillColor=#dae8fc;align=center;verticalAlign=middle;spacingLeft=4;spacingRight=4;overflow=hidden;points=[[0,0.5],[1,0.5]];portConstraint=eastwest;rotatable=0;whiteSpace=wrap;html=1;" parent="1" vertex="1">
          <mxGeometry x="419" y="2754" width="140" height="30" as="geometry" />
        </mxCell>
        <mxCell id="PXhNcsEunvE5rJIeEdri-70" value="" style="edgeStyle=orthogonalEdgeStyle;rounded=0;orthogonalLoop=1;jettySize=auto;html=1;" parent="1" source="PXhNcsEunvE5rJIeEdri-71" target="PXhNcsEunvE5rJIeEdri-72" edge="1">
          <mxGeometry relative="1" as="geometry" />
        </mxCell>
        <mxCell id="PXhNcsEunvE5rJIeEdri-71" value="key=3&lt;br&gt;value=A" style="text;strokeColor=#82b366;fillColor=#d5e8d4;align=center;verticalAlign=middle;spacingLeft=4;spacingRight=4;overflow=hidden;points=[[0,0.5],[1,0.5]];portConstraint=eastwest;rotatable=0;whiteSpace=wrap;html=1;" parent="1" vertex="1">
          <mxGeometry x="639" y="2754" width="140" height="30" as="geometry" />
        </mxCell>
        <mxCell id="PXhNcsEunvE5rJIeEdri-72" value="null" style="text;strokeColor=default;fillColor=none;align=center;verticalAlign=middle;spacingLeft=4;spacingRight=4;overflow=hidden;points=[[0,0.5],[1,0.5]];portConstraint=eastwest;rotatable=0;whiteSpace=wrap;html=1;" parent="1" vertex="1">
          <mxGeometry x="859" y="2754" width="140" height="30" as="geometry" />
        </mxCell>
        <mxCell id="PXhNcsEunvE5rJIeEdri-73" value="null" style="text;strokeColor=default;fillColor=none;align=center;verticalAlign=middle;spacingLeft=4;spacingRight=4;overflow=hidden;points=[[0,0.5],[1,0.5]];portConstraint=eastwest;rotatable=0;whiteSpace=wrap;html=1;" parent="1" vertex="1">
          <mxGeometry x="419" y="2564" width="140" height="30" as="geometry" />
        </mxCell>
        <mxCell id="PXhNcsEunvE5rJIeEdri-74" value="执行newTable[i] = e;&amp;nbsp;" style="text;html=1;align=center;verticalAlign=middle;whiteSpace=wrap;rounded=0;fillColor=#e3c800;fontColor=#000000;strokeColor=#B09500;" parent="1" vertex="1">
          <mxGeometry x="725" y="2090" width="364" height="30" as="geometry" />
        </mxCell>
        <mxCell id="PXhNcsEunvE5rJIeEdri-75" value="null" style="text;strokeColor=default;fillColor=none;align=center;verticalAlign=middle;spacingLeft=4;spacingRight=4;overflow=hidden;points=[[0,0.5],[1,0.5]];portConstraint=eastwest;rotatable=0;whiteSpace=wrap;html=1;" parent="1" vertex="1">
          <mxGeometry x="859" y="2383" width="140" height="30" as="geometry" />
        </mxCell>
        <mxCell id="PXhNcsEunvE5rJIeEdri-76" value="next" style="text;html=1;align=center;verticalAlign=middle;whiteSpace=wrap;rounded=0;" parent="1" vertex="1">
          <mxGeometry x="845" y="2146" width="60" height="30" as="geometry" />
        </mxCell>
        <mxCell id="PXhNcsEunvE5rJIeEdri-77" value="" style="endArrow=classic;html=1;rounded=0;dashed=1;entryX=0.46;entryY=0.023;entryDx=0;entryDy=0;entryPerimeter=0;" parent="1" source="PXhNcsEunvE5rJIeEdri-76" target="PXhNcsEunvE5rJIeEdri-52" edge="1">
          <mxGeometry width="50" height="50" relative="1" as="geometry">
            <mxPoint x="890" y="2176" as="sourcePoint" />
            <mxPoint x="924" y="2194" as="targetPoint" />
          </mxGeometry>
        </mxCell>
        <mxCell id="PXhNcsEunvE5rJIeEdri-81" value="1" style="text;strokeColor=#d6b656;fillColor=#fff2cc;align=center;verticalAlign=middle;spacingLeft=4;spacingRight=4;overflow=hidden;points=[[0,0.5],[1,0.5]];portConstraint=eastwest;rotatable=0;whiteSpace=wrap;html=1;" parent="1" vertex="1">
          <mxGeometry x="187" y="3203" width="140" height="30" as="geometry" />
        </mxCell>
        <mxCell id="PXhNcsEunvE5rJIeEdri-82" value="0" style="text;strokeColor=#d6b656;fillColor=#fff2cc;align=center;verticalAlign=middle;spacingLeft=4;spacingRight=4;overflow=hidden;points=[[0,0.5],[1,0.5]];portConstraint=eastwest;rotatable=0;whiteSpace=wrap;html=1;" parent="1" vertex="1">
          <mxGeometry x="187" y="3173" width="140" height="30" as="geometry" />
        </mxCell>
        <mxCell id="PXhNcsEunvE5rJIeEdri-83" value="Thread1" style="text;html=1;align=center;verticalAlign=middle;whiteSpace=wrap;rounded=0;" parent="1" vertex="1">
          <mxGeometry x="61" y="3173" width="60" height="30" as="geometry" />
        </mxCell>
        <mxCell id="PXhNcsEunvE5rJIeEdri-84" value="2" style="text;strokeColor=#b85450;fillColor=#f8cecc;align=center;verticalAlign=middle;spacingLeft=4;spacingRight=4;overflow=hidden;points=[[0,0.5],[1,0.5]];portConstraint=eastwest;rotatable=0;whiteSpace=wrap;html=1;" parent="1" vertex="1">
          <mxGeometry x="187" y="3363" width="140" height="30" as="geometry" />
        </mxCell>
        <mxCell id="PXhNcsEunvE5rJIeEdri-85" value="1" style="text;strokeColor=#b85450;fillColor=#f8cecc;align=center;verticalAlign=middle;spacingLeft=4;spacingRight=4;overflow=hidden;points=[[0,0.5],[1,0.5]];portConstraint=eastwest;rotatable=0;whiteSpace=wrap;html=1;" parent="1" vertex="1">
          <mxGeometry x="187" y="3333" width="140" height="30" as="geometry" />
        </mxCell>
        <mxCell id="PXhNcsEunvE5rJIeEdri-86" value="0" style="text;strokeColor=#b85450;fillColor=#f8cecc;align=center;verticalAlign=middle;spacingLeft=4;spacingRight=4;overflow=hidden;points=[[0,0.5],[1,0.5]];portConstraint=eastwest;rotatable=0;whiteSpace=wrap;html=1;" parent="1" vertex="1">
          <mxGeometry x="187" y="3303" width="140" height="30" as="geometry" />
        </mxCell>
        <mxCell id="PXhNcsEunvE5rJIeEdri-87" style="edgeStyle=orthogonalEdgeStyle;rounded=0;orthogonalLoop=1;jettySize=auto;html=1;" parent="1" source="PXhNcsEunvE5rJIeEdri-88" target="PXhNcsEunvE5rJIeEdri-92" edge="1">
          <mxGeometry relative="1" as="geometry" />
        </mxCell>
        <mxCell id="PXhNcsEunvE5rJIeEdri-88" value="3" style="text;strokeColor=#b85450;fillColor=#f8cecc;align=center;verticalAlign=middle;spacingLeft=4;spacingRight=4;overflow=hidden;points=[[0,0.5],[1,0.5]];portConstraint=eastwest;rotatable=0;whiteSpace=wrap;html=1;" parent="1" vertex="1">
          <mxGeometry x="187" y="3393" width="140" height="30" as="geometry" />
        </mxCell>
        <mxCell id="PXhNcsEunvE5rJIeEdri-89" value="" style="edgeStyle=orthogonalEdgeStyle;rounded=0;orthogonalLoop=1;jettySize=auto;html=1;" parent="1" source="PXhNcsEunvE5rJIeEdri-90" target="PXhNcsEunvE5rJIeEdri-116" edge="1">
          <mxGeometry relative="1" as="geometry" />
        </mxCell>
        <mxCell id="PXhNcsEunvE5rJIeEdri-90" value="key=3&lt;br&gt;value=A" style="text;strokeColor=#82b366;fillColor=#d5e8d4;align=center;verticalAlign=middle;spacingLeft=4;spacingRight=4;overflow=hidden;points=[[0,0.5],[1,0.5]];portConstraint=eastwest;rotatable=0;whiteSpace=wrap;html=1;" parent="1" vertex="1">
          <mxGeometry x="627" y="3393" width="140" height="30" as="geometry" />
        </mxCell>
        <mxCell id="PXhNcsEunvE5rJIeEdri-91" style="edgeStyle=orthogonalEdgeStyle;rounded=0;orthogonalLoop=1;jettySize=auto;html=1;" parent="1" source="PXhNcsEunvE5rJIeEdri-92" edge="1">
          <mxGeometry relative="1" as="geometry">
            <mxPoint x="626.5882352941178" y="3408" as="targetPoint" />
          </mxGeometry>
        </mxCell>
        <mxCell id="PXhNcsEunvE5rJIeEdri-92" value="key=7&lt;br&gt;value=B" style="text;strokeColor=#6c8ebf;fillColor=#dae8fc;align=center;verticalAlign=middle;spacingLeft=4;spacingRight=4;overflow=hidden;points=[[0,0.5],[1,0.5]];portConstraint=eastwest;rotatable=0;whiteSpace=wrap;html=1;" parent="1" vertex="1">
          <mxGeometry x="408.5" y="3393" width="140" height="30" as="geometry" />
        </mxCell>
        <mxCell id="PXhNcsEunvE5rJIeEdri-93" value="key=5&lt;br&gt;value=C" style="text;strokeColor=#36393d;fillColor=#f9f7ed;align=center;verticalAlign=middle;spacingLeft=4;spacingRight=4;overflow=hidden;points=[[0,0.5],[1,0.5]];portConstraint=eastwest;rotatable=0;whiteSpace=wrap;html=1;" parent="1" vertex="1">
          <mxGeometry x="847" y="3203" width="140" height="30" as="geometry" />
        </mxCell>
        <mxCell id="PXhNcsEunvE5rJIeEdri-94" value="e" style="text;html=1;align=center;verticalAlign=middle;whiteSpace=wrap;rounded=0;" parent="1" vertex="1">
          <mxGeometry x="381.5" y="3346" width="60" height="30" as="geometry" />
        </mxCell>
        <mxCell id="PXhNcsEunvE5rJIeEdri-95" value="" style="endArrow=classic;html=1;rounded=0;dashed=1;entryX=0.463;entryY=0.02;entryDx=0;entryDy=0;entryPerimeter=0;" parent="1" source="PXhNcsEunvE5rJIeEdri-94" target="PXhNcsEunvE5rJIeEdri-92" edge="1">
          <mxGeometry width="50" height="50" relative="1" as="geometry">
            <mxPoint x="220.5" y="3370" as="sourcePoint" />
            <mxPoint x="246.5" y="3406" as="targetPoint" />
          </mxGeometry>
        </mxCell>
        <mxCell id="PXhNcsEunvE5rJIeEdri-96" value="" style="edgeStyle=orthogonalEdgeStyle;rounded=0;orthogonalLoop=1;jettySize=auto;html=1;entryX=0;entryY=0.5;entryDx=0;entryDy=0;" parent="1" source="PXhNcsEunvE5rJIeEdri-97" target="PXhNcsEunvE5rJIeEdri-114" edge="1">
          <mxGeometry relative="1" as="geometry">
            <mxPoint x="407" y="3589" as="targetPoint" />
          </mxGeometry>
        </mxCell>
        <mxCell id="PXhNcsEunvE5rJIeEdri-97" value="1" style="text;strokeColor=#d6b656;fillColor=#fff2cc;align=center;verticalAlign=middle;spacingLeft=4;spacingRight=4;overflow=hidden;points=[[0,0.5],[1,0.5]];portConstraint=eastwest;rotatable=0;whiteSpace=wrap;html=1;" parent="1" vertex="1">
          <mxGeometry x="187" y="3574" width="140" height="30" as="geometry" />
        </mxCell>
        <mxCell id="PXhNcsEunvE5rJIeEdri-98" value="0" style="text;strokeColor=#d6b656;fillColor=#fff2cc;align=center;verticalAlign=middle;spacingLeft=4;spacingRight=4;overflow=hidden;points=[[0,0.5],[1,0.5]];portConstraint=eastwest;rotatable=0;whiteSpace=wrap;html=1;" parent="1" vertex="1">
          <mxGeometry x="187" y="3544" width="140" height="30" as="geometry" />
        </mxCell>
        <mxCell id="PXhNcsEunvE5rJIeEdri-99" value="Thread2" style="text;html=1;align=center;verticalAlign=middle;whiteSpace=wrap;rounded=0;" parent="1" vertex="1">
          <mxGeometry x="61" y="3544" width="60" height="30" as="geometry" />
        </mxCell>
        <mxCell id="PXhNcsEunvE5rJIeEdri-100" value="2" style="text;strokeColor=#b85450;fillColor=#f8cecc;align=center;verticalAlign=middle;spacingLeft=4;spacingRight=4;overflow=hidden;points=[[0,0.5],[1,0.5]];portConstraint=eastwest;rotatable=0;whiteSpace=wrap;html=1;" parent="1" vertex="1">
          <mxGeometry x="187" y="3734" width="140" height="30" as="geometry" />
        </mxCell>
        <mxCell id="PXhNcsEunvE5rJIeEdri-101" value="" style="edgeStyle=orthogonalEdgeStyle;rounded=0;orthogonalLoop=1;jettySize=auto;html=1;" parent="1" source="PXhNcsEunvE5rJIeEdri-102" target="PXhNcsEunvE5rJIeEdri-107" edge="1">
          <mxGeometry relative="1" as="geometry" />
        </mxCell>
        <mxCell id="PXhNcsEunvE5rJIeEdri-102" value="1" style="text;strokeColor=#b85450;fillColor=#f8cecc;align=center;verticalAlign=middle;spacingLeft=4;spacingRight=4;overflow=hidden;points=[[0,0.5],[1,0.5]];portConstraint=eastwest;rotatable=0;whiteSpace=wrap;html=1;" parent="1" vertex="1">
          <mxGeometry x="187" y="3704" width="140" height="30" as="geometry" />
        </mxCell>
        <mxCell id="PXhNcsEunvE5rJIeEdri-103" value="0" style="text;strokeColor=#b85450;fillColor=#f8cecc;align=center;verticalAlign=middle;spacingLeft=4;spacingRight=4;overflow=hidden;points=[[0,0.5],[1,0.5]];portConstraint=eastwest;rotatable=0;whiteSpace=wrap;html=1;" parent="1" vertex="1">
          <mxGeometry x="187" y="3674" width="140" height="30" as="geometry" />
        </mxCell>
        <mxCell id="PXhNcsEunvE5rJIeEdri-104" value="" style="edgeStyle=orthogonalEdgeStyle;rounded=0;orthogonalLoop=1;jettySize=auto;html=1;" parent="1" source="PXhNcsEunvE5rJIeEdri-105" target="PXhNcsEunvE5rJIeEdri-110" edge="1">
          <mxGeometry relative="1" as="geometry" />
        </mxCell>
        <mxCell id="PXhNcsEunvE5rJIeEdri-105" value="3" style="text;strokeColor=#b85450;fillColor=#f8cecc;align=center;verticalAlign=middle;spacingLeft=4;spacingRight=4;overflow=hidden;points=[[0,0.5],[1,0.5]];portConstraint=eastwest;rotatable=0;whiteSpace=wrap;html=1;" parent="1" vertex="1">
          <mxGeometry x="187" y="3764" width="140" height="30" as="geometry" />
        </mxCell>
        <mxCell id="PXhNcsEunvE5rJIeEdri-106" value="" style="edgeStyle=orthogonalEdgeStyle;rounded=0;orthogonalLoop=1;jettySize=auto;html=1;" parent="1" source="PXhNcsEunvE5rJIeEdri-107" target="PXhNcsEunvE5rJIeEdri-108" edge="1">
          <mxGeometry relative="1" as="geometry" />
        </mxCell>
        <mxCell id="PXhNcsEunvE5rJIeEdri-107" value="key=5&lt;br&gt;value=C" style="text;strokeColor=#36393d;fillColor=#f9f7ed;align=center;verticalAlign=middle;spacingLeft=4;spacingRight=4;overflow=hidden;points=[[0,0.5],[1,0.5]];portConstraint=eastwest;rotatable=0;whiteSpace=wrap;html=1;" parent="1" vertex="1">
          <mxGeometry x="407" y="3704" width="140" height="30" as="geometry" />
        </mxCell>
        <mxCell id="PXhNcsEunvE5rJIeEdri-108" value="null" style="text;strokeColor=default;fillColor=none;align=center;verticalAlign=middle;spacingLeft=4;spacingRight=4;overflow=hidden;points=[[0,0.5],[1,0.5]];portConstraint=eastwest;rotatable=0;whiteSpace=wrap;html=1;" parent="1" vertex="1">
          <mxGeometry x="627" y="3704" width="140" height="30" as="geometry" />
        </mxCell>
        <mxCell id="PXhNcsEunvE5rJIeEdri-109" value="" style="edgeStyle=orthogonalEdgeStyle;rounded=0;orthogonalLoop=1;jettySize=auto;html=1;" parent="1" source="PXhNcsEunvE5rJIeEdri-110" target="PXhNcsEunvE5rJIeEdri-112" edge="1">
          <mxGeometry relative="1" as="geometry" />
        </mxCell>
        <mxCell id="PXhNcsEunvE5rJIeEdri-110" value="key=7&lt;br&gt;value=B" style="text;strokeColor=#6c8ebf;fillColor=#dae8fc;align=center;verticalAlign=middle;spacingLeft=4;spacingRight=4;overflow=hidden;points=[[0,0.5],[1,0.5]];portConstraint=eastwest;rotatable=0;whiteSpace=wrap;html=1;" parent="1" vertex="1">
          <mxGeometry x="407" y="3764" width="140" height="30" as="geometry" />
        </mxCell>
        <mxCell id="PXhNcsEunvE5rJIeEdri-111" value="" style="edgeStyle=orthogonalEdgeStyle;rounded=0;orthogonalLoop=1;jettySize=auto;html=1;" parent="1" source="PXhNcsEunvE5rJIeEdri-112" target="PXhNcsEunvE5rJIeEdri-113" edge="1">
          <mxGeometry relative="1" as="geometry" />
        </mxCell>
        <mxCell id="PXhNcsEunvE5rJIeEdri-112" value="key=3&lt;br&gt;value=A" style="text;strokeColor=#82b366;fillColor=#d5e8d4;align=center;verticalAlign=middle;spacingLeft=4;spacingRight=4;overflow=hidden;points=[[0,0.5],[1,0.5]];portConstraint=eastwest;rotatable=0;whiteSpace=wrap;html=1;" parent="1" vertex="1">
          <mxGeometry x="627" y="3764" width="140" height="30" as="geometry" />
        </mxCell>
        <mxCell id="PXhNcsEunvE5rJIeEdri-113" value="null" style="text;strokeColor=default;fillColor=none;align=center;verticalAlign=middle;spacingLeft=4;spacingRight=4;overflow=hidden;points=[[0,0.5],[1,0.5]];portConstraint=eastwest;rotatable=0;whiteSpace=wrap;html=1;" parent="1" vertex="1">
          <mxGeometry x="847" y="3764" width="140" height="30" as="geometry" />
        </mxCell>
        <mxCell id="PXhNcsEunvE5rJIeEdri-114" value="null" style="text;strokeColor=default;fillColor=none;align=center;verticalAlign=middle;spacingLeft=4;spacingRight=4;overflow=hidden;points=[[0,0.5],[1,0.5]];portConstraint=eastwest;rotatable=0;whiteSpace=wrap;html=1;" parent="1" vertex="1">
          <mxGeometry x="407" y="3574" width="140" height="30" as="geometry" />
        </mxCell>
        <mxCell id="PXhNcsEunvE5rJIeEdri-115" value="执行e = next;&amp;nbsp;" style="text;html=1;align=center;verticalAlign=middle;whiteSpace=wrap;rounded=0;fillColor=#e3c800;fontColor=#000000;strokeColor=#B09500;" parent="1" vertex="1">
          <mxGeometry x="713" y="3100" width="364" height="30" as="geometry" />
        </mxCell>
        <mxCell id="PXhNcsEunvE5rJIeEdri-116" value="null" style="text;strokeColor=default;fillColor=none;align=center;verticalAlign=middle;spacingLeft=4;spacingRight=4;overflow=hidden;points=[[0,0.5],[1,0.5]];portConstraint=eastwest;rotatable=0;whiteSpace=wrap;html=1;" parent="1" vertex="1">
          <mxGeometry x="847" y="3393" width="140" height="30" as="geometry" />
        </mxCell>
        <mxCell id="PXhNcsEunvE5rJIeEdri-117" value="next" style="text;html=1;align=center;verticalAlign=middle;whiteSpace=wrap;rounded=0;" parent="1" vertex="1">
          <mxGeometry x="833" y="3156" width="60" height="30" as="geometry" />
        </mxCell>
        <mxCell id="PXhNcsEunvE5rJIeEdri-118" value="" style="endArrow=classic;html=1;rounded=0;dashed=1;entryX=0.46;entryY=0.023;entryDx=0;entryDy=0;entryPerimeter=0;" parent="1" source="PXhNcsEunvE5rJIeEdri-117" target="PXhNcsEunvE5rJIeEdri-93" edge="1">
          <mxGeometry width="50" height="50" relative="1" as="geometry">
            <mxPoint x="878" y="3186" as="sourcePoint" />
            <mxPoint x="912" y="3204" as="targetPoint" />
          </mxGeometry>
        </mxCell>
        <mxCell id="3vv1XS6U5-iq4imNNE6q-1" value="&lt;font style=&quot;font-size: 30px;&quot;&gt;线程安全的理想状态下&lt;/font&gt;" style="text;html=1;align=center;verticalAlign=middle;whiteSpace=wrap;rounded=0;fillColor=#e51400;fontColor=#ffffff;strokeColor=#B20000;" vertex="1" parent="1">
          <mxGeometry x="1605" y="291" width="343" height="497" as="geometry" />
        </mxCell>
      </root>
    </mxGraphModel>
  </diagram>
  <diagram name="第 4 页" id="InuF0d1Kw0UAIa3rO8Iq">
    <mxGraphModel dx="2868" dy="2276" grid="0" gridSize="10" guides="1" tooltips="1" connect="1" arrows="1" fold="1" page="0" pageScale="1" pageWidth="827" pageHeight="1169" math="0" shadow="0">
      <root>
        <mxCell id="rTIstRNz8TZwAmsyW3x4-0" />
        <mxCell id="rTIstRNz8TZwAmsyW3x4-1" parent="rTIstRNz8TZwAmsyW3x4-0" />
        <mxCell id="rTIstRNz8TZwAmsyW3x4-11" value="key=3&lt;br&gt;value=A" style="text;strokeColor=#82b366;fillColor=#d5e8d4;align=center;verticalAlign=middle;spacingLeft=4;spacingRight=4;overflow=hidden;points=[[0,0.5],[1,0.5]];portConstraint=eastwest;rotatable=0;whiteSpace=wrap;html=1;" vertex="1" parent="rTIstRNz8TZwAmsyW3x4-1">
          <mxGeometry x="679" y="264" width="140" height="30" as="geometry" />
        </mxCell>
        <mxCell id="rTIstRNz8TZwAmsyW3x4-13" value="key=7&lt;br&gt;value=B" style="text;strokeColor=#6c8ebf;fillColor=#dae8fc;align=center;verticalAlign=middle;spacingLeft=4;spacingRight=4;overflow=hidden;points=[[0,0.5],[1,0.5]];portConstraint=eastwest;rotatable=0;whiteSpace=wrap;html=1;" vertex="1" parent="rTIstRNz8TZwAmsyW3x4-1">
          <mxGeometry x="899" y="264" width="140" height="30" as="geometry" />
        </mxCell>
        <mxCell id="rTIstRNz8TZwAmsyW3x4-15" value="e" style="text;html=1;align=center;verticalAlign=middle;whiteSpace=wrap;rounded=0;" vertex="1" parent="rTIstRNz8TZwAmsyW3x4-1">
          <mxGeometry x="661" y="217" width="60" height="30" as="geometry" />
        </mxCell>
        <mxCell id="rTIstRNz8TZwAmsyW3x4-16" value="next" style="text;html=1;align=center;verticalAlign=middle;whiteSpace=wrap;rounded=0;" vertex="1" parent="rTIstRNz8TZwAmsyW3x4-1">
          <mxGeometry x="872" y="217" width="60" height="30" as="geometry" />
        </mxCell>
        <mxCell id="rTIstRNz8TZwAmsyW3x4-17" value="" style="endArrow=classic;html=1;rounded=0;dashed=1;exitX=0.75;exitY=1;exitDx=0;exitDy=0;" edge="1" parent="rTIstRNz8TZwAmsyW3x4-1" source="rTIstRNz8TZwAmsyW3x4-15" target="rTIstRNz8TZwAmsyW3x4-11">
          <mxGeometry width="50" height="50" relative="1" as="geometry">
            <mxPoint x="701" y="231" as="sourcePoint" />
            <mxPoint x="727" y="267" as="targetPoint" />
          </mxGeometry>
        </mxCell>
        <mxCell id="rTIstRNz8TZwAmsyW3x4-18" value="" style="endArrow=classic;html=1;rounded=0;dashed=1;entryX=0.463;entryY=0.02;entryDx=0;entryDy=0;entryPerimeter=0;" edge="1" parent="rTIstRNz8TZwAmsyW3x4-1" source="rTIstRNz8TZwAmsyW3x4-16" target="rTIstRNz8TZwAmsyW3x4-13">
          <mxGeometry width="50" height="50" relative="1" as="geometry">
            <mxPoint x="711" y="241" as="sourcePoint" />
            <mxPoint x="737" y="277" as="targetPoint" />
          </mxGeometry>
        </mxCell>
        <mxCell id="rTIstRNz8TZwAmsyW3x4-19" value="" style="edgeStyle=orthogonalEdgeStyle;rounded=0;orthogonalLoop=1;jettySize=auto;html=1;entryX=0;entryY=0.5;entryDx=0;entryDy=0;" edge="1" parent="rTIstRNz8TZwAmsyW3x4-1" source="rTIstRNz8TZwAmsyW3x4-20" target="rTIstRNz8TZwAmsyW3x4-37">
          <mxGeometry relative="1" as="geometry">
            <mxPoint x="297" y="290" as="targetPoint" />
          </mxGeometry>
        </mxCell>
        <mxCell id="rTIstRNz8TZwAmsyW3x4-20" value="1" style="text;strokeColor=#d6b656;fillColor=#fff2cc;align=center;verticalAlign=middle;spacingLeft=4;spacingRight=4;overflow=hidden;points=[[0,0.5],[1,0.5]];portConstraint=eastwest;rotatable=0;whiteSpace=wrap;html=1;" vertex="1" parent="rTIstRNz8TZwAmsyW3x4-1">
          <mxGeometry x="77" y="275" width="140" height="30" as="geometry" />
        </mxCell>
        <mxCell id="rTIstRNz8TZwAmsyW3x4-21" value="0" style="text;strokeColor=#d6b656;fillColor=#fff2cc;align=center;verticalAlign=middle;spacingLeft=4;spacingRight=4;overflow=hidden;points=[[0,0.5],[1,0.5]];portConstraint=eastwest;rotatable=0;whiteSpace=wrap;html=1;" vertex="1" parent="rTIstRNz8TZwAmsyW3x4-1">
          <mxGeometry x="77" y="245" width="140" height="30" as="geometry" />
        </mxCell>
        <mxCell id="rTIstRNz8TZwAmsyW3x4-23" value="2" style="text;strokeColor=#b85450;fillColor=#f8cecc;align=center;verticalAlign=middle;spacingLeft=4;spacingRight=4;overflow=hidden;points=[[0,0.5],[1,0.5]];portConstraint=eastwest;rotatable=0;whiteSpace=wrap;html=1;" vertex="1" parent="rTIstRNz8TZwAmsyW3x4-1">
          <mxGeometry x="77" y="435" width="140" height="30" as="geometry" />
        </mxCell>
        <mxCell id="rTIstRNz8TZwAmsyW3x4-24" value="" style="edgeStyle=orthogonalEdgeStyle;rounded=0;orthogonalLoop=1;jettySize=auto;html=1;" edge="1" parent="rTIstRNz8TZwAmsyW3x4-1" source="rTIstRNz8TZwAmsyW3x4-25" target="rTIstRNz8TZwAmsyW3x4-30">
          <mxGeometry relative="1" as="geometry" />
        </mxCell>
        <mxCell id="rTIstRNz8TZwAmsyW3x4-25" value="1" style="text;strokeColor=#b85450;fillColor=#f8cecc;align=center;verticalAlign=middle;spacingLeft=4;spacingRight=4;overflow=hidden;points=[[0,0.5],[1,0.5]];portConstraint=eastwest;rotatable=0;whiteSpace=wrap;html=1;" vertex="1" parent="rTIstRNz8TZwAmsyW3x4-1">
          <mxGeometry x="77" y="405" width="140" height="30" as="geometry" />
        </mxCell>
        <mxCell id="rTIstRNz8TZwAmsyW3x4-26" value="0" style="text;strokeColor=#b85450;fillColor=#f8cecc;align=center;verticalAlign=middle;spacingLeft=4;spacingRight=4;overflow=hidden;points=[[0,0.5],[1,0.5]];portConstraint=eastwest;rotatable=0;whiteSpace=wrap;html=1;" vertex="1" parent="rTIstRNz8TZwAmsyW3x4-1">
          <mxGeometry x="77" y="375" width="140" height="30" as="geometry" />
        </mxCell>
        <mxCell id="rTIstRNz8TZwAmsyW3x4-27" value="" style="edgeStyle=orthogonalEdgeStyle;rounded=0;orthogonalLoop=1;jettySize=auto;html=1;" edge="1" parent="rTIstRNz8TZwAmsyW3x4-1" source="rTIstRNz8TZwAmsyW3x4-28" target="rTIstRNz8TZwAmsyW3x4-33">
          <mxGeometry relative="1" as="geometry" />
        </mxCell>
        <mxCell id="rTIstRNz8TZwAmsyW3x4-28" value="3" style="text;strokeColor=#b85450;fillColor=#f8cecc;align=center;verticalAlign=middle;spacingLeft=4;spacingRight=4;overflow=hidden;points=[[0,0.5],[1,0.5]];portConstraint=eastwest;rotatable=0;whiteSpace=wrap;html=1;" vertex="1" parent="rTIstRNz8TZwAmsyW3x4-1">
          <mxGeometry x="77" y="465" width="140" height="30" as="geometry" />
        </mxCell>
        <mxCell id="rTIstRNz8TZwAmsyW3x4-29" value="" style="edgeStyle=orthogonalEdgeStyle;rounded=0;orthogonalLoop=1;jettySize=auto;html=1;" edge="1" parent="rTIstRNz8TZwAmsyW3x4-1" source="rTIstRNz8TZwAmsyW3x4-30" target="rTIstRNz8TZwAmsyW3x4-31">
          <mxGeometry relative="1" as="geometry" />
        </mxCell>
        <mxCell id="rTIstRNz8TZwAmsyW3x4-30" value="key=5&lt;br&gt;value=C" style="text;strokeColor=#36393d;fillColor=#f9f7ed;align=center;verticalAlign=middle;spacingLeft=4;spacingRight=4;overflow=hidden;points=[[0,0.5],[1,0.5]];portConstraint=eastwest;rotatable=0;whiteSpace=wrap;html=1;" vertex="1" parent="rTIstRNz8TZwAmsyW3x4-1">
          <mxGeometry x="297" y="405" width="140" height="30" as="geometry" />
        </mxCell>
        <mxCell id="rTIstRNz8TZwAmsyW3x4-31" value="null" style="text;strokeColor=default;fillColor=none;align=center;verticalAlign=middle;spacingLeft=4;spacingRight=4;overflow=hidden;points=[[0,0.5],[1,0.5]];portConstraint=eastwest;rotatable=0;whiteSpace=wrap;html=1;" vertex="1" parent="rTIstRNz8TZwAmsyW3x4-1">
          <mxGeometry x="517" y="405" width="140" height="30" as="geometry" />
        </mxCell>
        <mxCell id="rTIstRNz8TZwAmsyW3x4-32" value="" style="edgeStyle=orthogonalEdgeStyle;rounded=0;orthogonalLoop=1;jettySize=auto;html=1;" edge="1" parent="rTIstRNz8TZwAmsyW3x4-1" source="rTIstRNz8TZwAmsyW3x4-33" target="rTIstRNz8TZwAmsyW3x4-35">
          <mxGeometry relative="1" as="geometry" />
        </mxCell>
        <mxCell id="rTIstRNz8TZwAmsyW3x4-33" value="key=7&lt;br&gt;value=B" style="text;strokeColor=#6c8ebf;fillColor=#dae8fc;align=center;verticalAlign=middle;spacingLeft=4;spacingRight=4;overflow=hidden;points=[[0,0.5],[1,0.5]];portConstraint=eastwest;rotatable=0;whiteSpace=wrap;html=1;" vertex="1" parent="rTIstRNz8TZwAmsyW3x4-1">
          <mxGeometry x="297" y="465" width="140" height="30" as="geometry" />
        </mxCell>
        <mxCell id="rTIstRNz8TZwAmsyW3x4-35" value="key=3&lt;br&gt;value=A" style="text;strokeColor=#82b366;fillColor=#d5e8d4;align=center;verticalAlign=middle;spacingLeft=4;spacingRight=4;overflow=hidden;points=[[0,0.5],[1,0.5]];portConstraint=eastwest;rotatable=0;whiteSpace=wrap;html=1;" vertex="1" parent="rTIstRNz8TZwAmsyW3x4-1">
          <mxGeometry x="517" y="465" width="140" height="30" as="geometry" />
        </mxCell>
        <mxCell id="rTIstRNz8TZwAmsyW3x4-37" value="null" style="text;strokeColor=default;fillColor=none;align=center;verticalAlign=middle;spacingLeft=4;spacingRight=4;overflow=hidden;points=[[0,0.5],[1,0.5]];portConstraint=eastwest;rotatable=0;whiteSpace=wrap;html=1;" vertex="1" parent="rTIstRNz8TZwAmsyW3x4-1">
          <mxGeometry x="297" y="275" width="140" height="30" as="geometry" />
        </mxCell>
        <mxCell id="rTIstRNz8TZwAmsyW3x4-39" value="线程1释放断点，完成第一轮循环" style="text;html=1;align=center;verticalAlign=middle;whiteSpace=wrap;rounded=0;fillColor=#fad7ac;strokeColor=#b46504;" vertex="1" parent="rTIstRNz8TZwAmsyW3x4-1">
          <mxGeometry x="77" y="-454" width="372" height="30" as="geometry" />
        </mxCell>
        <mxCell id="rTIstRNz8TZwAmsyW3x4-40" value="执行e.next = newTable[i];" style="text;html=1;align=center;verticalAlign=middle;whiteSpace=wrap;rounded=0;fillColor=#e3c800;fontColor=#000000;strokeColor=#B09500;" vertex="1" parent="rTIstRNz8TZwAmsyW3x4-1">
          <mxGeometry x="577" y="139" width="364" height="30" as="geometry" />
        </mxCell>
        <mxCell id="rTIstRNz8TZwAmsyW3x4-78" value="执行newTable[i] = e;" style="text;html=1;align=center;verticalAlign=middle;whiteSpace=wrap;rounded=0;fillColor=#e3c800;fontColor=#000000;strokeColor=#B09500;" vertex="1" parent="rTIstRNz8TZwAmsyW3x4-1">
          <mxGeometry x="577" y="729" width="364" height="30" as="geometry" />
        </mxCell>
        <mxCell id="rTIstRNz8TZwAmsyW3x4-116" value="执行e = next;" style="text;html=1;align=center;verticalAlign=middle;whiteSpace=wrap;rounded=0;fillColor=#e3c800;fontColor=#000000;strokeColor=#B09500;" vertex="1" parent="rTIstRNz8TZwAmsyW3x4-1">
          <mxGeometry x="577" y="1293" width="364" height="30" as="geometry" />
        </mxCell>
        <mxCell id="D5diXRLGfrlUcf5wcsP--24" value="key=3&lt;br&gt;value=A" style="text;strokeColor=#82b366;fillColor=#d5e8d4;align=center;verticalAlign=middle;spacingLeft=4;spacingRight=4;overflow=hidden;points=[[0,0.5],[1,0.5]];portConstraint=eastwest;rotatable=0;whiteSpace=wrap;html=1;" vertex="1" parent="rTIstRNz8TZwAmsyW3x4-1">
          <mxGeometry x="679" y="864" width="140" height="30" as="geometry" />
        </mxCell>
        <mxCell id="D5diXRLGfrlUcf5wcsP--25" value="key=7&lt;br&gt;value=B" style="text;strokeColor=#6c8ebf;fillColor=#dae8fc;align=center;verticalAlign=middle;spacingLeft=4;spacingRight=4;overflow=hidden;points=[[0,0.5],[1,0.5]];portConstraint=eastwest;rotatable=0;whiteSpace=wrap;html=1;" vertex="1" parent="rTIstRNz8TZwAmsyW3x4-1">
          <mxGeometry x="899" y="864" width="140" height="30" as="geometry" />
        </mxCell>
        <mxCell id="D5diXRLGfrlUcf5wcsP--26" value="e" style="text;html=1;align=center;verticalAlign=middle;whiteSpace=wrap;rounded=0;" vertex="1" parent="rTIstRNz8TZwAmsyW3x4-1">
          <mxGeometry x="661" y="817" width="60" height="30" as="geometry" />
        </mxCell>
        <mxCell id="D5diXRLGfrlUcf5wcsP--27" value="next" style="text;html=1;align=center;verticalAlign=middle;whiteSpace=wrap;rounded=0;" vertex="1" parent="rTIstRNz8TZwAmsyW3x4-1">
          <mxGeometry x="872" y="817" width="60" height="30" as="geometry" />
        </mxCell>
        <mxCell id="D5diXRLGfrlUcf5wcsP--28" value="" style="endArrow=classic;html=1;rounded=0;dashed=1;exitX=0.75;exitY=1;exitDx=0;exitDy=0;" edge="1" source="D5diXRLGfrlUcf5wcsP--26" target="D5diXRLGfrlUcf5wcsP--24" parent="rTIstRNz8TZwAmsyW3x4-1">
          <mxGeometry width="50" height="50" relative="1" as="geometry">
            <mxPoint x="701" y="831" as="sourcePoint" />
            <mxPoint x="727" y="867" as="targetPoint" />
          </mxGeometry>
        </mxCell>
        <mxCell id="D5diXRLGfrlUcf5wcsP--29" value="" style="endArrow=classic;html=1;rounded=0;dashed=1;entryX=0.463;entryY=0.02;entryDx=0;entryDy=0;entryPerimeter=0;" edge="1" source="D5diXRLGfrlUcf5wcsP--27" target="D5diXRLGfrlUcf5wcsP--25" parent="rTIstRNz8TZwAmsyW3x4-1">
          <mxGeometry width="50" height="50" relative="1" as="geometry">
            <mxPoint x="711" y="841" as="sourcePoint" />
            <mxPoint x="737" y="877" as="targetPoint" />
          </mxGeometry>
        </mxCell>
        <mxCell id="D5diXRLGfrlUcf5wcsP--30" value="" style="edgeStyle=orthogonalEdgeStyle;rounded=0;orthogonalLoop=1;jettySize=auto;html=1;entryX=0;entryY=0.5;entryDx=0;entryDy=0;" edge="1" source="D5diXRLGfrlUcf5wcsP--31" target="D5diXRLGfrlUcf5wcsP--46" parent="rTIstRNz8TZwAmsyW3x4-1">
          <mxGeometry relative="1" as="geometry">
            <mxPoint x="297" y="890" as="targetPoint" />
          </mxGeometry>
        </mxCell>
        <mxCell id="D5diXRLGfrlUcf5wcsP--31" value="1" style="text;strokeColor=#d6b656;fillColor=#fff2cc;align=center;verticalAlign=middle;spacingLeft=4;spacingRight=4;overflow=hidden;points=[[0,0.5],[1,0.5]];portConstraint=eastwest;rotatable=0;whiteSpace=wrap;html=1;" vertex="1" parent="rTIstRNz8TZwAmsyW3x4-1">
          <mxGeometry x="77" y="875" width="140" height="30" as="geometry" />
        </mxCell>
        <mxCell id="D5diXRLGfrlUcf5wcsP--32" value="0" style="text;strokeColor=#d6b656;fillColor=#fff2cc;align=center;verticalAlign=middle;spacingLeft=4;spacingRight=4;overflow=hidden;points=[[0,0.5],[1,0.5]];portConstraint=eastwest;rotatable=0;whiteSpace=wrap;html=1;" vertex="1" parent="rTIstRNz8TZwAmsyW3x4-1">
          <mxGeometry x="77" y="845" width="140" height="30" as="geometry" />
        </mxCell>
        <mxCell id="D5diXRLGfrlUcf5wcsP--33" value="2" style="text;strokeColor=#b85450;fillColor=#f8cecc;align=center;verticalAlign=middle;spacingLeft=4;spacingRight=4;overflow=hidden;points=[[0,0.5],[1,0.5]];portConstraint=eastwest;rotatable=0;whiteSpace=wrap;html=1;" vertex="1" parent="rTIstRNz8TZwAmsyW3x4-1">
          <mxGeometry x="77" y="1035" width="140" height="30" as="geometry" />
        </mxCell>
        <mxCell id="D5diXRLGfrlUcf5wcsP--34" value="" style="edgeStyle=orthogonalEdgeStyle;rounded=0;orthogonalLoop=1;jettySize=auto;html=1;" edge="1" source="D5diXRLGfrlUcf5wcsP--35" target="D5diXRLGfrlUcf5wcsP--40" parent="rTIstRNz8TZwAmsyW3x4-1">
          <mxGeometry relative="1" as="geometry" />
        </mxCell>
        <mxCell id="D5diXRLGfrlUcf5wcsP--35" value="1" style="text;strokeColor=#b85450;fillColor=#f8cecc;align=center;verticalAlign=middle;spacingLeft=4;spacingRight=4;overflow=hidden;points=[[0,0.5],[1,0.5]];portConstraint=eastwest;rotatable=0;whiteSpace=wrap;html=1;" vertex="1" parent="rTIstRNz8TZwAmsyW3x4-1">
          <mxGeometry x="77" y="1005" width="140" height="30" as="geometry" />
        </mxCell>
        <mxCell id="D5diXRLGfrlUcf5wcsP--36" value="0" style="text;strokeColor=#b85450;fillColor=#f8cecc;align=center;verticalAlign=middle;spacingLeft=4;spacingRight=4;overflow=hidden;points=[[0,0.5],[1,0.5]];portConstraint=eastwest;rotatable=0;whiteSpace=wrap;html=1;" vertex="1" parent="rTIstRNz8TZwAmsyW3x4-1">
          <mxGeometry x="77" y="975" width="140" height="30" as="geometry" />
        </mxCell>
        <mxCell id="D5diXRLGfrlUcf5wcsP--49" style="edgeStyle=orthogonalEdgeStyle;rounded=0;orthogonalLoop=1;jettySize=auto;html=1;entryX=0;entryY=0.5;entryDx=0;entryDy=0;" edge="1" parent="rTIstRNz8TZwAmsyW3x4-1" source="D5diXRLGfrlUcf5wcsP--38" target="D5diXRLGfrlUcf5wcsP--45">
          <mxGeometry relative="1" as="geometry" />
        </mxCell>
        <mxCell id="D5diXRLGfrlUcf5wcsP--38" value="3" style="text;strokeColor=#b85450;fillColor=#f8cecc;align=center;verticalAlign=middle;spacingLeft=4;spacingRight=4;overflow=hidden;points=[[0,0.5],[1,0.5]];portConstraint=eastwest;rotatable=0;whiteSpace=wrap;html=1;" vertex="1" parent="rTIstRNz8TZwAmsyW3x4-1">
          <mxGeometry x="77" y="1065" width="140" height="30" as="geometry" />
        </mxCell>
        <mxCell id="D5diXRLGfrlUcf5wcsP--39" value="" style="edgeStyle=orthogonalEdgeStyle;rounded=0;orthogonalLoop=1;jettySize=auto;html=1;" edge="1" source="D5diXRLGfrlUcf5wcsP--40" target="D5diXRLGfrlUcf5wcsP--41" parent="rTIstRNz8TZwAmsyW3x4-1">
          <mxGeometry relative="1" as="geometry" />
        </mxCell>
        <mxCell id="D5diXRLGfrlUcf5wcsP--40" value="key=5&lt;br&gt;value=C" style="text;strokeColor=#36393d;fillColor=#f9f7ed;align=center;verticalAlign=middle;spacingLeft=4;spacingRight=4;overflow=hidden;points=[[0,0.5],[1,0.5]];portConstraint=eastwest;rotatable=0;whiteSpace=wrap;html=1;" vertex="1" parent="rTIstRNz8TZwAmsyW3x4-1">
          <mxGeometry x="297" y="1005" width="140" height="30" as="geometry" />
        </mxCell>
        <mxCell id="D5diXRLGfrlUcf5wcsP--41" value="null" style="text;strokeColor=default;fillColor=none;align=center;verticalAlign=middle;spacingLeft=4;spacingRight=4;overflow=hidden;points=[[0,0.5],[1,0.5]];portConstraint=eastwest;rotatable=0;whiteSpace=wrap;html=1;" vertex="1" parent="rTIstRNz8TZwAmsyW3x4-1">
          <mxGeometry x="517" y="1005" width="140" height="30" as="geometry" />
        </mxCell>
        <mxCell id="D5diXRLGfrlUcf5wcsP--43" value="key=7&lt;br&gt;value=B" style="text;strokeColor=#6c8ebf;fillColor=#dae8fc;align=center;verticalAlign=middle;spacingLeft=4;spacingRight=4;overflow=hidden;points=[[0,0.5],[1,0.5]];portConstraint=eastwest;rotatable=0;whiteSpace=wrap;html=1;" vertex="1" parent="rTIstRNz8TZwAmsyW3x4-1">
          <mxGeometry x="517" y="1065" width="140" height="30" as="geometry" />
        </mxCell>
        <mxCell id="D5diXRLGfrlUcf5wcsP--50" style="edgeStyle=orthogonalEdgeStyle;rounded=0;orthogonalLoop=1;jettySize=auto;html=1;" edge="1" parent="rTIstRNz8TZwAmsyW3x4-1" source="D5diXRLGfrlUcf5wcsP--45" target="D5diXRLGfrlUcf5wcsP--43">
          <mxGeometry relative="1" as="geometry" />
        </mxCell>
        <mxCell id="D5diXRLGfrlUcf5wcsP--45" value="key=3&lt;br&gt;value=A" style="text;strokeColor=#82b366;fillColor=#d5e8d4;align=center;verticalAlign=middle;spacingLeft=4;spacingRight=4;overflow=hidden;points=[[0,0.5],[1,0.5]];portConstraint=eastwest;rotatable=0;whiteSpace=wrap;html=1;" vertex="1" parent="rTIstRNz8TZwAmsyW3x4-1">
          <mxGeometry x="297" y="1065" width="140" height="30" as="geometry" />
        </mxCell>
        <mxCell id="D5diXRLGfrlUcf5wcsP--46" value="null" style="text;strokeColor=default;fillColor=none;align=center;verticalAlign=middle;spacingLeft=4;spacingRight=4;overflow=hidden;points=[[0,0.5],[1,0.5]];portConstraint=eastwest;rotatable=0;whiteSpace=wrap;html=1;" vertex="1" parent="rTIstRNz8TZwAmsyW3x4-1">
          <mxGeometry x="297" y="875" width="140" height="30" as="geometry" />
        </mxCell>
        <mxCell id="D5diXRLGfrlUcf5wcsP--48" style="edgeStyle=orthogonalEdgeStyle;rounded=0;orthogonalLoop=1;jettySize=auto;html=1;entryX=0.479;entryY=0.967;entryDx=0;entryDy=0;entryPerimeter=0;" edge="1" parent="rTIstRNz8TZwAmsyW3x4-1" source="rTIstRNz8TZwAmsyW3x4-35" target="rTIstRNz8TZwAmsyW3x4-33">
          <mxGeometry relative="1" as="geometry">
            <Array as="points">
              <mxPoint x="587" y="544" />
              <mxPoint x="364" y="544" />
            </Array>
          </mxGeometry>
        </mxCell>
        <mxCell id="D5diXRLGfrlUcf5wcsP--51" style="edgeStyle=orthogonalEdgeStyle;rounded=0;orthogonalLoop=1;jettySize=auto;html=1;entryX=0.5;entryY=1.033;entryDx=0;entryDy=0;entryPerimeter=0;" edge="1" parent="rTIstRNz8TZwAmsyW3x4-1" source="D5diXRLGfrlUcf5wcsP--43" target="D5diXRLGfrlUcf5wcsP--45">
          <mxGeometry relative="1" as="geometry">
            <Array as="points">
              <mxPoint x="590" y="1150" />
              <mxPoint x="367" y="1150" />
            </Array>
          </mxGeometry>
        </mxCell>
        <mxCell id="D5diXRLGfrlUcf5wcsP--53" value="key=7&lt;br&gt;value=B" style="text;strokeColor=#6c8ebf;fillColor=#dae8fc;align=center;verticalAlign=middle;spacingLeft=4;spacingRight=4;overflow=hidden;points=[[0,0.5],[1,0.5]];portConstraint=eastwest;rotatable=0;whiteSpace=wrap;html=1;" vertex="1" parent="rTIstRNz8TZwAmsyW3x4-1">
          <mxGeometry x="692.5" y="1451.5" width="140" height="30" as="geometry" />
        </mxCell>
        <mxCell id="D5diXRLGfrlUcf5wcsP--55" value="e" style="text;html=1;align=center;verticalAlign=middle;whiteSpace=wrap;rounded=0;" vertex="1" parent="rTIstRNz8TZwAmsyW3x4-1">
          <mxGeometry x="665.5" y="1404.5" width="60" height="30" as="geometry" />
        </mxCell>
        <mxCell id="D5diXRLGfrlUcf5wcsP--57" value="" style="endArrow=classic;html=1;rounded=0;dashed=1;entryX=0.463;entryY=0.02;entryDx=0;entryDy=0;entryPerimeter=0;" edge="1" source="D5diXRLGfrlUcf5wcsP--55" target="D5diXRLGfrlUcf5wcsP--53" parent="rTIstRNz8TZwAmsyW3x4-1">
          <mxGeometry width="50" height="50" relative="1" as="geometry">
            <mxPoint x="504.5" y="1428.5" as="sourcePoint" />
            <mxPoint x="530.5" y="1464.5" as="targetPoint" />
          </mxGeometry>
        </mxCell>
        <mxCell id="D5diXRLGfrlUcf5wcsP--58" value="" style="edgeStyle=orthogonalEdgeStyle;rounded=0;orthogonalLoop=1;jettySize=auto;html=1;entryX=0;entryY=0.5;entryDx=0;entryDy=0;" edge="1" source="D5diXRLGfrlUcf5wcsP--59" target="D5diXRLGfrlUcf5wcsP--73" parent="rTIstRNz8TZwAmsyW3x4-1">
          <mxGeometry relative="1" as="geometry">
            <mxPoint x="297" y="1473" as="targetPoint" />
          </mxGeometry>
        </mxCell>
        <mxCell id="D5diXRLGfrlUcf5wcsP--59" value="1" style="text;strokeColor=#d6b656;fillColor=#fff2cc;align=center;verticalAlign=middle;spacingLeft=4;spacingRight=4;overflow=hidden;points=[[0,0.5],[1,0.5]];portConstraint=eastwest;rotatable=0;whiteSpace=wrap;html=1;" vertex="1" parent="rTIstRNz8TZwAmsyW3x4-1">
          <mxGeometry x="77" y="1458" width="140" height="30" as="geometry" />
        </mxCell>
        <mxCell id="D5diXRLGfrlUcf5wcsP--60" value="0" style="text;strokeColor=#d6b656;fillColor=#fff2cc;align=center;verticalAlign=middle;spacingLeft=4;spacingRight=4;overflow=hidden;points=[[0,0.5],[1,0.5]];portConstraint=eastwest;rotatable=0;whiteSpace=wrap;html=1;" vertex="1" parent="rTIstRNz8TZwAmsyW3x4-1">
          <mxGeometry x="77" y="1428" width="140" height="30" as="geometry" />
        </mxCell>
        <mxCell id="D5diXRLGfrlUcf5wcsP--61" value="2" style="text;strokeColor=#b85450;fillColor=#f8cecc;align=center;verticalAlign=middle;spacingLeft=4;spacingRight=4;overflow=hidden;points=[[0,0.5],[1,0.5]];portConstraint=eastwest;rotatable=0;whiteSpace=wrap;html=1;" vertex="1" parent="rTIstRNz8TZwAmsyW3x4-1">
          <mxGeometry x="77" y="1618" width="140" height="30" as="geometry" />
        </mxCell>
        <mxCell id="D5diXRLGfrlUcf5wcsP--62" value="" style="edgeStyle=orthogonalEdgeStyle;rounded=0;orthogonalLoop=1;jettySize=auto;html=1;" edge="1" source="D5diXRLGfrlUcf5wcsP--63" target="D5diXRLGfrlUcf5wcsP--68" parent="rTIstRNz8TZwAmsyW3x4-1">
          <mxGeometry relative="1" as="geometry" />
        </mxCell>
        <mxCell id="D5diXRLGfrlUcf5wcsP--63" value="1" style="text;strokeColor=#b85450;fillColor=#f8cecc;align=center;verticalAlign=middle;spacingLeft=4;spacingRight=4;overflow=hidden;points=[[0,0.5],[1,0.5]];portConstraint=eastwest;rotatable=0;whiteSpace=wrap;html=1;" vertex="1" parent="rTIstRNz8TZwAmsyW3x4-1">
          <mxGeometry x="77" y="1588" width="140" height="30" as="geometry" />
        </mxCell>
        <mxCell id="D5diXRLGfrlUcf5wcsP--64" value="0" style="text;strokeColor=#b85450;fillColor=#f8cecc;align=center;verticalAlign=middle;spacingLeft=4;spacingRight=4;overflow=hidden;points=[[0,0.5],[1,0.5]];portConstraint=eastwest;rotatable=0;whiteSpace=wrap;html=1;" vertex="1" parent="rTIstRNz8TZwAmsyW3x4-1">
          <mxGeometry x="77" y="1558" width="140" height="30" as="geometry" />
        </mxCell>
        <mxCell id="D5diXRLGfrlUcf5wcsP--65" style="edgeStyle=orthogonalEdgeStyle;rounded=0;orthogonalLoop=1;jettySize=auto;html=1;entryX=0;entryY=0.5;entryDx=0;entryDy=0;" edge="1" source="D5diXRLGfrlUcf5wcsP--66" target="D5diXRLGfrlUcf5wcsP--72" parent="rTIstRNz8TZwAmsyW3x4-1">
          <mxGeometry relative="1" as="geometry" />
        </mxCell>
        <mxCell id="D5diXRLGfrlUcf5wcsP--66" value="3" style="text;strokeColor=#b85450;fillColor=#f8cecc;align=center;verticalAlign=middle;spacingLeft=4;spacingRight=4;overflow=hidden;points=[[0,0.5],[1,0.5]];portConstraint=eastwest;rotatable=0;whiteSpace=wrap;html=1;" vertex="1" parent="rTIstRNz8TZwAmsyW3x4-1">
          <mxGeometry x="77" y="1648" width="140" height="30" as="geometry" />
        </mxCell>
        <mxCell id="D5diXRLGfrlUcf5wcsP--67" value="" style="edgeStyle=orthogonalEdgeStyle;rounded=0;orthogonalLoop=1;jettySize=auto;html=1;" edge="1" source="D5diXRLGfrlUcf5wcsP--68" target="D5diXRLGfrlUcf5wcsP--69" parent="rTIstRNz8TZwAmsyW3x4-1">
          <mxGeometry relative="1" as="geometry" />
        </mxCell>
        <mxCell id="D5diXRLGfrlUcf5wcsP--68" value="key=5&lt;br&gt;value=C" style="text;strokeColor=#36393d;fillColor=#f9f7ed;align=center;verticalAlign=middle;spacingLeft=4;spacingRight=4;overflow=hidden;points=[[0,0.5],[1,0.5]];portConstraint=eastwest;rotatable=0;whiteSpace=wrap;html=1;" vertex="1" parent="rTIstRNz8TZwAmsyW3x4-1">
          <mxGeometry x="297" y="1588" width="140" height="30" as="geometry" />
        </mxCell>
        <mxCell id="D5diXRLGfrlUcf5wcsP--69" value="null" style="text;strokeColor=default;fillColor=none;align=center;verticalAlign=middle;spacingLeft=4;spacingRight=4;overflow=hidden;points=[[0,0.5],[1,0.5]];portConstraint=eastwest;rotatable=0;whiteSpace=wrap;html=1;" vertex="1" parent="rTIstRNz8TZwAmsyW3x4-1">
          <mxGeometry x="517" y="1588" width="140" height="30" as="geometry" />
        </mxCell>
        <mxCell id="D5diXRLGfrlUcf5wcsP--70" value="key=7&lt;br&gt;value=B" style="text;strokeColor=#6c8ebf;fillColor=#dae8fc;align=center;verticalAlign=middle;spacingLeft=4;spacingRight=4;overflow=hidden;points=[[0,0.5],[1,0.5]];portConstraint=eastwest;rotatable=0;whiteSpace=wrap;html=1;" vertex="1" parent="rTIstRNz8TZwAmsyW3x4-1">
          <mxGeometry x="517" y="1648" width="140" height="30" as="geometry" />
        </mxCell>
        <mxCell id="D5diXRLGfrlUcf5wcsP--71" style="edgeStyle=orthogonalEdgeStyle;rounded=0;orthogonalLoop=1;jettySize=auto;html=1;" edge="1" source="D5diXRLGfrlUcf5wcsP--72" target="D5diXRLGfrlUcf5wcsP--70" parent="rTIstRNz8TZwAmsyW3x4-1">
          <mxGeometry relative="1" as="geometry" />
        </mxCell>
        <mxCell id="D5diXRLGfrlUcf5wcsP--72" value="key=3&lt;br&gt;value=A" style="text;strokeColor=#82b366;fillColor=#d5e8d4;align=center;verticalAlign=middle;spacingLeft=4;spacingRight=4;overflow=hidden;points=[[0,0.5],[1,0.5]];portConstraint=eastwest;rotatable=0;whiteSpace=wrap;html=1;" vertex="1" parent="rTIstRNz8TZwAmsyW3x4-1">
          <mxGeometry x="297" y="1648" width="140" height="30" as="geometry" />
        </mxCell>
        <mxCell id="D5diXRLGfrlUcf5wcsP--73" value="null" style="text;strokeColor=default;fillColor=none;align=center;verticalAlign=middle;spacingLeft=4;spacingRight=4;overflow=hidden;points=[[0,0.5],[1,0.5]];portConstraint=eastwest;rotatable=0;whiteSpace=wrap;html=1;" vertex="1" parent="rTIstRNz8TZwAmsyW3x4-1">
          <mxGeometry x="297" y="1458" width="140" height="30" as="geometry" />
        </mxCell>
        <mxCell id="D5diXRLGfrlUcf5wcsP--74" style="edgeStyle=orthogonalEdgeStyle;rounded=0;orthogonalLoop=1;jettySize=auto;html=1;entryX=0.5;entryY=1.033;entryDx=0;entryDy=0;entryPerimeter=0;" edge="1" source="D5diXRLGfrlUcf5wcsP--70" target="D5diXRLGfrlUcf5wcsP--72" parent="rTIstRNz8TZwAmsyW3x4-1">
          <mxGeometry relative="1" as="geometry">
            <Array as="points">
              <mxPoint x="590" y="1733" />
              <mxPoint x="367" y="1733" />
            </Array>
          </mxGeometry>
        </mxCell>
        <mxCell id="D5r7Z8lb2oxGzZCH14PY-18" value="" style="edgeStyle=orthogonalEdgeStyle;rounded=0;orthogonalLoop=1;jettySize=auto;html=1;entryX=0;entryY=0.5;entryDx=0;entryDy=0;" edge="1" parent="rTIstRNz8TZwAmsyW3x4-1" source="D5r7Z8lb2oxGzZCH14PY-19" target="D5r7Z8lb2oxGzZCH14PY-35">
          <mxGeometry relative="1" as="geometry">
            <mxPoint x="297" y="-248" as="targetPoint" />
          </mxGeometry>
        </mxCell>
        <mxCell id="D5r7Z8lb2oxGzZCH14PY-19" value="1" style="text;strokeColor=#d6b656;fillColor=#fff2cc;align=center;verticalAlign=middle;spacingLeft=4;spacingRight=4;overflow=hidden;points=[[0,0.5],[1,0.5]];portConstraint=eastwest;rotatable=0;whiteSpace=wrap;html=1;" vertex="1" parent="rTIstRNz8TZwAmsyW3x4-1">
          <mxGeometry x="77" y="-263" width="140" height="30" as="geometry" />
        </mxCell>
        <mxCell id="D5r7Z8lb2oxGzZCH14PY-20" value="0" style="text;strokeColor=#d6b656;fillColor=#fff2cc;align=center;verticalAlign=middle;spacingLeft=4;spacingRight=4;overflow=hidden;points=[[0,0.5],[1,0.5]];portConstraint=eastwest;rotatable=0;whiteSpace=wrap;html=1;" vertex="1" parent="rTIstRNz8TZwAmsyW3x4-1">
          <mxGeometry x="77" y="-293" width="140" height="30" as="geometry" />
        </mxCell>
        <mxCell id="D5r7Z8lb2oxGzZCH14PY-21" value="2" style="text;strokeColor=#b85450;fillColor=#f8cecc;align=center;verticalAlign=middle;spacingLeft=4;spacingRight=4;overflow=hidden;points=[[0,0.5],[1,0.5]];portConstraint=eastwest;rotatable=0;whiteSpace=wrap;html=1;" vertex="1" parent="rTIstRNz8TZwAmsyW3x4-1">
          <mxGeometry x="77" y="-103" width="140" height="30" as="geometry" />
        </mxCell>
        <mxCell id="D5r7Z8lb2oxGzZCH14PY-22" value="" style="edgeStyle=orthogonalEdgeStyle;rounded=0;orthogonalLoop=1;jettySize=auto;html=1;" edge="1" parent="rTIstRNz8TZwAmsyW3x4-1" source="D5r7Z8lb2oxGzZCH14PY-23" target="D5r7Z8lb2oxGzZCH14PY-28">
          <mxGeometry relative="1" as="geometry" />
        </mxCell>
        <mxCell id="D5r7Z8lb2oxGzZCH14PY-23" value="1" style="text;strokeColor=#b85450;fillColor=#f8cecc;align=center;verticalAlign=middle;spacingLeft=4;spacingRight=4;overflow=hidden;points=[[0,0.5],[1,0.5]];portConstraint=eastwest;rotatable=0;whiteSpace=wrap;html=1;" vertex="1" parent="rTIstRNz8TZwAmsyW3x4-1">
          <mxGeometry x="77" y="-133" width="140" height="30" as="geometry" />
        </mxCell>
        <mxCell id="D5r7Z8lb2oxGzZCH14PY-24" value="0" style="text;strokeColor=#b85450;fillColor=#f8cecc;align=center;verticalAlign=middle;spacingLeft=4;spacingRight=4;overflow=hidden;points=[[0,0.5],[1,0.5]];portConstraint=eastwest;rotatable=0;whiteSpace=wrap;html=1;" vertex="1" parent="rTIstRNz8TZwAmsyW3x4-1">
          <mxGeometry x="77" y="-163" width="140" height="30" as="geometry" />
        </mxCell>
        <mxCell id="D5r7Z8lb2oxGzZCH14PY-25" value="" style="edgeStyle=orthogonalEdgeStyle;rounded=0;orthogonalLoop=1;jettySize=auto;html=1;" edge="1" parent="rTIstRNz8TZwAmsyW3x4-1" source="D5r7Z8lb2oxGzZCH14PY-26" target="D5r7Z8lb2oxGzZCH14PY-31">
          <mxGeometry relative="1" as="geometry" />
        </mxCell>
        <mxCell id="D5r7Z8lb2oxGzZCH14PY-26" value="3" style="text;strokeColor=#b85450;fillColor=#f8cecc;align=center;verticalAlign=middle;spacingLeft=4;spacingRight=4;overflow=hidden;points=[[0,0.5],[1,0.5]];portConstraint=eastwest;rotatable=0;whiteSpace=wrap;html=1;" vertex="1" parent="rTIstRNz8TZwAmsyW3x4-1">
          <mxGeometry x="77" y="-73" width="140" height="30" as="geometry" />
        </mxCell>
        <mxCell id="D5r7Z8lb2oxGzZCH14PY-27" value="" style="edgeStyle=orthogonalEdgeStyle;rounded=0;orthogonalLoop=1;jettySize=auto;html=1;" edge="1" parent="rTIstRNz8TZwAmsyW3x4-1" source="D5r7Z8lb2oxGzZCH14PY-28" target="D5r7Z8lb2oxGzZCH14PY-29">
          <mxGeometry relative="1" as="geometry" />
        </mxCell>
        <mxCell id="D5r7Z8lb2oxGzZCH14PY-28" value="key=5&lt;br&gt;value=C" style="text;strokeColor=#36393d;fillColor=#f9f7ed;align=center;verticalAlign=middle;spacingLeft=4;spacingRight=4;overflow=hidden;points=[[0,0.5],[1,0.5]];portConstraint=eastwest;rotatable=0;whiteSpace=wrap;html=1;" vertex="1" parent="rTIstRNz8TZwAmsyW3x4-1">
          <mxGeometry x="297" y="-133" width="140" height="30" as="geometry" />
        </mxCell>
        <mxCell id="D5r7Z8lb2oxGzZCH14PY-29" value="null" style="text;strokeColor=default;fillColor=none;align=center;verticalAlign=middle;spacingLeft=4;spacingRight=4;overflow=hidden;points=[[0,0.5],[1,0.5]];portConstraint=eastwest;rotatable=0;whiteSpace=wrap;html=1;" vertex="1" parent="rTIstRNz8TZwAmsyW3x4-1">
          <mxGeometry x="517" y="-133" width="140" height="30" as="geometry" />
        </mxCell>
        <mxCell id="D5r7Z8lb2oxGzZCH14PY-30" value="" style="edgeStyle=orthogonalEdgeStyle;rounded=0;orthogonalLoop=1;jettySize=auto;html=1;" edge="1" parent="rTIstRNz8TZwAmsyW3x4-1" source="D5r7Z8lb2oxGzZCH14PY-31" target="D5r7Z8lb2oxGzZCH14PY-33">
          <mxGeometry relative="1" as="geometry" />
        </mxCell>
        <mxCell id="D5r7Z8lb2oxGzZCH14PY-31" value="key=7&lt;br&gt;value=B" style="text;strokeColor=#6c8ebf;fillColor=#dae8fc;align=center;verticalAlign=middle;spacingLeft=4;spacingRight=4;overflow=hidden;points=[[0,0.5],[1,0.5]];portConstraint=eastwest;rotatable=0;whiteSpace=wrap;html=1;" vertex="1" parent="rTIstRNz8TZwAmsyW3x4-1">
          <mxGeometry x="297" y="-73" width="140" height="30" as="geometry" />
        </mxCell>
        <mxCell id="D5r7Z8lb2oxGzZCH14PY-32" value="" style="edgeStyle=orthogonalEdgeStyle;rounded=0;orthogonalLoop=1;jettySize=auto;html=1;" edge="1" parent="rTIstRNz8TZwAmsyW3x4-1" source="D5r7Z8lb2oxGzZCH14PY-33" target="D5r7Z8lb2oxGzZCH14PY-34">
          <mxGeometry relative="1" as="geometry" />
        </mxCell>
        <mxCell id="D5r7Z8lb2oxGzZCH14PY-33" value="key=3&lt;br&gt;value=A" style="text;strokeColor=#82b366;fillColor=#d5e8d4;align=center;verticalAlign=middle;spacingLeft=4;spacingRight=4;overflow=hidden;points=[[0,0.5],[1,0.5]];portConstraint=eastwest;rotatable=0;whiteSpace=wrap;html=1;" vertex="1" parent="rTIstRNz8TZwAmsyW3x4-1">
          <mxGeometry x="517" y="-73" width="140" height="30" as="geometry" />
        </mxCell>
        <mxCell id="D5r7Z8lb2oxGzZCH14PY-34" value="null" style="text;strokeColor=default;fillColor=none;align=center;verticalAlign=middle;spacingLeft=4;spacingRight=4;overflow=hidden;points=[[0,0.5],[1,0.5]];portConstraint=eastwest;rotatable=0;whiteSpace=wrap;html=1;" vertex="1" parent="rTIstRNz8TZwAmsyW3x4-1">
          <mxGeometry x="737" y="-73" width="140" height="30" as="geometry" />
        </mxCell>
        <mxCell id="D5r7Z8lb2oxGzZCH14PY-35" value="null" style="text;strokeColor=default;fillColor=none;align=center;verticalAlign=middle;spacingLeft=4;spacingRight=4;overflow=hidden;points=[[0,0.5],[1,0.5]];portConstraint=eastwest;rotatable=0;whiteSpace=wrap;html=1;" vertex="1" parent="rTIstRNz8TZwAmsyW3x4-1">
          <mxGeometry x="297" y="-263" width="140" height="30" as="geometry" />
        </mxCell>
        <mxCell id="D5r7Z8lb2oxGzZCH14PY-36" value="线程执行前的初始状态" style="text;html=1;align=center;verticalAlign=middle;whiteSpace=wrap;rounded=0;fillColor=#e3c800;fontColor=#000000;strokeColor=#B09500;" vertex="1" parent="rTIstRNz8TZwAmsyW3x4-1">
          <mxGeometry x="567" y="-386" width="364" height="30" as="geometry" />
        </mxCell>
        <mxCell id="D5r7Z8lb2oxGzZCH14PY-37" value="key=3&lt;br&gt;value=A" style="text;strokeColor=#82b366;fillColor=#d5e8d4;align=center;verticalAlign=middle;spacingLeft=4;spacingRight=4;overflow=hidden;points=[[0,0.5],[1,0.5]];portConstraint=eastwest;rotatable=0;whiteSpace=wrap;html=1;" vertex="1" parent="rTIstRNz8TZwAmsyW3x4-1">
          <mxGeometry x="697" y="-274" width="140" height="30" as="geometry" />
        </mxCell>
        <mxCell id="D5r7Z8lb2oxGzZCH14PY-38" value="key=7&lt;br&gt;value=B" style="text;strokeColor=#6c8ebf;fillColor=#dae8fc;align=center;verticalAlign=middle;spacingLeft=4;spacingRight=4;overflow=hidden;points=[[0,0.5],[1,0.5]];portConstraint=eastwest;rotatable=0;whiteSpace=wrap;html=1;" vertex="1" parent="rTIstRNz8TZwAmsyW3x4-1">
          <mxGeometry x="917" y="-274" width="140" height="30" as="geometry" />
        </mxCell>
        <mxCell id="D5r7Z8lb2oxGzZCH14PY-39" value="e" style="text;html=1;align=center;verticalAlign=middle;whiteSpace=wrap;rounded=0;" vertex="1" parent="rTIstRNz8TZwAmsyW3x4-1">
          <mxGeometry x="679" y="-321" width="60" height="30" as="geometry" />
        </mxCell>
        <mxCell id="D5r7Z8lb2oxGzZCH14PY-40" value="next" style="text;html=1;align=center;verticalAlign=middle;whiteSpace=wrap;rounded=0;" vertex="1" parent="rTIstRNz8TZwAmsyW3x4-1">
          <mxGeometry x="890" y="-321" width="60" height="30" as="geometry" />
        </mxCell>
        <mxCell id="D5r7Z8lb2oxGzZCH14PY-41" value="" style="endArrow=classic;html=1;rounded=0;dashed=1;exitX=0.75;exitY=1;exitDx=0;exitDy=0;" edge="1" source="D5r7Z8lb2oxGzZCH14PY-39" target="D5r7Z8lb2oxGzZCH14PY-37" parent="rTIstRNz8TZwAmsyW3x4-1">
          <mxGeometry width="50" height="50" relative="1" as="geometry">
            <mxPoint x="719" y="-307" as="sourcePoint" />
            <mxPoint x="745" y="-271" as="targetPoint" />
          </mxGeometry>
        </mxCell>
        <mxCell id="D5r7Z8lb2oxGzZCH14PY-42" value="" style="endArrow=classic;html=1;rounded=0;dashed=1;entryX=0.463;entryY=0.02;entryDx=0;entryDy=0;entryPerimeter=0;" edge="1" source="D5r7Z8lb2oxGzZCH14PY-40" target="D5r7Z8lb2oxGzZCH14PY-38" parent="rTIstRNz8TZwAmsyW3x4-1">
          <mxGeometry width="50" height="50" relative="1" as="geometry">
            <mxPoint x="729" y="-297" as="sourcePoint" />
            <mxPoint x="755" y="-261" as="targetPoint" />
          </mxGeometry>
        </mxCell>
        <mxCell id="vj5qBNUh6RRc1UhCiyZ2-0" value="&lt;font style=&quot;font-size: 30px;&quot;&gt;线程不安全的真实情况&lt;/font&gt;" style="text;html=1;align=center;verticalAlign=middle;whiteSpace=wrap;rounded=0;fillColor=#e51400;fontColor=#ffffff;strokeColor=#B20000;" vertex="1" parent="rTIstRNz8TZwAmsyW3x4-1">
          <mxGeometry x="1605" y="291" width="343" height="497" as="geometry" />
        </mxCell>
      </root>
    </mxGraphModel>
  </diagram>
  <diagram id="ofHIM-VnArsjIGUZLl-h" name="第 5 页">
    <mxGraphModel dx="1687" dy="868" grid="0" gridSize="10" guides="1" tooltips="1" connect="1" arrows="1" fold="1" page="1" pageScale="1" pageWidth="3300" pageHeight="4681" math="0" shadow="0">
      <root>
        <mxCell id="0" />
        <mxCell id="1" parent="0" />
        <mxCell id="yweMEu1xpSQeKLbWvd30-23" value="线程1释放断点，完成第二轮循环" style="text;html=1;align=center;verticalAlign=middle;whiteSpace=wrap;rounded=0;fillColor=#fad7ac;strokeColor=#b46504;" vertex="1" parent="1">
          <mxGeometry x="77" y="46" width="372" height="30" as="geometry" />
        </mxCell>
        <mxCell id="P2KH2HoYqT4pNE3mGFdI-1" value="执行Entry&amp;lt;K,V&amp;gt; next = e.next;" style="text;html=1;align=center;verticalAlign=middle;whiteSpace=wrap;rounded=0;fillColor=#e3c800;fontColor=#000000;strokeColor=#B09500;" vertex="1" parent="1">
          <mxGeometry x="517" y="184" width="364" height="30" as="geometry" />
        </mxCell>
        <mxCell id="P2KH2HoYqT4pNE3mGFdI-2" value="key=7&lt;br&gt;value=B" style="text;strokeColor=#6c8ebf;fillColor=#dae8fc;align=center;verticalAlign=middle;spacingLeft=4;spacingRight=4;overflow=hidden;points=[[0,0.5],[1,0.5]];portConstraint=eastwest;rotatable=0;whiteSpace=wrap;html=1;" vertex="1" parent="1">
          <mxGeometry x="639" y="302.5" width="140" height="30" as="geometry" />
        </mxCell>
        <mxCell id="P2KH2HoYqT4pNE3mGFdI-3" value="e" style="text;html=1;align=center;verticalAlign=middle;whiteSpace=wrap;rounded=0;" vertex="1" parent="1">
          <mxGeometry x="612" y="255.5" width="60" height="30" as="geometry" />
        </mxCell>
        <mxCell id="P2KH2HoYqT4pNE3mGFdI-4" value="" style="endArrow=classic;html=1;rounded=0;dashed=1;entryX=0.463;entryY=0.02;entryDx=0;entryDy=0;entryPerimeter=0;" edge="1" source="P2KH2HoYqT4pNE3mGFdI-3" target="P2KH2HoYqT4pNE3mGFdI-2" parent="1">
          <mxGeometry width="50" height="50" relative="1" as="geometry">
            <mxPoint x="451" y="279.5" as="sourcePoint" />
            <mxPoint x="477" y="315.5" as="targetPoint" />
          </mxGeometry>
        </mxCell>
        <mxCell id="P2KH2HoYqT4pNE3mGFdI-5" value="" style="edgeStyle=orthogonalEdgeStyle;rounded=0;orthogonalLoop=1;jettySize=auto;html=1;entryX=0;entryY=0.5;entryDx=0;entryDy=0;" edge="1" source="P2KH2HoYqT4pNE3mGFdI-6" target="P2KH2HoYqT4pNE3mGFdI-20" parent="1">
          <mxGeometry relative="1" as="geometry">
            <mxPoint x="297" y="300.5" as="targetPoint" />
          </mxGeometry>
        </mxCell>
        <mxCell id="P2KH2HoYqT4pNE3mGFdI-6" value="1" style="text;strokeColor=#d6b656;fillColor=#fff2cc;align=center;verticalAlign=middle;spacingLeft=4;spacingRight=4;overflow=hidden;points=[[0,0.5],[1,0.5]];portConstraint=eastwest;rotatable=0;whiteSpace=wrap;html=1;" vertex="1" parent="1">
          <mxGeometry x="77" y="285.5" width="140" height="30" as="geometry" />
        </mxCell>
        <mxCell id="P2KH2HoYqT4pNE3mGFdI-7" value="0" style="text;strokeColor=#d6b656;fillColor=#fff2cc;align=center;verticalAlign=middle;spacingLeft=4;spacingRight=4;overflow=hidden;points=[[0,0.5],[1,0.5]];portConstraint=eastwest;rotatable=0;whiteSpace=wrap;html=1;" vertex="1" parent="1">
          <mxGeometry x="77" y="255.5" width="140" height="30" as="geometry" />
        </mxCell>
        <mxCell id="P2KH2HoYqT4pNE3mGFdI-8" value="2" style="text;strokeColor=#b85450;fillColor=#f8cecc;align=center;verticalAlign=middle;spacingLeft=4;spacingRight=4;overflow=hidden;points=[[0,0.5],[1,0.5]];portConstraint=eastwest;rotatable=0;whiteSpace=wrap;html=1;" vertex="1" parent="1">
          <mxGeometry x="77" y="445.5" width="140" height="30" as="geometry" />
        </mxCell>
        <mxCell id="P2KH2HoYqT4pNE3mGFdI-9" value="" style="edgeStyle=orthogonalEdgeStyle;rounded=0;orthogonalLoop=1;jettySize=auto;html=1;" edge="1" source="P2KH2HoYqT4pNE3mGFdI-10" target="P2KH2HoYqT4pNE3mGFdI-15" parent="1">
          <mxGeometry relative="1" as="geometry" />
        </mxCell>
        <mxCell id="P2KH2HoYqT4pNE3mGFdI-10" value="1" style="text;strokeColor=#b85450;fillColor=#f8cecc;align=center;verticalAlign=middle;spacingLeft=4;spacingRight=4;overflow=hidden;points=[[0,0.5],[1,0.5]];portConstraint=eastwest;rotatable=0;whiteSpace=wrap;html=1;" vertex="1" parent="1">
          <mxGeometry x="77" y="415.5" width="140" height="30" as="geometry" />
        </mxCell>
        <mxCell id="P2KH2HoYqT4pNE3mGFdI-11" value="0" style="text;strokeColor=#b85450;fillColor=#f8cecc;align=center;verticalAlign=middle;spacingLeft=4;spacingRight=4;overflow=hidden;points=[[0,0.5],[1,0.5]];portConstraint=eastwest;rotatable=0;whiteSpace=wrap;html=1;" vertex="1" parent="1">
          <mxGeometry x="77" y="385.5" width="140" height="30" as="geometry" />
        </mxCell>
        <mxCell id="P2KH2HoYqT4pNE3mGFdI-12" style="edgeStyle=orthogonalEdgeStyle;rounded=0;orthogonalLoop=1;jettySize=auto;html=1;entryX=0;entryY=0.5;entryDx=0;entryDy=0;" edge="1" source="P2KH2HoYqT4pNE3mGFdI-13" target="P2KH2HoYqT4pNE3mGFdI-19" parent="1">
          <mxGeometry relative="1" as="geometry" />
        </mxCell>
        <mxCell id="P2KH2HoYqT4pNE3mGFdI-13" value="3" style="text;strokeColor=#b85450;fillColor=#f8cecc;align=center;verticalAlign=middle;spacingLeft=4;spacingRight=4;overflow=hidden;points=[[0,0.5],[1,0.5]];portConstraint=eastwest;rotatable=0;whiteSpace=wrap;html=1;" vertex="1" parent="1">
          <mxGeometry x="77" y="475.5" width="140" height="30" as="geometry" />
        </mxCell>
        <mxCell id="P2KH2HoYqT4pNE3mGFdI-14" value="" style="edgeStyle=orthogonalEdgeStyle;rounded=0;orthogonalLoop=1;jettySize=auto;html=1;" edge="1" source="P2KH2HoYqT4pNE3mGFdI-15" target="P2KH2HoYqT4pNE3mGFdI-16" parent="1">
          <mxGeometry relative="1" as="geometry" />
        </mxCell>
        <mxCell id="P2KH2HoYqT4pNE3mGFdI-15" value="key=5&lt;br&gt;value=C" style="text;strokeColor=#36393d;fillColor=#f9f7ed;align=center;verticalAlign=middle;spacingLeft=4;spacingRight=4;overflow=hidden;points=[[0,0.5],[1,0.5]];portConstraint=eastwest;rotatable=0;whiteSpace=wrap;html=1;" vertex="1" parent="1">
          <mxGeometry x="297" y="415.5" width="140" height="30" as="geometry" />
        </mxCell>
        <mxCell id="P2KH2HoYqT4pNE3mGFdI-16" value="null" style="text;strokeColor=default;fillColor=none;align=center;verticalAlign=middle;spacingLeft=4;spacingRight=4;overflow=hidden;points=[[0,0.5],[1,0.5]];portConstraint=eastwest;rotatable=0;whiteSpace=wrap;html=1;" vertex="1" parent="1">
          <mxGeometry x="517" y="415.5" width="140" height="30" as="geometry" />
        </mxCell>
        <mxCell id="P2KH2HoYqT4pNE3mGFdI-17" value="key=7&lt;br&gt;value=B" style="text;strokeColor=#6c8ebf;fillColor=#dae8fc;align=center;verticalAlign=middle;spacingLeft=4;spacingRight=4;overflow=hidden;points=[[0,0.5],[1,0.5]];portConstraint=eastwest;rotatable=0;whiteSpace=wrap;html=1;" vertex="1" parent="1">
          <mxGeometry x="517" y="475.5" width="140" height="30" as="geometry" />
        </mxCell>
        <mxCell id="P2KH2HoYqT4pNE3mGFdI-18" style="edgeStyle=orthogonalEdgeStyle;rounded=0;orthogonalLoop=1;jettySize=auto;html=1;" edge="1" source="P2KH2HoYqT4pNE3mGFdI-19" target="P2KH2HoYqT4pNE3mGFdI-17" parent="1">
          <mxGeometry relative="1" as="geometry" />
        </mxCell>
        <mxCell id="P2KH2HoYqT4pNE3mGFdI-19" value="key=3&lt;br&gt;value=A" style="text;strokeColor=#82b366;fillColor=#d5e8d4;align=center;verticalAlign=middle;spacingLeft=4;spacingRight=4;overflow=hidden;points=[[0,0.5],[1,0.5]];portConstraint=eastwest;rotatable=0;whiteSpace=wrap;html=1;" vertex="1" parent="1">
          <mxGeometry x="297" y="475.5" width="140" height="30" as="geometry" />
        </mxCell>
        <mxCell id="P2KH2HoYqT4pNE3mGFdI-20" value="null" style="text;strokeColor=default;fillColor=none;align=center;verticalAlign=middle;spacingLeft=4;spacingRight=4;overflow=hidden;points=[[0,0.5],[1,0.5]];portConstraint=eastwest;rotatable=0;whiteSpace=wrap;html=1;" vertex="1" parent="1">
          <mxGeometry x="297" y="285.5" width="140" height="30" as="geometry" />
        </mxCell>
        <mxCell id="P2KH2HoYqT4pNE3mGFdI-21" style="edgeStyle=orthogonalEdgeStyle;rounded=0;orthogonalLoop=1;jettySize=auto;html=1;entryX=0.5;entryY=1.033;entryDx=0;entryDy=0;entryPerimeter=0;" edge="1" source="P2KH2HoYqT4pNE3mGFdI-17" target="P2KH2HoYqT4pNE3mGFdI-19" parent="1">
          <mxGeometry relative="1" as="geometry">
            <Array as="points">
              <mxPoint x="590" y="560.5" />
              <mxPoint x="367" y="560.5" />
            </Array>
          </mxGeometry>
        </mxCell>
        <mxCell id="P2KH2HoYqT4pNE3mGFdI-22" value="key=3&lt;br&gt;value=A" style="text;strokeColor=#82b366;fillColor=#d5e8d4;align=center;verticalAlign=middle;spacingLeft=4;spacingRight=4;overflow=hidden;points=[[0,0.5],[1,0.5]];portConstraint=eastwest;rotatable=0;whiteSpace=wrap;html=1;" vertex="1" parent="1">
          <mxGeometry x="886" y="306" width="140" height="30" as="geometry" />
        </mxCell>
        <mxCell id="P2KH2HoYqT4pNE3mGFdI-23" value="next" style="text;html=1;align=center;verticalAlign=middle;whiteSpace=wrap;rounded=0;" vertex="1" parent="1">
          <mxGeometry x="868" y="259" width="60" height="30" as="geometry" />
        </mxCell>
        <mxCell id="P2KH2HoYqT4pNE3mGFdI-24" value="" style="endArrow=classic;html=1;rounded=0;dashed=1;exitX=0.75;exitY=1;exitDx=0;exitDy=0;" edge="1" source="P2KH2HoYqT4pNE3mGFdI-23" target="P2KH2HoYqT4pNE3mGFdI-22" parent="1">
          <mxGeometry width="50" height="50" relative="1" as="geometry">
            <mxPoint x="908" y="273" as="sourcePoint" />
            <mxPoint x="934" y="309" as="targetPoint" />
          </mxGeometry>
        </mxCell>
        <mxCell id="P2KH2HoYqT4pNE3mGFdI-25" value="key=7&lt;br&gt;value=B" style="text;strokeColor=#6c8ebf;fillColor=#dae8fc;align=center;verticalAlign=middle;spacingLeft=4;spacingRight=4;overflow=hidden;points=[[0,0.5],[1,0.5]];portConstraint=eastwest;rotatable=0;whiteSpace=wrap;html=1;" vertex="1" parent="1">
          <mxGeometry x="639" y="728" width="140" height="30" as="geometry" />
        </mxCell>
        <mxCell id="P2KH2HoYqT4pNE3mGFdI-26" value="e" style="text;html=1;align=center;verticalAlign=middle;whiteSpace=wrap;rounded=0;" vertex="1" parent="1">
          <mxGeometry x="612" y="681" width="60" height="30" as="geometry" />
        </mxCell>
        <mxCell id="P2KH2HoYqT4pNE3mGFdI-27" value="" style="endArrow=classic;html=1;rounded=0;dashed=1;entryX=0.463;entryY=0.02;entryDx=0;entryDy=0;entryPerimeter=0;" edge="1" source="P2KH2HoYqT4pNE3mGFdI-26" target="P2KH2HoYqT4pNE3mGFdI-25" parent="1">
          <mxGeometry width="50" height="50" relative="1" as="geometry">
            <mxPoint x="451" y="705" as="sourcePoint" />
            <mxPoint x="477" y="741" as="targetPoint" />
          </mxGeometry>
        </mxCell>
        <mxCell id="P2KH2HoYqT4pNE3mGFdI-28" value="" style="edgeStyle=orthogonalEdgeStyle;rounded=0;orthogonalLoop=1;jettySize=auto;html=1;entryX=0;entryY=0.5;entryDx=0;entryDy=0;" edge="1" source="P2KH2HoYqT4pNE3mGFdI-29" target="P2KH2HoYqT4pNE3mGFdI-43" parent="1">
          <mxGeometry relative="1" as="geometry">
            <mxPoint x="297" y="726" as="targetPoint" />
          </mxGeometry>
        </mxCell>
        <mxCell id="P2KH2HoYqT4pNE3mGFdI-29" value="1" style="text;strokeColor=#d6b656;fillColor=#fff2cc;align=center;verticalAlign=middle;spacingLeft=4;spacingRight=4;overflow=hidden;points=[[0,0.5],[1,0.5]];portConstraint=eastwest;rotatable=0;whiteSpace=wrap;html=1;" vertex="1" parent="1">
          <mxGeometry x="77" y="711" width="140" height="30" as="geometry" />
        </mxCell>
        <mxCell id="P2KH2HoYqT4pNE3mGFdI-30" value="0" style="text;strokeColor=#d6b656;fillColor=#fff2cc;align=center;verticalAlign=middle;spacingLeft=4;spacingRight=4;overflow=hidden;points=[[0,0.5],[1,0.5]];portConstraint=eastwest;rotatable=0;whiteSpace=wrap;html=1;" vertex="1" parent="1">
          <mxGeometry x="77" y="681" width="140" height="30" as="geometry" />
        </mxCell>
        <mxCell id="P2KH2HoYqT4pNE3mGFdI-31" value="2" style="text;strokeColor=#b85450;fillColor=#f8cecc;align=center;verticalAlign=middle;spacingLeft=4;spacingRight=4;overflow=hidden;points=[[0,0.5],[1,0.5]];portConstraint=eastwest;rotatable=0;whiteSpace=wrap;html=1;" vertex="1" parent="1">
          <mxGeometry x="77" y="871" width="140" height="30" as="geometry" />
        </mxCell>
        <mxCell id="P2KH2HoYqT4pNE3mGFdI-32" value="" style="edgeStyle=orthogonalEdgeStyle;rounded=0;orthogonalLoop=1;jettySize=auto;html=1;" edge="1" source="P2KH2HoYqT4pNE3mGFdI-33" target="P2KH2HoYqT4pNE3mGFdI-38" parent="1">
          <mxGeometry relative="1" as="geometry" />
        </mxCell>
        <mxCell id="P2KH2HoYqT4pNE3mGFdI-33" value="1" style="text;strokeColor=#b85450;fillColor=#f8cecc;align=center;verticalAlign=middle;spacingLeft=4;spacingRight=4;overflow=hidden;points=[[0,0.5],[1,0.5]];portConstraint=eastwest;rotatable=0;whiteSpace=wrap;html=1;" vertex="1" parent="1">
          <mxGeometry x="77" y="841" width="140" height="30" as="geometry" />
        </mxCell>
        <mxCell id="P2KH2HoYqT4pNE3mGFdI-34" value="0" style="text;strokeColor=#b85450;fillColor=#f8cecc;align=center;verticalAlign=middle;spacingLeft=4;spacingRight=4;overflow=hidden;points=[[0,0.5],[1,0.5]];portConstraint=eastwest;rotatable=0;whiteSpace=wrap;html=1;" vertex="1" parent="1">
          <mxGeometry x="77" y="811" width="140" height="30" as="geometry" />
        </mxCell>
        <mxCell id="P2KH2HoYqT4pNE3mGFdI-35" style="edgeStyle=orthogonalEdgeStyle;rounded=0;orthogonalLoop=1;jettySize=auto;html=1;entryX=0;entryY=0.5;entryDx=0;entryDy=0;" edge="1" source="P2KH2HoYqT4pNE3mGFdI-36" target="P2KH2HoYqT4pNE3mGFdI-42" parent="1">
          <mxGeometry relative="1" as="geometry" />
        </mxCell>
        <mxCell id="P2KH2HoYqT4pNE3mGFdI-36" value="3" style="text;strokeColor=#b85450;fillColor=#f8cecc;align=center;verticalAlign=middle;spacingLeft=4;spacingRight=4;overflow=hidden;points=[[0,0.5],[1,0.5]];portConstraint=eastwest;rotatable=0;whiteSpace=wrap;html=1;" vertex="1" parent="1">
          <mxGeometry x="77" y="901" width="140" height="30" as="geometry" />
        </mxCell>
        <mxCell id="P2KH2HoYqT4pNE3mGFdI-37" value="" style="edgeStyle=orthogonalEdgeStyle;rounded=0;orthogonalLoop=1;jettySize=auto;html=1;" edge="1" source="P2KH2HoYqT4pNE3mGFdI-38" target="P2KH2HoYqT4pNE3mGFdI-39" parent="1">
          <mxGeometry relative="1" as="geometry" />
        </mxCell>
        <mxCell id="P2KH2HoYqT4pNE3mGFdI-38" value="key=5&lt;br&gt;value=C" style="text;strokeColor=#36393d;fillColor=#f9f7ed;align=center;verticalAlign=middle;spacingLeft=4;spacingRight=4;overflow=hidden;points=[[0,0.5],[1,0.5]];portConstraint=eastwest;rotatable=0;whiteSpace=wrap;html=1;" vertex="1" parent="1">
          <mxGeometry x="297" y="841" width="140" height="30" as="geometry" />
        </mxCell>
        <mxCell id="P2KH2HoYqT4pNE3mGFdI-39" value="null" style="text;strokeColor=default;fillColor=none;align=center;verticalAlign=middle;spacingLeft=4;spacingRight=4;overflow=hidden;points=[[0,0.5],[1,0.5]];portConstraint=eastwest;rotatable=0;whiteSpace=wrap;html=1;" vertex="1" parent="1">
          <mxGeometry x="517" y="841" width="140" height="30" as="geometry" />
        </mxCell>
        <mxCell id="P2KH2HoYqT4pNE3mGFdI-40" value="key=7&lt;br&gt;value=B" style="text;strokeColor=#6c8ebf;fillColor=#dae8fc;align=center;verticalAlign=middle;spacingLeft=4;spacingRight=4;overflow=hidden;points=[[0,0.5],[1,0.5]];portConstraint=eastwest;rotatable=0;whiteSpace=wrap;html=1;" vertex="1" parent="1">
          <mxGeometry x="517" y="901" width="140" height="30" as="geometry" />
        </mxCell>
        <mxCell id="P2KH2HoYqT4pNE3mGFdI-41" style="edgeStyle=orthogonalEdgeStyle;rounded=0;orthogonalLoop=1;jettySize=auto;html=1;" edge="1" source="P2KH2HoYqT4pNE3mGFdI-42" target="P2KH2HoYqT4pNE3mGFdI-40" parent="1">
          <mxGeometry relative="1" as="geometry" />
        </mxCell>
        <mxCell id="P2KH2HoYqT4pNE3mGFdI-42" value="key=3&lt;br&gt;value=A" style="text;strokeColor=#82b366;fillColor=#d5e8d4;align=center;verticalAlign=middle;spacingLeft=4;spacingRight=4;overflow=hidden;points=[[0,0.5],[1,0.5]];portConstraint=eastwest;rotatable=0;whiteSpace=wrap;html=1;" vertex="1" parent="1">
          <mxGeometry x="297" y="901" width="140" height="30" as="geometry" />
        </mxCell>
        <mxCell id="P2KH2HoYqT4pNE3mGFdI-43" value="null" style="text;strokeColor=default;fillColor=none;align=center;verticalAlign=middle;spacingLeft=4;spacingRight=4;overflow=hidden;points=[[0,0.5],[1,0.5]];portConstraint=eastwest;rotatable=0;whiteSpace=wrap;html=1;" vertex="1" parent="1">
          <mxGeometry x="297" y="711" width="140" height="30" as="geometry" />
        </mxCell>
        <mxCell id="P2KH2HoYqT4pNE3mGFdI-44" style="edgeStyle=orthogonalEdgeStyle;rounded=0;orthogonalLoop=1;jettySize=auto;html=1;entryX=0.5;entryY=1.033;entryDx=0;entryDy=0;entryPerimeter=0;" edge="1" source="P2KH2HoYqT4pNE3mGFdI-40" target="P2KH2HoYqT4pNE3mGFdI-42" parent="1">
          <mxGeometry relative="1" as="geometry">
            <Array as="points">
              <mxPoint x="590" y="986" />
              <mxPoint x="367" y="986" />
            </Array>
          </mxGeometry>
        </mxCell>
        <mxCell id="P2KH2HoYqT4pNE3mGFdI-45" value="key=3&lt;br&gt;value=A" style="text;strokeColor=#82b366;fillColor=#d5e8d4;align=center;verticalAlign=middle;spacingLeft=4;spacingRight=4;overflow=hidden;points=[[0,0.5],[1,0.5]];portConstraint=eastwest;rotatable=0;whiteSpace=wrap;html=1;" vertex="1" parent="1">
          <mxGeometry x="886" y="731.5" width="140" height="30" as="geometry" />
        </mxCell>
        <mxCell id="P2KH2HoYqT4pNE3mGFdI-46" value="next" style="text;html=1;align=center;verticalAlign=middle;whiteSpace=wrap;rounded=0;" vertex="1" parent="1">
          <mxGeometry x="868" y="684.5" width="60" height="30" as="geometry" />
        </mxCell>
        <mxCell id="P2KH2HoYqT4pNE3mGFdI-47" value="" style="endArrow=classic;html=1;rounded=0;dashed=1;exitX=0.75;exitY=1;exitDx=0;exitDy=0;" edge="1" source="P2KH2HoYqT4pNE3mGFdI-46" target="P2KH2HoYqT4pNE3mGFdI-45" parent="1">
          <mxGeometry width="50" height="50" relative="1" as="geometry">
            <mxPoint x="908" y="698.5" as="sourcePoint" />
            <mxPoint x="934" y="734.5" as="targetPoint" />
          </mxGeometry>
        </mxCell>
        <mxCell id="P2KH2HoYqT4pNE3mGFdI-48" value="执行e.next = newTable[i];" style="text;html=1;align=center;verticalAlign=middle;whiteSpace=wrap;rounded=0;fillColor=#e3c800;fontColor=#000000;strokeColor=#B09500;" vertex="1" parent="1">
          <mxGeometry x="614" y="619" width="364" height="30" as="geometry" />
        </mxCell>
        <mxCell id="P2KH2HoYqT4pNE3mGFdI-49" value="执行newTable[i] = e;" style="text;html=1;align=center;verticalAlign=middle;whiteSpace=wrap;rounded=0;fillColor=#e3c800;fontColor=#000000;strokeColor=#B09500;" vertex="1" parent="1">
          <mxGeometry x="612" y="1061" width="364" height="30" as="geometry" />
        </mxCell>
        <mxCell id="P2KH2HoYqT4pNE3mGFdI-50" value="key=7&lt;br&gt;value=B" style="text;strokeColor=#6c8ebf;fillColor=#dae8fc;align=center;verticalAlign=middle;spacingLeft=4;spacingRight=4;overflow=hidden;points=[[0,0.5],[1,0.5]];portConstraint=eastwest;rotatable=0;whiteSpace=wrap;html=1;" vertex="1" parent="1">
          <mxGeometry x="639" y="1205" width="140" height="30" as="geometry" />
        </mxCell>
        <mxCell id="P2KH2HoYqT4pNE3mGFdI-51" value="e" style="text;html=1;align=center;verticalAlign=middle;whiteSpace=wrap;rounded=0;" vertex="1" parent="1">
          <mxGeometry x="612" y="1158" width="60" height="30" as="geometry" />
        </mxCell>
        <mxCell id="P2KH2HoYqT4pNE3mGFdI-52" value="" style="endArrow=classic;html=1;rounded=0;dashed=1;entryX=0.463;entryY=0.02;entryDx=0;entryDy=0;entryPerimeter=0;" edge="1" source="P2KH2HoYqT4pNE3mGFdI-51" target="P2KH2HoYqT4pNE3mGFdI-50" parent="1">
          <mxGeometry width="50" height="50" relative="1" as="geometry">
            <mxPoint x="451" y="1182" as="sourcePoint" />
            <mxPoint x="477" y="1218" as="targetPoint" />
          </mxGeometry>
        </mxCell>
        <mxCell id="P2KH2HoYqT4pNE3mGFdI-53" value="" style="edgeStyle=orthogonalEdgeStyle;rounded=0;orthogonalLoop=1;jettySize=auto;html=1;entryX=0;entryY=0.5;entryDx=0;entryDy=0;" edge="1" source="P2KH2HoYqT4pNE3mGFdI-54" target="P2KH2HoYqT4pNE3mGFdI-68" parent="1">
          <mxGeometry relative="1" as="geometry">
            <mxPoint x="297" y="1203" as="targetPoint" />
          </mxGeometry>
        </mxCell>
        <mxCell id="P2KH2HoYqT4pNE3mGFdI-54" value="1" style="text;strokeColor=#d6b656;fillColor=#fff2cc;align=center;verticalAlign=middle;spacingLeft=4;spacingRight=4;overflow=hidden;points=[[0,0.5],[1,0.5]];portConstraint=eastwest;rotatable=0;whiteSpace=wrap;html=1;" vertex="1" parent="1">
          <mxGeometry x="77" y="1188" width="140" height="30" as="geometry" />
        </mxCell>
        <mxCell id="P2KH2HoYqT4pNE3mGFdI-55" value="0" style="text;strokeColor=#d6b656;fillColor=#fff2cc;align=center;verticalAlign=middle;spacingLeft=4;spacingRight=4;overflow=hidden;points=[[0,0.5],[1,0.5]];portConstraint=eastwest;rotatable=0;whiteSpace=wrap;html=1;" vertex="1" parent="1">
          <mxGeometry x="77" y="1158" width="140" height="30" as="geometry" />
        </mxCell>
        <mxCell id="P2KH2HoYqT4pNE3mGFdI-56" value="2" style="text;strokeColor=#b85450;fillColor=#f8cecc;align=center;verticalAlign=middle;spacingLeft=4;spacingRight=4;overflow=hidden;points=[[0,0.5],[1,0.5]];portConstraint=eastwest;rotatable=0;whiteSpace=wrap;html=1;" vertex="1" parent="1">
          <mxGeometry x="77" y="1348" width="140" height="30" as="geometry" />
        </mxCell>
        <mxCell id="P2KH2HoYqT4pNE3mGFdI-57" value="" style="edgeStyle=orthogonalEdgeStyle;rounded=0;orthogonalLoop=1;jettySize=auto;html=1;" edge="1" source="P2KH2HoYqT4pNE3mGFdI-58" target="P2KH2HoYqT4pNE3mGFdI-63" parent="1">
          <mxGeometry relative="1" as="geometry" />
        </mxCell>
        <mxCell id="P2KH2HoYqT4pNE3mGFdI-58" value="1" style="text;strokeColor=#b85450;fillColor=#f8cecc;align=center;verticalAlign=middle;spacingLeft=4;spacingRight=4;overflow=hidden;points=[[0,0.5],[1,0.5]];portConstraint=eastwest;rotatable=0;whiteSpace=wrap;html=1;" vertex="1" parent="1">
          <mxGeometry x="77" y="1318" width="140" height="30" as="geometry" />
        </mxCell>
        <mxCell id="P2KH2HoYqT4pNE3mGFdI-59" value="0" style="text;strokeColor=#b85450;fillColor=#f8cecc;align=center;verticalAlign=middle;spacingLeft=4;spacingRight=4;overflow=hidden;points=[[0,0.5],[1,0.5]];portConstraint=eastwest;rotatable=0;whiteSpace=wrap;html=1;" vertex="1" parent="1">
          <mxGeometry x="77" y="1288" width="140" height="30" as="geometry" />
        </mxCell>
        <mxCell id="P2KH2HoYqT4pNE3mGFdI-60" style="edgeStyle=orthogonalEdgeStyle;rounded=0;orthogonalLoop=1;jettySize=auto;html=1;entryX=0;entryY=0.5;entryDx=0;entryDy=0;" edge="1" source="P2KH2HoYqT4pNE3mGFdI-61" target="P2KH2HoYqT4pNE3mGFdI-67" parent="1">
          <mxGeometry relative="1" as="geometry" />
        </mxCell>
        <mxCell id="P2KH2HoYqT4pNE3mGFdI-61" value="3" style="text;strokeColor=#b85450;fillColor=#f8cecc;align=center;verticalAlign=middle;spacingLeft=4;spacingRight=4;overflow=hidden;points=[[0,0.5],[1,0.5]];portConstraint=eastwest;rotatable=0;whiteSpace=wrap;html=1;" vertex="1" parent="1">
          <mxGeometry x="77" y="1378" width="140" height="30" as="geometry" />
        </mxCell>
        <mxCell id="P2KH2HoYqT4pNE3mGFdI-62" value="" style="edgeStyle=orthogonalEdgeStyle;rounded=0;orthogonalLoop=1;jettySize=auto;html=1;" edge="1" source="P2KH2HoYqT4pNE3mGFdI-63" target="P2KH2HoYqT4pNE3mGFdI-64" parent="1">
          <mxGeometry relative="1" as="geometry" />
        </mxCell>
        <mxCell id="P2KH2HoYqT4pNE3mGFdI-63" value="key=5&lt;br&gt;value=C" style="text;strokeColor=#36393d;fillColor=#f9f7ed;align=center;verticalAlign=middle;spacingLeft=4;spacingRight=4;overflow=hidden;points=[[0,0.5],[1,0.5]];portConstraint=eastwest;rotatable=0;whiteSpace=wrap;html=1;" vertex="1" parent="1">
          <mxGeometry x="297" y="1318" width="140" height="30" as="geometry" />
        </mxCell>
        <mxCell id="P2KH2HoYqT4pNE3mGFdI-64" value="null" style="text;strokeColor=default;fillColor=none;align=center;verticalAlign=middle;spacingLeft=4;spacingRight=4;overflow=hidden;points=[[0,0.5],[1,0.5]];portConstraint=eastwest;rotatable=0;whiteSpace=wrap;html=1;" vertex="1" parent="1">
          <mxGeometry x="517" y="1318" width="140" height="30" as="geometry" />
        </mxCell>
        <mxCell id="P2KH2HoYqT4pNE3mGFdI-65" value="key=7&lt;br&gt;value=B" style="text;strokeColor=#6c8ebf;fillColor=#dae8fc;align=center;verticalAlign=middle;spacingLeft=4;spacingRight=4;overflow=hidden;points=[[0,0.5],[1,0.5]];portConstraint=eastwest;rotatable=0;whiteSpace=wrap;html=1;" vertex="1" parent="1">
          <mxGeometry x="517" y="1378" width="140" height="30" as="geometry" />
        </mxCell>
        <mxCell id="P2KH2HoYqT4pNE3mGFdI-66" style="edgeStyle=orthogonalEdgeStyle;rounded=0;orthogonalLoop=1;jettySize=auto;html=1;" edge="1" source="P2KH2HoYqT4pNE3mGFdI-67" target="P2KH2HoYqT4pNE3mGFdI-65" parent="1">
          <mxGeometry relative="1" as="geometry" />
        </mxCell>
        <mxCell id="P2KH2HoYqT4pNE3mGFdI-67" value="key=3&lt;br&gt;value=A" style="text;strokeColor=#82b366;fillColor=#d5e8d4;align=center;verticalAlign=middle;spacingLeft=4;spacingRight=4;overflow=hidden;points=[[0,0.5],[1,0.5]];portConstraint=eastwest;rotatable=0;whiteSpace=wrap;html=1;" vertex="1" parent="1">
          <mxGeometry x="297" y="1378" width="140" height="30" as="geometry" />
        </mxCell>
        <mxCell id="P2KH2HoYqT4pNE3mGFdI-68" value="null" style="text;strokeColor=default;fillColor=none;align=center;verticalAlign=middle;spacingLeft=4;spacingRight=4;overflow=hidden;points=[[0,0.5],[1,0.5]];portConstraint=eastwest;rotatable=0;whiteSpace=wrap;html=1;" vertex="1" parent="1">
          <mxGeometry x="297" y="1188" width="140" height="30" as="geometry" />
        </mxCell>
        <mxCell id="P2KH2HoYqT4pNE3mGFdI-69" style="edgeStyle=orthogonalEdgeStyle;rounded=0;orthogonalLoop=1;jettySize=auto;html=1;entryX=0.5;entryY=1.033;entryDx=0;entryDy=0;entryPerimeter=0;" edge="1" source="P2KH2HoYqT4pNE3mGFdI-65" target="P2KH2HoYqT4pNE3mGFdI-67" parent="1">
          <mxGeometry relative="1" as="geometry">
            <Array as="points">
              <mxPoint x="590" y="1463" />
              <mxPoint x="367" y="1463" />
            </Array>
          </mxGeometry>
        </mxCell>
        <mxCell id="P2KH2HoYqT4pNE3mGFdI-70" value="key=3&lt;br&gt;value=A" style="text;strokeColor=#82b366;fillColor=#d5e8d4;align=center;verticalAlign=middle;spacingLeft=4;spacingRight=4;overflow=hidden;points=[[0,0.5],[1,0.5]];portConstraint=eastwest;rotatable=0;whiteSpace=wrap;html=1;" vertex="1" parent="1">
          <mxGeometry x="886" y="1208.5" width="140" height="30" as="geometry" />
        </mxCell>
        <mxCell id="P2KH2HoYqT4pNE3mGFdI-71" value="next" style="text;html=1;align=center;verticalAlign=middle;whiteSpace=wrap;rounded=0;" vertex="1" parent="1">
          <mxGeometry x="868" y="1161.5" width="60" height="30" as="geometry" />
        </mxCell>
        <mxCell id="P2KH2HoYqT4pNE3mGFdI-72" value="" style="endArrow=classic;html=1;rounded=0;dashed=1;exitX=0.75;exitY=1;exitDx=0;exitDy=0;" edge="1" source="P2KH2HoYqT4pNE3mGFdI-71" target="P2KH2HoYqT4pNE3mGFdI-70" parent="1">
          <mxGeometry width="50" height="50" relative="1" as="geometry">
            <mxPoint x="908" y="1175.5" as="sourcePoint" />
            <mxPoint x="934" y="1211.5" as="targetPoint" />
          </mxGeometry>
        </mxCell>
        <mxCell id="P2KH2HoYqT4pNE3mGFdI-73" value="执行e = next;" style="text;html=1;align=center;verticalAlign=middle;whiteSpace=wrap;rounded=0;fillColor=#e3c800;fontColor=#000000;strokeColor=#B09500;" vertex="1" parent="1">
          <mxGeometry x="614" y="1568" width="364" height="30" as="geometry" />
        </mxCell>
        <mxCell id="P2KH2HoYqT4pNE3mGFdI-77" value="" style="edgeStyle=orthogonalEdgeStyle;rounded=0;orthogonalLoop=1;jettySize=auto;html=1;entryX=0;entryY=0.5;entryDx=0;entryDy=0;" edge="1" source="P2KH2HoYqT4pNE3mGFdI-78" target="P2KH2HoYqT4pNE3mGFdI-92" parent="1">
          <mxGeometry relative="1" as="geometry">
            <mxPoint x="297" y="1705" as="targetPoint" />
          </mxGeometry>
        </mxCell>
        <mxCell id="P2KH2HoYqT4pNE3mGFdI-78" value="1" style="text;strokeColor=#d6b656;fillColor=#fff2cc;align=center;verticalAlign=middle;spacingLeft=4;spacingRight=4;overflow=hidden;points=[[0,0.5],[1,0.5]];portConstraint=eastwest;rotatable=0;whiteSpace=wrap;html=1;" vertex="1" parent="1">
          <mxGeometry x="77" y="1690" width="140" height="30" as="geometry" />
        </mxCell>
        <mxCell id="P2KH2HoYqT4pNE3mGFdI-79" value="0" style="text;strokeColor=#d6b656;fillColor=#fff2cc;align=center;verticalAlign=middle;spacingLeft=4;spacingRight=4;overflow=hidden;points=[[0,0.5],[1,0.5]];portConstraint=eastwest;rotatable=0;whiteSpace=wrap;html=1;" vertex="1" parent="1">
          <mxGeometry x="77" y="1660" width="140" height="30" as="geometry" />
        </mxCell>
        <mxCell id="P2KH2HoYqT4pNE3mGFdI-80" value="2" style="text;strokeColor=#b85450;fillColor=#f8cecc;align=center;verticalAlign=middle;spacingLeft=4;spacingRight=4;overflow=hidden;points=[[0,0.5],[1,0.5]];portConstraint=eastwest;rotatable=0;whiteSpace=wrap;html=1;" vertex="1" parent="1">
          <mxGeometry x="77" y="1850" width="140" height="30" as="geometry" />
        </mxCell>
        <mxCell id="P2KH2HoYqT4pNE3mGFdI-81" value="" style="edgeStyle=orthogonalEdgeStyle;rounded=0;orthogonalLoop=1;jettySize=auto;html=1;" edge="1" source="P2KH2HoYqT4pNE3mGFdI-82" target="P2KH2HoYqT4pNE3mGFdI-87" parent="1">
          <mxGeometry relative="1" as="geometry" />
        </mxCell>
        <mxCell id="P2KH2HoYqT4pNE3mGFdI-82" value="1" style="text;strokeColor=#b85450;fillColor=#f8cecc;align=center;verticalAlign=middle;spacingLeft=4;spacingRight=4;overflow=hidden;points=[[0,0.5],[1,0.5]];portConstraint=eastwest;rotatable=0;whiteSpace=wrap;html=1;" vertex="1" parent="1">
          <mxGeometry x="77" y="1820" width="140" height="30" as="geometry" />
        </mxCell>
        <mxCell id="P2KH2HoYqT4pNE3mGFdI-83" value="0" style="text;strokeColor=#b85450;fillColor=#f8cecc;align=center;verticalAlign=middle;spacingLeft=4;spacingRight=4;overflow=hidden;points=[[0,0.5],[1,0.5]];portConstraint=eastwest;rotatable=0;whiteSpace=wrap;html=1;" vertex="1" parent="1">
          <mxGeometry x="77" y="1790" width="140" height="30" as="geometry" />
        </mxCell>
        <mxCell id="P2KH2HoYqT4pNE3mGFdI-84" style="edgeStyle=orthogonalEdgeStyle;rounded=0;orthogonalLoop=1;jettySize=auto;html=1;entryX=0;entryY=0.5;entryDx=0;entryDy=0;" edge="1" source="P2KH2HoYqT4pNE3mGFdI-85" target="P2KH2HoYqT4pNE3mGFdI-91" parent="1">
          <mxGeometry relative="1" as="geometry" />
        </mxCell>
        <mxCell id="P2KH2HoYqT4pNE3mGFdI-85" value="3" style="text;strokeColor=#b85450;fillColor=#f8cecc;align=center;verticalAlign=middle;spacingLeft=4;spacingRight=4;overflow=hidden;points=[[0,0.5],[1,0.5]];portConstraint=eastwest;rotatable=0;whiteSpace=wrap;html=1;" vertex="1" parent="1">
          <mxGeometry x="77" y="1880" width="140" height="30" as="geometry" />
        </mxCell>
        <mxCell id="P2KH2HoYqT4pNE3mGFdI-86" value="" style="edgeStyle=orthogonalEdgeStyle;rounded=0;orthogonalLoop=1;jettySize=auto;html=1;" edge="1" source="P2KH2HoYqT4pNE3mGFdI-87" target="P2KH2HoYqT4pNE3mGFdI-88" parent="1">
          <mxGeometry relative="1" as="geometry" />
        </mxCell>
        <mxCell id="P2KH2HoYqT4pNE3mGFdI-87" value="key=5&lt;br&gt;value=C" style="text;strokeColor=#36393d;fillColor=#f9f7ed;align=center;verticalAlign=middle;spacingLeft=4;spacingRight=4;overflow=hidden;points=[[0,0.5],[1,0.5]];portConstraint=eastwest;rotatable=0;whiteSpace=wrap;html=1;" vertex="1" parent="1">
          <mxGeometry x="297" y="1820" width="140" height="30" as="geometry" />
        </mxCell>
        <mxCell id="P2KH2HoYqT4pNE3mGFdI-88" value="null" style="text;strokeColor=default;fillColor=none;align=center;verticalAlign=middle;spacingLeft=4;spacingRight=4;overflow=hidden;points=[[0,0.5],[1,0.5]];portConstraint=eastwest;rotatable=0;whiteSpace=wrap;html=1;" vertex="1" parent="1">
          <mxGeometry x="517" y="1820" width="140" height="30" as="geometry" />
        </mxCell>
        <mxCell id="P2KH2HoYqT4pNE3mGFdI-89" value="key=7&lt;br&gt;value=B" style="text;strokeColor=#6c8ebf;fillColor=#dae8fc;align=center;verticalAlign=middle;spacingLeft=4;spacingRight=4;overflow=hidden;points=[[0,0.5],[1,0.5]];portConstraint=eastwest;rotatable=0;whiteSpace=wrap;html=1;" vertex="1" parent="1">
          <mxGeometry x="517" y="1880" width="140" height="30" as="geometry" />
        </mxCell>
        <mxCell id="P2KH2HoYqT4pNE3mGFdI-90" style="edgeStyle=orthogonalEdgeStyle;rounded=0;orthogonalLoop=1;jettySize=auto;html=1;" edge="1" source="P2KH2HoYqT4pNE3mGFdI-91" target="P2KH2HoYqT4pNE3mGFdI-89" parent="1">
          <mxGeometry relative="1" as="geometry" />
        </mxCell>
        <mxCell id="P2KH2HoYqT4pNE3mGFdI-91" value="key=3&lt;br&gt;value=A" style="text;strokeColor=#82b366;fillColor=#d5e8d4;align=center;verticalAlign=middle;spacingLeft=4;spacingRight=4;overflow=hidden;points=[[0,0.5],[1,0.5]];portConstraint=eastwest;rotatable=0;whiteSpace=wrap;html=1;" vertex="1" parent="1">
          <mxGeometry x="297" y="1880" width="140" height="30" as="geometry" />
        </mxCell>
        <mxCell id="P2KH2HoYqT4pNE3mGFdI-92" value="null" style="text;strokeColor=default;fillColor=none;align=center;verticalAlign=middle;spacingLeft=4;spacingRight=4;overflow=hidden;points=[[0,0.5],[1,0.5]];portConstraint=eastwest;rotatable=0;whiteSpace=wrap;html=1;" vertex="1" parent="1">
          <mxGeometry x="297" y="1690" width="140" height="30" as="geometry" />
        </mxCell>
        <mxCell id="P2KH2HoYqT4pNE3mGFdI-93" style="edgeStyle=orthogonalEdgeStyle;rounded=0;orthogonalLoop=1;jettySize=auto;html=1;entryX=0.5;entryY=1.033;entryDx=0;entryDy=0;entryPerimeter=0;" edge="1" source="P2KH2HoYqT4pNE3mGFdI-89" target="P2KH2HoYqT4pNE3mGFdI-91" parent="1">
          <mxGeometry relative="1" as="geometry">
            <Array as="points">
              <mxPoint x="590" y="1965" />
              <mxPoint x="367" y="1965" />
            </Array>
          </mxGeometry>
        </mxCell>
        <mxCell id="P2KH2HoYqT4pNE3mGFdI-94" value="key=3&lt;br&gt;value=A" style="text;strokeColor=#82b366;fillColor=#d5e8d4;align=center;verticalAlign=middle;spacingLeft=4;spacingRight=4;overflow=hidden;points=[[0,0.5],[1,0.5]];portConstraint=eastwest;rotatable=0;whiteSpace=wrap;html=1;" vertex="1" parent="1">
          <mxGeometry x="662" y="1690" width="140" height="30" as="geometry" />
        </mxCell>
        <mxCell id="P2KH2HoYqT4pNE3mGFdI-95" value="e" style="text;html=1;align=center;verticalAlign=middle;whiteSpace=wrap;rounded=0;" vertex="1" parent="1">
          <mxGeometry x="644" y="1643" width="60" height="30" as="geometry" />
        </mxCell>
        <mxCell id="P2KH2HoYqT4pNE3mGFdI-96" value="" style="endArrow=classic;html=1;rounded=0;dashed=1;exitX=0.75;exitY=1;exitDx=0;exitDy=0;" edge="1" source="P2KH2HoYqT4pNE3mGFdI-95" target="P2KH2HoYqT4pNE3mGFdI-94" parent="1">
          <mxGeometry width="50" height="50" relative="1" as="geometry">
            <mxPoint x="684" y="1657" as="sourcePoint" />
            <mxPoint x="710" y="1693" as="targetPoint" />
          </mxGeometry>
        </mxCell>
        <mxCell id="0gJ0M_Tp6mobok2GVxe9-2" value="&lt;font style=&quot;font-size: 30px;&quot;&gt;线程不安全的真实情况&lt;/font&gt;" style="text;html=1;align=center;verticalAlign=middle;whiteSpace=wrap;rounded=0;fillColor=#e51400;fontColor=#ffffff;strokeColor=#B20000;" vertex="1" parent="1">
          <mxGeometry x="1605" y="291" width="343" height="497" as="geometry" />
        </mxCell>
      </root>
    </mxGraphModel>
  </diagram>
</mxfile>
